<?xml version="1.0" encoding="UTF-8" standalone="no"?>
<!-- Generator: Adobe Illustrator 21.1.0, SVG Export Plug-In . SVG Version: 6.00 Build 0)  -->

<svg
   xmlns:dc="http://purl.org/dc/elements/1.1/"
   xmlns:cc="http://creativecommons.org/ns#"
   xmlns:rdf="http://www.w3.org/1999/02/22-rdf-syntax-ns#"
   xmlns:svg="http://www.w3.org/2000/svg"
   xmlns="http://www.w3.org/2000/svg"
   xmlns:xlink="http://www.w3.org/1999/xlink"
   xmlns:sodipodi="http://sodipodi.sourceforge.net/DTD/sodipodi-0.dtd"
   xmlns:inkscape="http://www.inkscape.org/namespaces/inkscape"
   version="1.1"
   id="Camada_1"
   x="0px"
   y="0px"
   viewBox="0 0 454 146.6"
   style="enable-background:new 0 0 454 146.6;"
   xml:space="preserve"
   sodipodi:docname="logouvv.svg"
   inkscape:version="0.92.4 (5da689c313, 2019-01-14)"><metadata
   id="metadata233"><rdf:RDF><cc:Work
       rdf:about=""><dc:format>image/svg+xml</dc:format><dc:type
         rdf:resource="http://purl.org/dc/dcmitype/StillImage" /><dc:title></dc:title></cc:Work></rdf:RDF></metadata><defs
   id="defs231" /><sodipodi:namedview
   pagecolor="#ffffff"
   bordercolor="#666666"
   borderopacity="1"
   objecttolerance="10"
   gridtolerance="10"
   guidetolerance="10"
   inkscape:pageopacity="0"
   inkscape:pageshadow="2"
   inkscape:window-width="640"
   inkscape:window-height="480"
   id="namedview229"
   showgrid="false"
   inkscape:zoom="0.83700441"
   inkscape:cx="227"
   inkscape:cy="73.300003"
   inkscape:window-x="0"
   inkscape:window-y="0"
   inkscape:window-maximized="0"
   inkscape:current-layer="Camada_1" />
<style
   type="text/css"
   id="style2">
	.st0{fill:#2F2B62;}
	.st1{fill:#E3B42C;}
	.st2{clip-path:url(#SVGID_2_);fill:#FFFFFF;}
	.st3{fill:#FFFFFF;}
	.st4{fill:#E5B52C;}
</style>
<g
   id="g226">
	<path
   class="st0"
   d="M140,78.6c-0.1-0.1-0.1-0.3,0-0.4l3.3-2.4c0.2-0.1,0.2-0.3,0-0.4l-3.2-2.6c-0.1-0.1-0.2-0.3,0-0.5l3.1-2.7   c0.1-0.1,0.1-0.3,0-0.4l-3.4-2.3c-0.2-0.1-0.2-0.3,0-0.4l2.8-2.9c0.1-0.1,0.1-0.3-0.1-0.4l-3.6-2c-0.2-0.1-0.2-0.3-0.1-0.4l2.6-3.2   c0.1-0.1,0.1-0.3-0.1-0.4l-3.7-1.7c-0.2-0.1-0.2-0.3-0.1-0.4l2.3-3.4c0.1-0.2,0-0.3-0.1-0.4l-3.9-1.3c-0.2-0.1-0.3-0.3-0.2-0.4   l2-3.6c0.1-0.2,0-0.3-0.2-0.4l-4-1c-0.2,0-0.3-0.2-0.2-0.4l1.6-3.7c0.1-0.2,0-0.3-0.2-0.4l-4-0.6c-0.2,0-0.3-0.2-0.2-0.4l1.3-3.9   c0.1-0.2,0-0.3-0.2-0.4l-4.1-0.2c-0.2,0-0.3-0.2-0.3-0.4l0.9-4c0-0.2-0.1-0.3-0.3-0.3l-4.1,0.1c-0.2,0-0.3-0.1-0.3-0.3l0.6-4   c0-0.2-0.1-0.3-0.3-0.3l-4.1,0.5c-0.2,0-0.3-0.1-0.3-0.3l0.2-4.1c0-0.2-0.1-0.3-0.3-0.3l-4,0.8c-0.2,0-0.3-0.1-0.4-0.3l-0.2-4.1   c0-0.2-0.2-0.3-0.3-0.2l-3.9,1.2c-0.2,0.1-0.4-0.1-0.4-0.2l-0.5-4.1c0-0.2-0.2-0.3-0.4-0.2l-3.8,1.5c-0.2,0.1-0.4,0-0.4-0.2l-0.9-4   c0-0.2-0.2-0.3-0.4-0.2l-3.6,1.9c-0.2,0.1-0.4,0-0.4-0.2l-1.2-3.9c-0.1-0.2-0.2-0.2-0.4-0.1l-3.4,2.2c-0.2,0.1-0.4,0-0.4-0.1   L92.5,7c-0.1-0.2-0.3-0.2-0.4-0.1l-3.2,2.5c-0.2,0.1-0.4,0.1-0.4-0.1l-1.9-3.6c-0.1-0.2-0.3-0.2-0.4-0.1l-3,2.8   c-0.1,0.1-0.3,0.1-0.4-0.1l-2.2-3.4c-0.1-0.2-0.3-0.2-0.4,0l-2.7,3c-0.1,0.1-0.3,0.1-0.5,0l-2.5-3.2c-0.1-0.2-0.3-0.1-0.4,0L71.4,8   c-0.1,0.2-0.3,0.2-0.4,0l-2.8-3c-0.1-0.1-0.3-0.1-0.4,0l-2.2,3.5c-0.1,0.2-0.3,0.2-0.4,0.1L62,5.9c-0.1-0.1-0.3-0.1-0.4,0.1   l-1.8,3.7c-0.1,0.2-0.3,0.2-0.4,0.1l-3.3-2.4c-0.2-0.1-0.3-0.1-0.4,0.1l-1.5,3.8c-0.1,0.2-0.3,0.2-0.4,0.1l-3.5-2.1   c-0.2-0.1-0.3,0-0.4,0.2l-1.2,3.9c-0.1,0.2-0.2,0.3-0.4,0.2l-3.7-1.8c-0.2-0.1-0.3,0-0.4,0.2l-0.8,4c0,0.2-0.2,0.3-0.4,0.2   l-3.8-1.5c-0.2-0.1-0.3,0-0.4,0.2L38.4,19c0,0.2-0.2,0.3-0.4,0.3l-3.9-1.1c-0.2-0.1-0.3,0.1-0.3,0.3l-0.1,4.1   c0,0.2-0.2,0.3-0.3,0.3l-4-0.8c-0.2,0-0.3,0.1-0.3,0.3l0.3,4.1c0,0.2-0.1,0.3-0.3,0.3l-4.1-0.4c-0.2,0-0.3,0.1-0.3,0.3l0.7,4   c0,0.2-0.1,0.3-0.3,0.3l-4.1,0c-0.2,0-0.3,0.2-0.3,0.3l1,4c0,0.2-0.1,0.4-0.3,0.4L17.3,36c-0.2,0-0.3,0.2-0.2,0.4l1.4,3.9   c0.1,0.2,0,0.4-0.2,0.4l-4,0.7c-0.2,0-0.3,0.2-0.2,0.4l1.7,3.7c0.1,0.2,0,0.4-0.2,0.4l-3.9,1.1c-0.2,0-0.3,0.2-0.2,0.4l2,3.5   c0.1,0.2,0,0.4-0.2,0.4l-3.8,1.4c-0.2,0.1-0.2,0.3-0.1,0.4l2.3,3.3c0.1,0.2,0.1,0.4-0.1,0.4l-3.7,1.8c-0.2,0.1-0.2,0.3-0.1,0.4   l2.6,3.1c0.1,0.1,0.1,0.3-0.1,0.4l-3.5,2.1c-0.2,0.1-0.2,0.3-0.1,0.4l2.9,2.9c0.1,0.1,0.1,0.3,0,0.4l-3.3,2.4   c-0.2,0.1-0.2,0.3,0,0.4l3.2,2.6c0.1,0.1,0.2,0.3,0,0.5l-3.1,2.7c-0.1,0.1-0.1,0.3,0,0.4l3.4,2.3c0.2,0.1,0.2,0.3,0,0.4L7,83   c-0.1,0.1-0.1,0.3,0.1,0.4l3.6,2c0.2,0.1,0.2,0.3,0.1,0.4l-2.6,3.2c-0.1,0.1-0.1,0.3,0.1,0.4l3.7,1.7c0.2,0.1,0.2,0.3,0.1,0.4   L9.8,95c-0.1,0.2,0,0.3,0.1,0.4l3.9,1.3c0.2,0.1,0.3,0.3,0.2,0.4l-2,3.6c-0.1,0.2,0,0.3,0.2,0.4l4,1c0.2,0,0.3,0.2,0.2,0.4   l-1.6,3.8c-0.1,0.2,0,0.3,0.2,0.4l4,0.6c0.2,0,0.3,0.2,0.2,0.4l-1.3,3.9c-0.1,0.2,0,0.3,0.2,0.4l4.1,0.3c0.2,0,0.3,0.2,0.3,0.4   l-0.9,4c0,0.2,0.1,0.3,0.3,0.3l4.1-0.1c0.2,0,0.3,0.1,0.3,0.3l-0.6,4c0,0.2,0.1,0.3,0.3,0.3l4.1-0.5c0.2,0,0.3,0.1,0.3,0.3   l-0.2,4.1c0,0.2,0.1,0.3,0.3,0.3l4-0.8c0.2,0,0.3,0.1,0.4,0.3l0.2,4.1c0,0.2,0.2,0.3,0.3,0.2l3.9-1.2c0.2-0.1,0.4,0.1,0.4,0.2   l0.5,4.1c0,0.2,0.2,0.3,0.4,0.2l3.8-1.5c0.2-0.1,0.4,0,0.4,0.2l0.9,4c0,0.2,0.2,0.3,0.4,0.2l3.6-1.9c0.2-0.1,0.4,0,0.4,0.2l1.2,3.9   c0.1,0.2,0.2,0.2,0.4,0.1l3.4-2.2c0.2-0.1,0.4,0,0.4,0.1l1.6,3.8c0.1,0.2,0.3,0.2,0.4,0.1l3.2-2.5c0.2-0.1,0.4-0.1,0.4,0.1l1.9,3.6   c0.1,0.2,0.3,0.2,0.4,0.1l3-2.8c0.1-0.1,0.3-0.1,0.4,0.1l2.2,3.4c0.1,0.2,0.3,0.2,0.4,0l2.7-3c0.1-0.1,0.3-0.1,0.5,0l2.5,3.2   c0.1,0.2,0.3,0.1,0.4,0l2.5-3.3c0.1-0.2,0.3-0.2,0.5,0l2.8,3c0.1,0.1,0.3,0.1,0.4,0l2.2-3.5c0.1-0.2,0.3-0.2,0.4-0.1l3.1,2.7   c0.1,0.1,0.3,0.1,0.4-0.1l1.8-3.7c0.1-0.2,0.3-0.2,0.4-0.1l3.3,2.4c0.2,0.1,0.3,0.1,0.4-0.1l1.5-3.8c0.1-0.2,0.3-0.2,0.4-0.1   l3.5,2.1c0.2,0.1,0.3,0,0.4-0.2l1.1-3.9c0.1-0.2,0.2-0.3,0.4-0.2l3.7,1.8c0.2,0.1,0.3,0,0.4-0.2l0.8-4c0-0.2,0.2-0.3,0.4-0.2   l3.8,1.5c0.2,0.1,0.3,0,0.4-0.2l0.4-4.1c0-0.2,0.2-0.3,0.4-0.3l3.9,1.1c0.2,0.1,0.3-0.1,0.3-0.3l0.1-4.1c0-0.2,0.2-0.3,0.3-0.3   l4,0.8c0.2,0,0.3-0.1,0.3-0.3l-0.3-4.1c0-0.2,0.1-0.3,0.3-0.3l4.1,0.4c0.2,0,0.3-0.1,0.3-0.3l-0.7-4c0-0.2,0.1-0.3,0.3-0.3l4.1,0   c0.2,0,0.3-0.2,0.3-0.3l-1-4c0-0.2,0.1-0.4,0.3-0.4l4.1-0.3c0.2,0,0.3-0.2,0.2-0.4l-1.4-3.8c-0.1-0.2,0-0.4,0.2-0.4l4-0.7   c0.2,0,0.3-0.2,0.2-0.4l-1.7-3.7c-0.1-0.2,0-0.4,0.2-0.4l3.9-1.1c0.2-0.1,0.3-0.2,0.2-0.4l-2-3.5c-0.1-0.2,0-0.4,0.2-0.4l3.8-1.4   c0.2-0.1,0.2-0.2,0.1-0.4l-2.4-3.3c-0.1-0.2-0.1-0.4,0.1-0.4l3.7-1.8c0.2-0.1,0.2-0.3,0.1-0.4l-2.6-3.1c-0.1-0.1-0.1-0.3,0.1-0.4   l3.5-2.1c0.2-0.1,0.2-0.3,0.1-0.4L140,78.6z"
   id="path4" />
	<path
   class="st1"
   d="M74.9,134.4c-33.8,0-61.1-27.4-61.1-61.1c0-33.8,27.4-61.1,61.1-61.1c33.8,0,61.1,27.4,61.1,61.1   C136,107,108.6,134.4,74.9,134.4"
   id="path6" />
	<path
   class="st0"
   d="M25.2,85.8c0.4-0.1,0.7-0.2,1-0.3c0.3-0.1,0.5-0.3,0.7-0.4c0.2-0.2,0.3-0.4,0.3-0.6c0.1-0.2,0-0.5,0-0.8   c-0.2-0.7-0.5-1.1-1-1.3c-0.3-0.1-0.6-0.1-0.9-0.1c-0.3,0-0.7,0.1-1.2,0.2l-1.6,0.4c-0.8,0.2-1.5,0.4-1.9,0.5   c-0.5,0.1-0.8,0.3-0.9,0.4c0,0.1-0.1,0.1-0.1,0.2c0,0.1,0,0.2,0,0.2c0,0.1,0,0.2,0,0.2c0,0.1-0.1,0.1-0.2,0.1   c-0.2,0-0.3-0.1-0.3-0.3c0-0.1,0-0.2-0.1-0.4c0-0.2-0.1-0.3-0.1-0.6c0-0.2-0.1-0.3-0.1-0.5c-0.1-0.1-0.1-0.3-0.1-0.4   c0-0.1,0-0.2,0-0.3c0-0.1,0.1-0.1,0.2-0.1c0.1,0,0.2,0,0.2,0c0,0,0.1,0.1,0.1,0.2c0,0.1,0,0.2,0.1,0.2c0,0.1,0.1,0.1,0.2,0.2   c0.2,0.1,0.5,0.1,1,0c0.5-0.1,1.1-0.2,2-0.4L24,82c0.5-0.1,1-0.2,1.3-0.3c0.4-0.1,0.7,0,1.1,0.1c0.4,0.1,0.7,0.4,0.9,0.7   c0.3,0.3,0.4,0.8,0.6,1.3c0.1,0.6,0.2,1.1,0.1,1.5c-0.1,0.4-0.2,0.8-0.5,1.1c-0.2,0.2-0.5,0.4-0.8,0.5c-0.3,0.1-0.7,0.2-1.1,0.3   l-4.4,1c-0.2,0-0.3,0.1-0.4,0.2c-0.1,0.1-0.1,0.2-0.1,0.3c0,0.2,0,0.3,0,0.3c0,0.1-0.1,0.1-0.2,0.2c-0.2,0-0.3,0-0.3-0.2   c0-0.1,0-0.2-0.1-0.4c0-0.2-0.1-0.6-0.2-1c-0.1-0.4-0.2-0.7-0.3-0.9c-0.1-0.2-0.1-0.4-0.1-0.4c0-0.2,0-0.3,0.2-0.3   c0.1,0,0.2,0,0.2,0c0,0,0.1,0.1,0.1,0.3c0.1,0.2,0.2,0.3,0.3,0.4c0.1,0.1,0.3,0.1,0.5,0L25.2,85.8z"
   id="path8" />
	<path
   class="st0"
   d="M26.1,71.8c0.4,0,0.6,0.1,0.6,0.3c0,0.1,0,0.2-0.1,0.3c-0.1,0.1-0.2,0.2-0.4,0.3l-6.2,4.2   C20.1,76.9,20,77,20,77c0,0,0.1,0,0.2,0l4.4-0.1c0.4,0,0.7,0,0.9-0.1c0.2,0,0.3-0.2,0.4-0.3c0-0.1,0.1-0.2,0.1-0.3   c0-0.1,0-0.2,0-0.2c0-0.1,0-0.1,0-0.2c0,0,0.1-0.1,0.2-0.1c0.2,0,0.3,0.1,0.3,0.3c0,0.1,0,0.2,0,0.4c0,0.2,0,0.4,0,0.6   c0,0.2,0,0.4,0.1,0.6c0,0.1,0,0.3,0,0.3c0,0.2-0.1,0.3-0.3,0.3c-0.1,0-0.1,0-0.2,0c0,0-0.1-0.1-0.1-0.1c0-0.1,0-0.1,0-0.2   c0-0.1,0-0.2-0.1-0.2c-0.1-0.1-0.2-0.2-0.4-0.3c-0.2,0-0.5-0.1-1,0l-4.8,0.1c-0.3,0-0.5,0-0.7,0.1c-0.2,0-0.3,0.1-0.3,0.2   c0,0.1,0,0.1,0,0.2c0,0.1,0,0.1,0,0.2c0,0.1,0,0.1-0.1,0.1c0,0-0.1,0.1-0.2,0.1c-0.2,0-0.3-0.1-0.3-0.2c0,0,0-0.2,0-0.3   c0-0.2,0-0.5,0-0.9c0-0.2,0-0.4,0-0.6c0-0.1,0-0.2,0-0.3c0-0.1,0-0.2,0-0.2c0,0,0.1-0.1,0.2-0.2l4.5-3.1c0.1-0.1,0.1-0.1,0.1-0.1   c0-0.1-0.1-0.1-0.2-0.1L20,72.5c-0.4,0-0.7,0-0.9,0.1c-0.2,0.1-0.3,0.2-0.4,0.3c0,0.1-0.1,0.2-0.1,0.3c0,0.1,0,0.2,0,0.2   c0,0.1,0,0.1-0.1,0.2c0,0-0.1,0.1-0.2,0.1c-0.2,0-0.3-0.1-0.3-0.3c0-0.1,0-0.2,0-0.3c0-0.1,0-0.2,0-0.2c0,0,0-0.1,0-0.1   c0-0.1,0-0.2,0-0.3c0-0.2,0-0.3,0-0.3c0-0.1,0-0.1,0-0.1c0,0,0-0.1,0-0.2c0-0.1,0-0.2,0-0.3c0-0.2,0.1-0.3,0.3-0.3   c0.1,0,0.1,0,0.1,0c0,0,0,0.1,0.1,0.1c0,0,0,0.1,0,0.2c0,0.1,0,0.2,0.1,0.2c0.1,0.1,0.2,0.2,0.4,0.3c0.2,0,0.5,0.1,1,0L26.1,71.8z"
   id="path10" />
	<path
   class="st0"
   d="M25.9,65.9c0.2,0,0.3,0,0.4,0c0.1-0.1,0.2-0.2,0.2-0.3c0-0.1,0.1-0.3,0.1-0.3c0-0.1,0.1-0.1,0.2-0.1   c0.2,0,0.3,0.1,0.3,0.3c0,0.1,0,0.2-0.1,0.4c-0.1,0.2-0.1,0.6-0.2,1c-0.1,0.4-0.1,0.8-0.1,1c0,0.2,0,0.4,0,0.5   c0,0.2-0.1,0.2-0.3,0.2c-0.1,0-0.2-0.1-0.2-0.1c0-0.1,0-0.2,0-0.3c0-0.2-0.1-0.3-0.1-0.4c-0.1-0.1-0.2-0.1-0.4-0.2l-6-0.8   c-0.2,0-0.3,0-0.4,0c-0.1,0-0.2,0.1-0.2,0.3c0,0.1-0.1,0.2-0.1,0.3c0,0.1-0.1,0.1-0.2,0.1c-0.2,0-0.3-0.1-0.2-0.3   c0-0.1,0-0.2,0.1-0.4c0.1-0.2,0.1-0.6,0.2-1c0.1-0.4,0.1-0.8,0.1-1c0-0.2,0-0.4,0-0.4c0-0.2,0.1-0.2,0.3-0.2c0.1,0,0.2,0,0.2,0.1   c0,0.1,0,0.1,0,0.3c0,0.2,0,0.3,0.1,0.4c0.1,0.1,0.2,0.1,0.5,0.2L25.9,65.9z"
   id="path12" />
	<path
   class="st0"
   d="M25.7,58.5c0.1,0,0.1,0,0.1-0.1c0-0.1,0-0.1-0.1-0.1l-3.2-2.2c-0.2-0.1-0.3-0.2-0.4-0.2   c-0.1-0.1-0.2-0.1-0.3-0.1c-0.1,0-0.2,0-0.3,0c-0.1,0.1-0.1,0.1-0.2,0.2c-0.1,0.1-0.1,0.2-0.2,0.2c-0.1,0.1-0.1,0.1-0.3,0.1   c-0.2,0-0.2-0.2-0.2-0.4c0-0.1,0.1-0.2,0.1-0.3c0.1-0.1,0.1-0.3,0.2-0.5c0.1-0.2,0.1-0.3,0.1-0.5c0-0.1,0-0.3,0.1-0.3   c0.1-0.2,0.2-0.3,0.3-0.2c0.1,0,0.1,0.1,0.2,0.1c0,0,0,0.1,0.1,0.2c0,0.1,0,0.1,0,0.2c0,0.1,0,0.1,0.1,0.2c0.1,0.2,0.2,0.3,0.5,0.5   c0.2,0.2,0.6,0.4,1,0.7l3.4,2.4c0.3,0.2,0.6,0.4,0.9,0.6c0.2,0.2,0.4,0.3,0.6,0.4c0.2,0.1,0.3,0.2,0.3,0.3c0.1,0.1,0.1,0.2,0.1,0.3   c0,0.1-0.1,0.2-0.2,0.2c-0.1,0-0.2,0.1-0.4,0.1c-0.2,0-0.4,0-0.6,0c-0.3,0-0.6,0-0.9,0l-5,0.2c-0.3,0-0.6,0-0.9,0   c-0.2,0-0.4,0.1-0.5,0.1c-0.1,0-0.1,0.1-0.2,0.1c0,0.1-0.1,0.1-0.1,0.1c0,0-0.1,0.1-0.1,0.1c0,0-0.1,0-0.2,0   c-0.1,0-0.1-0.1-0.2-0.1c0-0.1,0-0.1,0-0.2c0-0.1,0.1-0.2,0.2-0.4c0.1-0.2,0.2-0.5,0.3-0.9c0.1-0.4,0.2-0.7,0.2-0.9   c0-0.2,0.1-0.4,0.1-0.5c0.1-0.2,0.2-0.2,0.3-0.2c0.1,0,0.2,0.1,0.2,0.2c0,0.1,0,0.2,0,0.3c0,0.1,0,0.2,0,0.3c0,0.1,0.1,0.1,0.1,0.2   c0,0,0.1,0,0.1,0c0,0,0.1,0,0.1,0L25.7,58.5z"
   id="path14" />
	<path
   class="st0"
   d="M26.4,46.8c0.1,0.1,0.2,0.1,0.3,0.2c0.1,0,0.1,0.1,0,0.2c-0.1,0.1-0.2,0.2-0.3,0.2c-0.2,0-0.4,0-0.7,0.1   c-0.4,0.1-0.7,0.3-1,0.8c-0.2,0.3-0.2,0.6-0.2,0.8c0.1,0.2,0.2,0.3,0.4,0.4l1.7,0.8c0.1,0.1,0.2,0.1,0.3,0c0.1-0.1,0.2-0.2,0.3-0.4   c0.1-0.2,0.2-0.4,0.2-0.6c0-0.2,0-0.3-0.1-0.4c-0.1-0.1-0.2-0.2-0.3-0.3c-0.1-0.1-0.2-0.1-0.2-0.2c-0.1-0.1-0.1-0.1-0.1-0.2   c0-0.1,0-0.1,0-0.2c0-0.1,0.1-0.1,0.1-0.1c0.1,0,0.1,0,0.2,0c0,0,0.1,0.1,0.3,0.2c0.1,0.1,0.4,0.2,0.6,0.3c0.3,0.1,0.6,0.3,0.8,0.4   c0.2,0.1,0.4,0.2,0.5,0.2c0.2,0.1,0.2,0.2,0.2,0.3c-0.1,0.1-0.2,0.2-0.3,0.1c-0.1,0-0.3,0-0.5,0c-0.2,0-0.4,0-0.6,0.1   c-0.1,0.1-0.3,0.2-0.4,0.5c0,0,0,0.1-0.1,0.1c0,0,0,0.1-0.1,0.2l0,0.1c0,0.1,0,0.2,0.1,0.2l1.9,0.9c0.2,0.1,0.4,0.2,0.5,0.2   c0.2,0.1,0.3,0.1,0.4,0.1c0.1,0,0.2-0.1,0.4-0.2c0.1-0.1,0.2-0.3,0.3-0.5c0.1-0.2,0.2-0.5,0.2-0.7c0-0.3-0.1-0.5-0.2-0.7   c-0.1-0.2-0.2-0.3-0.3-0.4c-0.1-0.1-0.2-0.2-0.2-0.3c-0.1-0.1-0.1-0.2-0.1-0.2c0-0.1,0-0.1,0-0.2c0.1-0.2,0.2-0.2,0.5,0   c0.1,0.1,0.2,0.1,0.3,0.2l0.9,0.6c0.1,0.1,0.2,0.2,0.2,0.2c0,0.1,0,0.2,0,0.3c0,0.1-0.2,0.4-0.5,0.8c-0.3,0.5-0.6,1.1-1.1,2   c-0.3,0.5-0.4,0.9-0.5,1.3c-0.1,0.3-0.2,0.5-0.2,0.6c-0.1,0.2-0.2,0.2-0.4,0.1c-0.1,0-0.1-0.1-0.1-0.2c0-0.1,0-0.2,0.1-0.3   c0.1-0.2,0.1-0.3,0-0.5c0-0.1-0.2-0.2-0.4-0.3L24,50.9c-0.2-0.1-0.3-0.1-0.4-0.1c-0.1,0-0.2,0.1-0.3,0.2c-0.1,0.1-0.2,0.3-0.2,0.3   c-0.1,0.1-0.1,0.1-0.2,0c-0.2-0.1-0.2-0.2-0.1-0.4c0,0,0.1-0.2,0.3-0.5c0.2-0.3,0.4-0.8,0.7-1.4c0.3-0.7,0.6-1.3,0.8-1.7   c0.2-0.5,0.3-0.8,0.4-0.9c0.1-0.1,0.1-0.2,0.2-0.2c0,0,0.1,0,0.2,0L26.4,46.8z"
   id="path16" />
	<path
   class="st0"
   d="M33.5,41.1c0.2,0,0.5,0,0.7,0l2.5,0.5c0.2,0,0.3,0.1,0.5,0c0.1,0,0.2-0.1,0.3-0.1c0.1,0,0.2-0.1,0.2-0.1   c0.1,0,0.1,0,0.2,0c0.1,0,0.1,0.1,0.1,0.2c0,0.1,0,0.1,0,0.2c0,0.1-0.1,0.1-0.2,0.2c-0.1,0.1-0.2,0.2-0.4,0.4   c-0.1,0.1-0.2,0.3-0.3,0.4c-0.1,0.1-0.2,0.3-0.2,0.4c-0.1,0.1-0.1,0.2-0.2,0.2c-0.1,0-0.2,0-0.4-0.1l-2.9-0.7   c-0.6-0.2-1-0.1-1.1,0.1l-0.1,0.1c-0.1,0.1,0,0.2,0.1,0.2l2.2,1.6c0.2,0.1,0.3,0.2,0.4,0.2c0.1,0,0.2,0,0.3-0.2   c0.1-0.1,0.2-0.2,0.2-0.2c0.1,0,0.1,0,0.2,0c0.2,0.1,0.2,0.2,0.1,0.4c0,0-0.1,0.2-0.3,0.3c-0.2,0.2-0.4,0.4-0.6,0.8   c-0.3,0.4-0.4,0.6-0.6,0.8c-0.1,0.2-0.2,0.3-0.2,0.4c-0.1,0.1-0.2,0.1-0.4,0c-0.1-0.1-0.1-0.1-0.1-0.2c0-0.1,0-0.2,0.1-0.3   c0.1-0.2,0.1-0.3,0.1-0.4c0-0.1-0.1-0.2-0.3-0.3l-4.9-3.5c-0.2-0.1-0.3-0.2-0.4-0.2c-0.1,0-0.2,0-0.3,0.1c-0.1,0.1-0.2,0.2-0.3,0.2   c-0.1,0.1-0.1,0-0.2,0c-0.2-0.1-0.2-0.3,0-0.5c0.1-0.1,0.1-0.2,0.2-0.3c0.1-0.1,0.2-0.2,0.3-0.4c0.3-0.4,0.6-0.8,0.8-1.2   c0.2-0.4,0.4-0.7,0.6-0.9c0.5-0.6,1-1,1.5-1.1c0.5-0.1,1,0,1.6,0.4c0.4,0.3,0.7,0.7,0.8,1.2c0.1,0.5,0,1-0.3,1.6   C33.1,41.2,33.3,41.1,33.5,41.1 M31.2,42.3c0.2,0.1,0.3,0.2,0.4,0.2c0.1,0,0.2,0,0.3-0.2c0.3-0.4,0.4-0.7,0.3-1.1   c-0.1-0.4-0.3-0.7-0.7-1c-0.2-0.1-0.4-0.2-0.6-0.3c-0.2-0.1-0.4-0.1-0.6-0.1c-0.2,0-0.4,0-0.5,0.1c-0.2,0.1-0.3,0.2-0.4,0.3   c-0.2,0.2-0.2,0.4-0.1,0.5c0.1,0.1,0.3,0.3,0.5,0.5L31.2,42.3L31.2,42.3z"
   id="path18" />
	<path
   class="st0"
   d="M38.1,32.5c0.1,0.1,0.1,0.2,0.1,0.3c-0.1,0.1-0.2,0.1-0.3,0c-0.1-0.1-0.3-0.1-0.5-0.2   c-0.3-0.2-0.6-0.3-0.9-0.3c-0.2,0-0.5,0.1-0.7,0.3c-0.2,0.2-0.3,0.5-0.3,0.8c0,0.3,0.1,0.6,0.3,0.8c0.2,0.2,0.3,0.3,0.5,0.3   c0.1,0,0.3,0.1,0.5,0c0.2,0,0.3-0.1,0.5-0.1c0.2-0.1,0.4-0.1,0.6-0.2c0.4-0.1,0.7-0.2,1-0.2c0.3,0,0.6,0,0.9,0   c0.3,0,0.5,0.1,0.8,0.3c0.2,0.1,0.5,0.3,0.7,0.5c0.3,0.3,0.5,0.6,0.7,1c0.1,0.4,0.2,0.7,0.2,1.1c0,0.4-0.1,0.7-0.2,1.1   c-0.1,0.4-0.4,0.7-0.7,1c-0.2,0.1-0.3,0.3-0.5,0.4c-0.2,0.1-0.3,0.2-0.5,0.3c-0.2,0.1-0.3,0.1-0.4,0.2c-0.1,0-0.2,0.1-0.3,0.1   c-0.1,0-0.2,0-0.3-0.1c-0.1-0.1-0.2-0.2-0.4-0.4l-0.8-0.8c-0.1-0.1-0.1-0.3,0-0.4c0.1-0.1,0.2-0.1,0.4,0c0.1,0.1,0.4,0.2,0.6,0.4   c0.8,0.4,1.4,0.4,1.9-0.1c0.3-0.3,0.5-0.6,0.5-1c0-0.4-0.1-0.7-0.4-1c-0.2-0.2-0.3-0.3-0.5-0.3c-0.2-0.1-0.3-0.1-0.5-0.1   c-0.2,0-0.4,0-0.6,0.1c-0.2,0-0.5,0.1-0.8,0.2c-0.3,0.1-0.6,0.2-0.9,0.2c-0.3,0-0.5,0-0.8,0c-0.2,0-0.5-0.1-0.7-0.2   c-0.2-0.1-0.4-0.3-0.7-0.5c-0.3-0.3-0.5-0.6-0.6-0.9c-0.1-0.3-0.2-0.7-0.2-1c0-0.3,0.1-0.7,0.2-1c0.1-0.3,0.3-0.6,0.6-0.8   c0.3-0.3,0.5-0.4,0.8-0.6c0.3-0.1,0.5-0.2,0.6-0.2c0.1,0,0.2,0,0.2,0.1c0.1,0,0.1,0.1,0.2,0.2l0.1,0.1L38.1,32.5z"
   id="path20" />
	<path
   class="st0"
   d="M46.6,32.6c0.1,0.2,0.2,0.3,0.3,0.3c0.1,0,0.2,0,0.4,0c0.1-0.1,0.2-0.1,0.3-0.1c0.1,0,0.1,0,0.2,0.1   c0.1,0.2,0.1,0.3,0,0.4c-0.1,0-0.2,0.1-0.4,0.2c-0.2,0.1-0.5,0.3-0.9,0.6c-0.4,0.3-0.6,0.5-0.8,0.7c-0.2,0.2-0.3,0.3-0.3,0.3   c-0.1,0.1-0.3,0.1-0.4-0.1c-0.1-0.1-0.1-0.1,0-0.2c0-0.1,0.1-0.1,0.2-0.2c0.1-0.1,0.2-0.3,0.2-0.4c0-0.1-0.1-0.2-0.2-0.4l-3.5-4.9   c-0.1-0.2-0.2-0.3-0.3-0.3c-0.1,0-0.2,0-0.4,0c-0.1,0.1-0.2,0.1-0.3,0.1c-0.1,0-0.2,0-0.2-0.1c-0.1-0.2-0.1-0.3,0-0.4   c0,0,0.2-0.1,0.4-0.2c0.2-0.1,0.5-0.3,0.9-0.6c0.4-0.3,0.6-0.5,0.8-0.6c0.2-0.2,0.3-0.3,0.3-0.3c0.1-0.1,0.3-0.1,0.4,0.1   c0.1,0.1,0.1,0.1,0,0.2c0,0.1-0.1,0.1-0.2,0.2c-0.1,0.1-0.2,0.3-0.2,0.4c0,0.1,0,0.3,0.2,0.4L46.6,32.6z"
   id="path22" />
	<path
   class="st0"
   d="M47.5,24.9c-0.1-0.3-0.3-0.4-0.6-0.3c0,0-0.1,0.1-0.2,0.1c-0.1,0-0.1,0.1-0.2,0.1c-0.1,0-0.2,0-0.2-0.1   c0-0.1,0-0.2,0.1-0.4c0.1-0.2,0.3-0.3,0.5-0.5c0.2-0.2,0.5-0.4,0.8-0.6c0.3-0.2,0.7-0.4,1.1-0.6c0.6-0.3,1.2-0.5,1.8-0.6   c0.6-0.1,1.2,0,1.7,0.2c0.5,0.2,1,0.4,1.4,0.8c0.4,0.4,0.8,0.9,1.1,1.5c0.3,0.5,0.4,1.1,0.5,1.6c0.1,0.6,0,1.1-0.2,1.6   c-0.2,0.5-0.4,1-0.8,1.4c-0.4,0.4-0.9,0.8-1.5,1.1c-0.3,0.2-0.7,0.3-0.9,0.4c-0.3,0.1-0.5,0.2-0.7,0.3c-0.3,0.1-0.5,0.3-0.7,0.4   c-0.2,0.1-0.3,0.2-0.4,0.3c-0.2,0.1-0.3,0-0.4-0.1c0-0.1,0-0.2,0-0.2c0,0,0.1-0.1,0.2-0.2c0.1-0.1,0.2-0.2,0.3-0.3   c0-0.1,0-0.3-0.1-0.5L47.5,24.9z M52,29.8c0.2,0.1,0.4,0.1,0.7,0c0.3-0.1,0.5-0.4,0.7-0.6c0.2-0.3,0.3-0.6,0.4-1   c0.1-0.4,0-0.8,0-1.3c-0.1-0.5-0.3-1-0.5-1.5c-0.3-0.5-0.5-1-0.9-1.3c-0.3-0.4-0.6-0.6-1-0.8c-0.3-0.2-0.7-0.3-1-0.3   c-0.3,0-0.7,0-1,0.2c-0.2,0.1-0.3,0.2-0.4,0.3c-0.1,0.1-0.1,0.2-0.2,0.2c0,0.1,0,0.2,0,0.3c0,0.1,0.1,0.2,0.1,0.3l2.5,5   C51.6,29.4,51.8,29.7,52,29.8"
   id="path24" />
	<path
   class="st0"
   d="M63.6,24.5c0.3,0.5,0.6,0.8,0.9,0.9c0.1,0,0.1,0,0.2,0s0.1,0,0.2,0c0.1,0,0.1,0,0.2,0c0,0,0.1,0.1,0.1,0.2   c0,0.1,0,0.2,0,0.2c0,0-0.1,0.1-0.2,0.1c-0.1,0-0.3,0.1-0.5,0.1c-0.2,0-0.5,0.1-0.9,0.2c-0.3,0.1-0.6,0.2-0.8,0.3   c-0.2,0.1-0.4,0.2-0.6,0.2c-0.2,0.1-0.3,0-0.4-0.2c0-0.1,0-0.2,0-0.3c0.1-0.1,0.1-0.1,0.2-0.1c0.1,0,0.1-0.1,0.2-0.1   c0.1-0.1,0.1-0.1,0-0.3c0-0.1-0.1-0.1-0.1-0.2l-0.8-1.3C61.1,24.1,61,24,60.9,24c-0.2,0-0.4,0.1-0.9,0.2c-0.2,0.1-0.4,0.1-0.5,0.2   c-0.1,0-0.2,0.1-0.3,0.1c-0.1,0-0.1,0.1-0.1,0.2c0,0.1,0,0.1,0,0.2c0,0.6,0,1,0.1,1.2c0,0.2,0.1,0.3,0.2,0.4   c0.1,0.1,0.2,0.1,0.4,0.1c0.2,0,0.3,0,0.5,0c0.1,0,0.2,0.1,0.2,0.2c0,0.2,0,0.3-0.2,0.3c0,0-0.1,0-0.3,0.1c-0.2,0-0.5,0.1-0.8,0.2   c-0.3,0.1-0.5,0.2-0.6,0.2c-0.1,0.1-0.2,0.1-0.2,0.1c-0.2,0-0.3,0-0.3-0.2c0-0.1,0-0.2,0.1-0.3c0.1-0.1,0.2-0.1,0.3-0.2   c0.1-0.1,0.1-0.2,0.2-0.3c0-0.1,0.1-0.3,0.1-0.5l0.3-7.1c0-0.2,0-0.4,0.1-0.5c0.1-0.1,0.1-0.1,0.3-0.2c0.2,0,0.3,0,0.3,0   c0.1,0,0.2,0.2,0.3,0.4L63.6,24.5z M59.2,21.2c0,0,0,0.1,0,0.2l0,2.3c0,0.1,0,0.1,0,0.1c0,0,0.1,0.1,0.1,0l1.3-0.4   c0.1,0,0.1-0.1,0.1-0.1c0-0.1,0-0.1-0.1-0.1l-1.3-1.8C59.2,21.3,59.2,21.2,59.2,21.2"
   id="path26" />
	<path
   class="st0"
   d="M67,18.3c0-0.3-0.2-0.5-0.4-0.4c-0.1,0-0.1,0-0.2,0c-0.1,0-0.1,0-0.2,0c-0.1,0-0.1-0.1-0.2-0.2   c0-0.1,0.1-0.2,0.2-0.3c0.2-0.1,0.4-0.2,0.7-0.3c0.3-0.1,0.6-0.2,1-0.3c0.4-0.1,0.8-0.1,1.3-0.2c0.7-0.1,1.3,0,1.9,0.1   c0.6,0.2,1.1,0.4,1.5,0.8c0.4,0.3,0.8,0.8,1,1.3c0.3,0.5,0.4,1.1,0.5,1.7c0.1,0.6,0,1.2-0.2,1.7c-0.2,0.5-0.4,1-0.7,1.4   c-0.3,0.4-0.8,0.8-1.3,1c-0.5,0.3-1.1,0.4-1.8,0.5c-0.4,0-0.7,0-1,0c-0.3,0-0.5,0-0.8,0c-0.3,0-0.6,0.1-0.8,0.1   c-0.2,0.1-0.4,0.1-0.5,0.1c-0.2,0-0.3-0.1-0.3-0.3c0-0.1,0-0.2,0.1-0.2c0.1,0,0.2-0.1,0.3-0.1c0.2-0.1,0.3-0.1,0.3-0.2   c0.1-0.1,0.1-0.2,0.1-0.5L67,18.3z M69.4,24.4c0.1,0.2,0.3,0.2,0.7,0.2c0.3,0,0.6-0.1,0.9-0.3c0.3-0.2,0.5-0.5,0.7-0.8   c0.2-0.3,0.3-0.7,0.4-1.2c0.1-0.5,0.1-1,0.1-1.6c-0.1-0.6-0.2-1.1-0.3-1.6c-0.2-0.5-0.4-0.8-0.6-1.1c-0.2-0.3-0.5-0.5-0.8-0.7   c-0.3-0.1-0.6-0.2-1-0.2c-0.2,0-0.4,0-0.5,0.1c-0.1,0-0.2,0.1-0.2,0.2c-0.1,0.1-0.1,0.2-0.1,0.2c0,0.1,0,0.2,0,0.3l0.5,5.5   C69.2,23.9,69.3,24.3,69.4,24.4"
   id="path28" />
	<path
   class="st0"
   d="M83,18.7c0,0.1,0,0.2-0.1,0.3c0,0.1-0.1,0.1-0.2,0.1c-0.1,0-0.2-0.1-0.3-0.3c-0.1-0.2-0.2-0.4-0.3-0.6   c-0.2-0.4-0.6-0.6-1.1-0.6c-0.4,0-0.6,0-0.8,0.1c-0.1,0.1-0.2,0.3-0.2,0.5l-0.2,1.9c0,0.1,0,0.2,0.1,0.3c0.1,0.1,0.2,0.1,0.4,0.1   c0.3,0,0.5,0,0.6,0c0.2,0,0.3-0.1,0.4-0.2c0.1-0.1,0.2-0.2,0.2-0.3c0-0.1,0.1-0.2,0.1-0.3c0-0.1,0.1-0.1,0.1-0.2   c0,0,0.1-0.1,0.2-0.1c0.1,0,0.1,0,0.2,0.1c0,0.1,0.1,0.1,0,0.2c0,0.1,0,0.2-0.1,0.3c0,0.2-0.1,0.4-0.1,0.7c0,0.3-0.1,0.6-0.1,0.8   c0,0.2,0,0.4,0,0.6c0,0.2-0.1,0.3-0.3,0.3c-0.1,0-0.2-0.1-0.2-0.2c0-0.1-0.1-0.3-0.1-0.5c-0.1-0.2-0.2-0.4-0.3-0.5   c-0.1-0.1-0.3-0.2-0.6-0.2c-0.1,0-0.1,0-0.2,0c-0.1,0-0.1,0-0.2,0L80,21c-0.1,0-0.2,0.1-0.2,0.2l-0.2,2.1c0,0.2,0,0.4,0,0.6   c0,0.2,0,0.3,0.1,0.4c0.1,0.1,0.1,0.2,0.3,0.3c0.1,0.1,0.3,0.1,0.5,0.1c0.3,0,0.5,0,0.8-0.1c0.2-0.1,0.4-0.2,0.6-0.4   c0.1-0.1,0.2-0.3,0.3-0.4c0.1-0.1,0.1-0.2,0.2-0.3c0.1-0.1,0.1-0.2,0.2-0.2c0.1-0.1,0.1-0.1,0.2-0.1c0.2,0,0.2,0.2,0.2,0.4   c0,0.1-0.1,0.2-0.1,0.3l-0.3,1.1c0,0.1-0.1,0.2-0.1,0.3c-0.1,0.1-0.2,0.1-0.3,0.1c-0.1,0-0.4-0.1-1-0.2c-0.5-0.1-1.3-0.2-2.2-0.3   c-0.6-0.1-1-0.1-1.4-0.1c-0.3,0-0.5,0-0.6,0c-0.2,0-0.3-0.1-0.2-0.3c0-0.1,0-0.2,0.1-0.2c0.1,0,0.2,0,0.3,0c0.2,0,0.3-0.1,0.4-0.1   c0.1-0.1,0.1-0.2,0.2-0.4l0.6-6c0-0.2,0-0.3,0-0.4c-0.1-0.1-0.2-0.2-0.3-0.2c-0.2-0.1-0.3-0.1-0.4-0.1c-0.1,0-0.1-0.1-0.1-0.2   c0-0.2,0.1-0.3,0.3-0.2c0,0,0.2,0,0.6,0.1c0.3,0.1,0.9,0.1,1.6,0.2c0.8,0.1,1.4,0.1,1.9,0.1c0.5,0,0.8,0,1,0c0.1,0,0.2,0,0.3,0.1   c0,0,0.1,0.1,0,0.2L83,18.7z"
   id="path30" />
	<path
   class="st0"
   d="M94.3,25.8c0,0.1,0,0.1,0.1,0.1c0.1,0,0.1,0,0.1,0l2.5-3c0.1-0.1,0.2-0.3,0.3-0.4c0.1-0.1,0.1-0.2,0.1-0.3   c0-0.1,0-0.2,0-0.3c-0.1-0.1-0.1-0.2-0.2-0.2c-0.1-0.1-0.1-0.1-0.2-0.2c-0.1-0.1-0.1-0.2,0-0.3c0.1-0.2,0.2-0.2,0.4-0.1   c0.1,0,0.2,0.1,0.3,0.2c0.1,0.1,0.3,0.1,0.5,0.2c0.2,0.1,0.3,0.1,0.4,0.1c0.1,0,0.2,0.1,0.3,0.1c0.2,0.1,0.3,0.2,0.2,0.4   c0,0.1-0.1,0.1-0.1,0.2c0,0-0.1,0-0.2,0c-0.1,0-0.1,0-0.2,0c-0.1,0-0.2,0-0.2,0c-0.2,0-0.3,0.2-0.6,0.4c-0.2,0.2-0.5,0.5-0.8,0.9   l-2.7,3.1c-0.3,0.3-0.5,0.6-0.7,0.8c-0.2,0.2-0.3,0.4-0.5,0.6c-0.1,0.1-0.2,0.2-0.3,0.3c-0.1,0.1-0.2,0.1-0.3,0   c-0.1,0-0.2-0.1-0.2-0.2c0-0.1,0-0.2,0-0.4c0-0.2,0-0.4,0-0.6c0-0.3,0-0.6,0.1-0.9l0.2-5c0-0.3,0-0.6,0-0.9c0-0.2,0-0.4-0.1-0.5   c0-0.1-0.1-0.1-0.1-0.2c0,0-0.1-0.1-0.1-0.1c0,0-0.1-0.1-0.1-0.1c0,0,0-0.1,0-0.2c0-0.1,0.1-0.1,0.1-0.1c0.1,0,0.1,0,0.2,0   c0,0,0.2,0.1,0.4,0.2c0.2,0.1,0.5,0.2,0.9,0.4c0.4,0.1,0.7,0.3,0.9,0.3c0.2,0.1,0.4,0.1,0.5,0.1c0.2,0.1,0.2,0.2,0.2,0.3   c0,0.1-0.1,0.2-0.2,0.2c-0.1,0-0.2,0-0.3,0c-0.1,0-0.2,0-0.3,0c-0.1,0-0.1,0-0.2,0.1c0,0,0,0.1,0,0.1c0,0,0,0.1,0,0.1L94.3,25.8z"
   id="path32" />
	<path
   class="st0"
   d="M100.4,30.9c-0.1,0.2-0.1,0.3-0.1,0.4c0,0.1,0.1,0.2,0.2,0.3c0.1,0.1,0.2,0.2,0.2,0.2c0,0,0,0.1,0,0.2   c-0.1,0.2-0.2,0.2-0.4,0.1c-0.1,0-0.2-0.1-0.4-0.3c-0.2-0.2-0.5-0.3-0.9-0.6c-0.4-0.2-0.7-0.4-0.9-0.5c-0.2-0.1-0.4-0.1-0.4-0.2   c-0.1-0.1-0.2-0.2-0.1-0.4c0-0.1,0.1-0.1,0.2-0.1c0.1,0,0.2,0,0.3,0.1c0.2,0.1,0.3,0.1,0.4,0c0.1,0,0.2-0.2,0.3-0.4l3-5.2   c0.1-0.2,0.1-0.3,0.1-0.4c0-0.1-0.1-0.2-0.2-0.3c-0.1-0.1-0.2-0.2-0.3-0.2c-0.1-0.1-0.1-0.1,0-0.2c0.1-0.2,0.2-0.2,0.4-0.1   c0,0,0.2,0.1,0.4,0.3c0.2,0.1,0.5,0.3,0.9,0.6c0.4,0.2,0.7,0.4,0.9,0.5c0.2,0.1,0.4,0.2,0.4,0.2c0.1,0.1,0.2,0.2,0.1,0.4   c0,0.1-0.1,0.1-0.2,0.1c-0.1,0-0.1,0-0.3-0.1c-0.2-0.1-0.3-0.1-0.4-0.1c-0.1,0-0.2,0.2-0.3,0.4L100.4,30.9z"
   id="path34" />
	<path
   class="st0"
   d="M105.7,34c-0.3,0.3-0.4,0.6-0.4,0.8c0,0.2,0.1,0.4,0.3,0.6c0.2,0.1,0.4,0.2,0.6,0.3c0.2,0.1,0.5,0.1,0.7,0   c0.2,0,0.3-0.1,0.4-0.1c0.1-0.1,0.3-0.1,0.4-0.2c0.1,0,0.2-0.1,0.3-0.1c0.1,0,0.2,0,0.2,0c0,0,0.1,0.1,0.1,0.1c0,0.1,0,0.1-0.1,0.2   c0,0-0.1,0.1-0.3,0.3l-0.8,0.8c-0.1,0.1-0.2,0.2-0.3,0.2c-0.1,0-0.2,0-0.3-0.1c-0.2-0.1-0.4-0.4-0.8-0.7c-0.4-0.4-0.9-0.8-1.6-1.3   c-0.4-0.3-0.6-0.5-0.8-0.6c-0.2-0.1-0.3-0.2-0.4-0.2c-0.1-0.1-0.1-0.2,0-0.4c0.1-0.1,0.1-0.1,0.2-0.1c0.1,0,0.2,0.1,0.3,0.1   c0.2,0.1,0.3,0.1,0.4,0.1c0.1,0,0.2-0.1,0.4-0.3l3.7-4.7c0.1-0.2,0.2-0.3,0.2-0.4c0-0.1,0-0.2-0.1-0.3c-0.1-0.1-0.2-0.2-0.2-0.3   c0-0.1,0-0.1,0-0.2c0.1-0.1,0.2-0.2,0.4-0.1c0,0,0.1,0.1,0.3,0.3c0.2,0.2,0.4,0.4,0.8,0.7c0.4,0.3,0.6,0.5,0.9,0.6   c0.2,0.1,0.4,0.2,0.4,0.3c0.1,0.1,0.2,0.2,0,0.4c-0.1,0.1-0.1,0.1-0.2,0.1c-0.1,0-0.2-0.1-0.3-0.1c-0.2-0.1-0.3-0.2-0.5-0.1   c-0.1,0-0.3,0.1-0.4,0.3L105.7,34z"
   id="path36" />
	<path
   class="st0"
   d="M113.7,41.7c-0.3,0.5-0.4,0.9-0.4,1.2c0,0.1,0,0.1,0.1,0.2c0,0.1,0.1,0.1,0.1,0.2c0,0.1,0,0.1,0,0.2   c0,0.1,0,0.1-0.1,0.2c-0.1,0.1-0.1,0.1-0.2,0.1c-0.1,0-0.1-0.1-0.2-0.2c-0.1-0.1-0.2-0.2-0.3-0.4c-0.1-0.2-0.3-0.4-0.6-0.7   c-0.2-0.3-0.4-0.5-0.6-0.6c-0.2-0.2-0.4-0.3-0.5-0.4c-0.1-0.2-0.1-0.3,0-0.4c0.1-0.1,0.2-0.1,0.3-0.1c0.1,0,0.1,0.1,0.2,0.1   c0.1,0.1,0.1,0.1,0.2,0.1c0.1,0,0.2,0,0.3-0.1c0,0,0.1-0.1,0.2-0.2l0.8-1.3c0.1-0.1,0.1-0.3,0-0.4c-0.1-0.1-0.3-0.4-0.6-0.7   c-0.2-0.2-0.3-0.3-0.4-0.4c-0.1-0.1-0.2-0.2-0.2-0.2c-0.1,0-0.1,0-0.2,0c-0.1,0-0.1,0-0.2,0.1c-0.6,0.3-0.9,0.5-1.1,0.6   c-0.1,0.1-0.2,0.2-0.2,0.3c0,0.1,0,0.3,0.1,0.5c0.1,0.2,0.1,0.3,0.2,0.4c0.1,0.1,0,0.2-0.1,0.3c-0.1,0.1-0.3,0.1-0.4,0   c0,0-0.1-0.1-0.2-0.3c-0.1-0.2-0.3-0.4-0.5-0.7c-0.2-0.2-0.3-0.4-0.5-0.4c-0.1-0.1-0.2-0.1-0.2-0.2c-0.1-0.1-0.1-0.3,0-0.4   c0.1-0.1,0.2-0.1,0.3-0.1c0.1,0,0.2,0.1,0.3,0.1c0.1,0,0.2,0.1,0.4,0c0.1,0,0.3-0.1,0.5-0.2l6.5-2.9c0.2-0.1,0.4-0.1,0.5-0.1   c0.1,0,0.2,0.1,0.3,0.2c0.1,0.1,0.2,0.2,0.1,0.3c0,0.1-0.1,0.2-0.2,0.4L113.7,41.7z M114.7,36.3c0,0-0.1,0-0.2,0l-2,1   c-0.1,0-0.1,0-0.1,0c0,0,0,0.1,0,0.1l0.9,1c0.1,0.1,0.1,0.1,0.1,0c0,0,0.1-0.1,0.1-0.1l1.1-1.9C114.7,36.4,114.7,36.4,114.7,36.3"
   id="path38" />
	<path
   class="st0"
   d="M121.2,51.2c0,0-0.1,0.1,0,0.1c0,0.1,0.1,0.1,0.1,0.1l3.8-0.5c0.2,0,0.3-0.1,0.5-0.1c0.1,0,0.2-0.1,0.3-0.1   c0.1-0.1,0.2-0.1,0.2-0.2c0-0.1,0-0.2,0-0.3c0-0.1,0-0.2,0-0.3c0-0.1,0.1-0.2,0.2-0.2c0.2-0.1,0.3,0,0.4,0.2c0,0.1,0.1,0.2,0.1,0.3   c0,0.1,0.1,0.3,0.2,0.5c0.1,0.2,0.2,0.3,0.2,0.4c0.1,0.1,0.1,0.2,0.2,0.3c0.1,0.2,0.1,0.3-0.1,0.4c-0.1,0-0.1,0.1-0.2,0   c-0.1,0-0.1,0-0.1-0.1c0,0-0.1-0.1-0.1-0.1c-0.1-0.1-0.1-0.1-0.2-0.1c-0.1-0.1-0.4-0.1-0.7-0.1c-0.3,0-0.7,0.1-1.2,0.1l-4.1,0.5   c-0.4,0-0.7,0.1-1,0.1c-0.3,0-0.5,0.1-0.7,0.1c-0.2,0-0.3,0-0.4,0c-0.1,0-0.2-0.1-0.2-0.2c0-0.1,0-0.2,0-0.3c0-0.1,0.1-0.2,0.2-0.3   c0.1-0.1,0.3-0.3,0.4-0.4c0.2-0.2,0.4-0.4,0.7-0.6l3.5-3.5c0.2-0.2,0.4-0.5,0.6-0.6c0.2-0.2,0.2-0.3,0.3-0.4c0-0.1,0-0.2,0-0.2   c0-0.1,0-0.1,0-0.2c0-0.1,0-0.1,0-0.2c0,0,0.1-0.1,0.1-0.1c0.1,0,0.1,0,0.2,0c0.1,0,0.1,0.1,0.1,0.1c0,0,0.1,0.2,0.1,0.4   c0.1,0.2,0.2,0.5,0.4,0.9c0.2,0.4,0.3,0.6,0.5,0.8c0.1,0.2,0.2,0.3,0.3,0.4c0.1,0.2,0,0.3-0.1,0.4c-0.1,0.1-0.2,0.1-0.3,0   c-0.1-0.1-0.2-0.1-0.2-0.2c-0.1-0.1-0.1-0.1-0.2-0.2c-0.1-0.1-0.1-0.1-0.2,0c0,0-0.1,0-0.1,0.1c0,0-0.1,0.1-0.1,0.1L121.2,51.2z"
   id="path40" />
	<path
   class="st0"
   d="M128.5,60.4c-0.1,0-0.2,0.1-0.3,0.1c-0.1,0-0.1,0-0.2-0.1c0-0.1,0-0.2,0.1-0.3c0.1-0.1,0.3-0.3,0.5-0.5   c0.3-0.3,0.3-0.7,0.2-1.3c-0.1-0.4-0.2-0.6-0.4-0.7c-0.2-0.1-0.3-0.1-0.6,0l-1.8,0.5c-0.1,0-0.2,0.1-0.2,0.2c0,0.1,0,0.2,0.1,0.4   c0.1,0.3,0.2,0.5,0.2,0.6c0.1,0.1,0.2,0.2,0.3,0.3c0.2,0,0.3,0.1,0.4,0.1c0.1,0,0.2,0,0.3,0c0.1,0,0.1,0,0.2,0   c0.1,0,0.1,0.1,0.1,0.1c0,0.1,0,0.1,0,0.2c0,0.1-0.1,0.1-0.2,0.1c-0.1,0-0.2,0-0.3,0.1c-0.2,0-0.4,0.1-0.7,0.2   c-0.3,0.1-0.6,0.2-0.8,0.3c-0.2,0.1-0.4,0.1-0.6,0.2c-0.2,0.1-0.3,0-0.3-0.1c0-0.1,0-0.2,0.1-0.3c0.1-0.1,0.3-0.2,0.4-0.3   c0.2-0.2,0.3-0.3,0.4-0.5c0.1-0.2,0-0.4,0-0.6c0-0.1,0-0.1,0-0.2c0-0.1,0-0.1-0.1-0.2l-0.1-0.1c0-0.1-0.1-0.1-0.2-0.1l-2,0.6   c-0.2,0.1-0.4,0.1-0.6,0.2c-0.2,0.1-0.3,0.1-0.4,0.2c-0.1,0.1-0.1,0.2-0.2,0.4c0,0.1,0,0.3,0.1,0.6c0.1,0.3,0.2,0.5,0.4,0.7   c0.2,0.2,0.4,0.3,0.6,0.4c0.2,0.1,0.3,0.1,0.5,0.1c0.1,0,0.3,0,0.4,0.1c0.1,0,0.2,0,0.3,0.1c0.1,0,0.1,0.1,0.1,0.1   c0,0.2-0.1,0.3-0.3,0.4c-0.1,0-0.2,0-0.3,0l-1.1,0.2c-0.1,0-0.3,0-0.3,0c-0.1,0-0.1-0.1-0.2-0.2c0-0.1-0.1-0.4-0.2-0.9   c-0.1-0.5-0.3-1.3-0.6-2.2c-0.2-0.6-0.3-1-0.4-1.3c-0.1-0.3-0.2-0.5-0.2-0.6c-0.1-0.2,0-0.3,0.2-0.4c0.1,0,0.2,0,0.2,0   c0,0.1,0.1,0.2,0.2,0.3c0.1,0.2,0.2,0.3,0.3,0.3c0.1,0,0.3,0,0.5,0l5.8-1.7c0.2-0.1,0.3-0.1,0.4-0.2c0.1-0.1,0.1-0.2,0.1-0.4   c0-0.2,0-0.3,0-0.4c0-0.1,0-0.2,0.2-0.2c0.2-0.1,0.3,0,0.3,0.2c0,0,0.1,0.2,0.1,0.6c0.1,0.3,0.2,0.8,0.4,1.5   c0.2,0.7,0.4,1.4,0.6,1.8c0.2,0.5,0.3,0.8,0.3,1c0,0.1,0,0.2,0,0.3c0,0.1-0.1,0.1-0.2,0.1L128.5,60.4z"
   id="path42" />
	<path
   class="st0"
   d="M124.5,67.3c-0.4,0.1-0.7,0.1-0.8,0.2c-0.1,0.1-0.2,0.3-0.2,0.6c0,0.2,0.1,0.4,0.2,0.6   c0.1,0.2,0.3,0.4,0.5,0.5c0.1,0.1,0.3,0.2,0.4,0.2c0.1,0.1,0.3,0.1,0.4,0.1c0.1,0,0.2,0.1,0.3,0.1c0.1,0,0.1,0.1,0.1,0.2   c0,0.1,0,0.1,0,0.1c0,0-0.1,0.1-0.2,0.1c-0.1,0-0.2,0-0.4,0l-1.1,0c-0.2,0-0.3,0-0.3-0.1c-0.1,0-0.1-0.1-0.1-0.3   c0-0.2,0-0.6-0.1-1.1c0-0.5-0.1-1.2-0.2-2.1c-0.1-0.4-0.1-0.8-0.2-1c-0.1-0.2-0.1-0.4-0.1-0.4c0-0.2,0.1-0.3,0.3-0.3   c0.1,0,0.2,0,0.2,0.1c0,0.1,0.1,0.1,0.1,0.3c0.1,0.2,0.1,0.3,0.2,0.3c0.1,0.1,0.2,0.1,0.5,0l6-0.7c0.2,0,0.3-0.1,0.4-0.1   c0.1-0.1,0.1-0.2,0.2-0.3c0-0.2,0-0.3,0-0.4c0-0.1,0.1-0.1,0.2-0.1c0.2,0,0.3,0,0.3,0.2c0,0.1,0,0.2,0,0.4c0,0.2,0,0.6,0.1,1   c0.1,0.4,0.1,0.8,0.2,1.1c0.1,0.3,0.1,0.4,0.1,0.5c0,0.2-0.1,0.3-0.3,0.3c-0.1,0-0.2,0-0.2-0.1c0-0.1-0.1-0.1-0.1-0.3   c-0.1-0.2-0.1-0.4-0.2-0.4c-0.1-0.1-0.3-0.1-0.5-0.1L124.5,67.3z"
   id="path44" />
	<path
   class="st0"
   d="M128.2,75.4c-0.1,0-0.2,0-0.2,0.1l-0.1,2.2c0,0.1,0.1,0.2,0.2,0.2l2.2,0.1c0.2,0,0.3,0,0.4-0.1   c0.1-0.1,0.2-0.2,0.2-0.3c0-0.1,0.1-0.3,0.1-0.3c0-0.1,0.1-0.1,0.2-0.1c0.2,0,0.3,0.1,0.3,0.3c0,0.1,0,0.2-0.1,0.4   c0,0.2-0.1,0.6-0.1,1c0,0.5,0,0.8,0,1c0,0.2,0,0.4,0,0.4c0,0.2-0.1,0.2-0.3,0.2c-0.1,0-0.2,0-0.2-0.1c0-0.1,0-0.2-0.1-0.3   c0-0.2-0.1-0.3-0.1-0.4c-0.1-0.1-0.2-0.1-0.5-0.1l-6-0.4c-0.2,0-0.3,0-0.4,0.1c-0.1,0-0.2,0.1-0.2,0.3c0,0.2-0.1,0.3-0.1,0.3   c0,0.1-0.1,0.1-0.2,0.1c-0.2,0-0.3-0.1-0.3-0.3c0-0.1,0-0.2,0.1-0.4c0.1-0.2,0.1-0.6,0.1-1c0-0.5,0-0.8,0-1c0-0.2,0-0.4,0-0.5   c0-0.2,0.1-0.2,0.3-0.2c0.1,0,0.2,0,0.2,0.1c0,0,0,0.1,0,0.3c0,0.2,0.1,0.3,0.1,0.4c0.1,0.1,0.2,0.1,0.5,0.1l2.9,0.2   c0.1,0,0.2,0,0.2-0.1l0.1-2.2c0-0.1-0.1-0.2-0.2-0.2l-2.9-0.2c-0.2,0-0.3,0-0.4,0.1c-0.1,0.1-0.2,0.2-0.2,0.3   c0,0.1-0.1,0.3-0.1,0.3c0,0.1-0.1,0.1-0.2,0.1c-0.2,0-0.3-0.1-0.3-0.3c0-0.1,0-0.2,0.1-0.4c0.1-0.2,0.1-0.6,0.1-1c0-0.5,0-0.8,0-1   c0-0.2,0-0.4,0-0.5c0-0.2,0.1-0.2,0.3-0.2c0.1,0,0.2,0,0.2,0.1c0,0.1,0,0.2,0.1,0.3c0,0.2,0.1,0.3,0.1,0.4c0.1,0.1,0.2,0.1,0.5,0.1   l6,0.4c0.2,0,0.3,0,0.4-0.1c0.1,0,0.2-0.1,0.2-0.3c0-0.1,0.1-0.3,0.1-0.3c0-0.1,0.1-0.1,0.2-0.1c0.2,0,0.3,0.1,0.3,0.3   c0,0.1,0,0.2-0.1,0.4c0,0.2-0.1,0.6-0.1,1c0,0.5,0,0.8,0,1c0,0.2,0,0.4,0,0.4c0,0.2-0.1,0.2-0.3,0.2c-0.1,0-0.2,0-0.2-0.1   c0-0.1,0-0.1,0-0.3c0-0.2-0.1-0.3-0.2-0.4c-0.1-0.1-0.2-0.1-0.5-0.1L128.2,75.4z"
   id="path46" />
	<path
   class="st0"
   d="M122.6,88.4c-0.6,0-1,0.1-1.2,0.3c0,0-0.1,0.1-0.1,0.2c0,0.1-0.1,0.1-0.1,0.2c0,0.1-0.1,0.1-0.1,0.1   c0,0-0.1,0-0.2,0c-0.1,0-0.1-0.1-0.2-0.1c0-0.1,0-0.2,0-0.3c0-0.1,0.1-0.2,0.2-0.5c0.1-0.2,0.2-0.5,0.3-0.9   c0.1-0.3,0.1-0.6,0.2-0.9c0-0.3,0.1-0.5,0.1-0.6c0.1-0.2,0.2-0.3,0.3-0.2c0.1,0,0.2,0.1,0.2,0.2c0,0.1,0,0.2,0,0.3   c0,0.1,0,0.2,0,0.3c0,0.1,0.1,0.1,0.2,0.2c0.1,0,0.1,0,0.2,0l1.5-0.1c0.2,0,0.3-0.1,0.3-0.2c0.1-0.1,0.1-0.4,0.3-0.8   c0.1-0.2,0.1-0.4,0.1-0.5c0-0.1,0-0.2,0-0.3c0-0.1,0-0.1-0.1-0.2c0,0-0.1-0.1-0.2-0.1c-0.5-0.3-0.9-0.5-1.1-0.6c-0.2,0-0.3,0-0.4,0   c-0.1,0-0.2,0.1-0.3,0.3c-0.1,0.2-0.2,0.3-0.3,0.4c-0.1,0.1-0.2,0.1-0.3,0.1c-0.2,0-0.2-0.2-0.2-0.3c0,0,0.1-0.1,0.1-0.3   c0.1-0.2,0.2-0.5,0.3-0.8c0.1-0.3,0.1-0.5,0.1-0.6c0-0.1,0-0.2,0-0.3c0-0.2,0.1-0.2,0.3-0.2c0.1,0,0.2,0.1,0.2,0.2   c0,0.1,0,0.2,0.1,0.4c0,0.1,0.1,0.2,0.2,0.3c0.1,0.1,0.2,0.2,0.4,0.3l5.9,3.8c0.2,0.1,0.3,0.2,0.4,0.3c0,0.1,0,0.2,0,0.3   c0,0.2-0.1,0.2-0.2,0.3c-0.1,0-0.2,0.1-0.5,0.1L122.6,88.4z M127.6,86.3c0,0,0-0.1-0.1-0.1l-1.9-1.2c0,0-0.1,0-0.1,0   c0,0-0.1,0-0.1,0.1l-0.3,1.3c0,0.1,0,0.1,0,0.1c0.1,0,0.1,0,0.1,0l2.2-0.1C127.6,86.3,127.6,86.3,127.6,86.3"
   id="path48" />
	<polygon
   class="st0"
   points="30.3,97.6 30.9,99.7 33.1,99.7 31.4,100.9 32,103 30.3,101.7 28.5,103 29.2,100.9 27.5,99.7    29.6,99.7  "
   id="polygon50" />
	<polygon
   class="st0"
   points="120.1,97.6 120.8,99.7 122.9,99.7 121.2,100.9 121.9,103 120.1,101.7 118.4,103 119,100.9 117.3,99.7    119.5,99.7  "
   id="polygon52" />
	<path
   class="st0"
   d="M78.3,124.4h-2.8c0,0-0.8-2.4-0.9-2.7c0-0.1-0.2-0.2-0.3-0.2c-0.1,0-0.2,0-0.3,0.2c-0.1,0.3-0.9,2.7-0.9,2.7   h-2.8c-0.3,0-0.4,0.4-0.2,0.5c0.2,0.1,2.3,1.7,2.3,1.7s-0.8,2.4-0.9,2.7c-0.1,0.3,0.2,0.5,0.4,0.3c0.2-0.2,2.3-1.7,2.3-1.7   s2.1,1.5,2.3,1.7c0.2,0.1,0.5,0,0.4-0.3c-0.1-0.3-0.9-2.7-0.9-2.7s2.1-1.5,2.3-1.7C78.7,124.8,78.6,124.4,78.3,124.4"
   id="path54" />
	<path
   class="st0"
   d="M57.6,123.3c3.4,1.1,7,1.9,10.7,2.4c0.5,0.1,0.4-0.2,0.2-0.4c-0.2-0.1-0.5-0.4-0.7-0.5   c-0.1-0.1-0.3-0.1-0.4-0.2c-3.2-0.4-5.9-1.1-8.9-2.1c-0.3-0.1-0.4,0-0.5,0.1c-0.1,0.1-0.2,0.2-0.3,0.2   C57.4,123,57.4,123.1,57.6,123.3"
   id="path56" />
	<path
   class="st0"
   d="M95.5,120.5c-4.5,2-9.1,3.3-14.1,4c-0.1,0-0.4,0.1-0.6,0.2c-0.2,0.1-0.4,0.3-0.6,0.5c-0.4,0.3-0.1,0.4,0.2,0.4   c5.5-0.6,10.7-2.1,15.6-4.3c0.3-0.2,0.1-0.5,0.1-0.5l-0.2-0.3C95.9,120.6,95.7,120.4,95.5,120.5"
   id="path58" />
	<path
   class="st0"
   d="M36.4,111.7c-0.3,0.3-0.5,0.6-0.7,0.8c-0.2,0.3-0.3,0.5-0.4,0.7c-0.1,0.2,0,0.5,0,0.7c0.1,0.2,0.2,0.4,0.5,0.7   c0.5,0.5,1,0.6,1.6,0.5c0.3-0.1,0.5-0.2,0.8-0.4c0.2-0.2,0.5-0.5,0.9-0.8l1.1-1.2c0.6-0.6,1-1.1,1.3-1.5c0.3-0.4,0.5-0.7,0.5-0.9   c0-0.1,0-0.2-0.1-0.2c-0.1-0.1-0.1-0.1-0.2-0.2c-0.1-0.1-0.1-0.1-0.1-0.2c0-0.1,0-0.1,0.1-0.2c0.1-0.1,0.3-0.1,0.4,0.1   c0.1,0.1,0.2,0.2,0.3,0.3c0.1,0.1,0.2,0.3,0.4,0.4c0.1,0.1,0.3,0.2,0.4,0.3c0.1,0.1,0.2,0.2,0.3,0.3c0.1,0.1,0.1,0.2,0.2,0.2   c0,0.1,0,0.1-0.1,0.2c-0.1,0.1-0.1,0.1-0.2,0.1c-0.1,0-0.1,0-0.2-0.1c-0.1-0.1-0.1-0.1-0.2-0.2c-0.1-0.1-0.2-0.1-0.2-0.1   c-0.2,0-0.5,0.2-0.8,0.5c-0.4,0.3-0.8,0.8-1.4,1.4l-1.1,1.1c-0.4,0.4-0.7,0.7-1,0.9c-0.3,0.3-0.6,0.4-1,0.5   c-0.4,0.1-0.8,0.1-1.2-0.1c-0.4-0.1-0.8-0.4-1.2-0.8c-0.4-0.4-0.8-0.8-0.9-1.2c-0.2-0.4-0.3-0.8-0.2-1.2c0-0.3,0.2-0.6,0.4-0.9   c0.2-0.3,0.4-0.5,0.7-0.8l3.1-3.3c0.1-0.1,0.2-0.3,0.2-0.4c0-0.1,0-0.2-0.1-0.4c-0.1-0.1-0.1-0.2-0.2-0.3c0-0.1,0-0.1,0.1-0.2   c0.1-0.1,0.3-0.2,0.4,0c0,0,0.1,0.2,0.3,0.3c0.2,0.2,0.4,0.4,0.7,0.8c0.3,0.3,0.5,0.5,0.7,0.6c0.2,0.1,0.3,0.2,0.3,0.3   c0.1,0.1,0.1,0.2,0,0.4c-0.1,0.1-0.1,0.1-0.2,0.1c-0.1,0-0.1-0.1-0.2-0.1c-0.2-0.1-0.3-0.2-0.4-0.2c-0.1,0-0.2,0.1-0.4,0.3   L36.4,111.7z"
   id="path60" />
	<path
   class="st0"
   d="M44.5,118.3c0,0,0,0.1,0,0.1c0.1,0,0.1,0,0.2,0l3.1-2.3c0.1-0.1,0.3-0.2,0.4-0.3c0.1-0.1,0.2-0.2,0.2-0.2   c0.1-0.1,0.1-0.2,0.1-0.3c0-0.1-0.1-0.2-0.1-0.3c-0.1-0.1-0.1-0.2-0.2-0.2c0-0.1,0-0.2,0-0.3c0.1-0.1,0.2-0.2,0.4,0   c0.1,0.1,0.2,0.1,0.3,0.2c0.1,0.1,0.2,0.2,0.4,0.3c0.1,0.1,0.3,0.2,0.4,0.2c0.1,0.1,0.2,0.1,0.3,0.2c0.2,0.1,0.2,0.3,0.1,0.4   c-0.1,0.1-0.1,0.1-0.2,0.1c-0.1,0-0.1,0-0.2,0c-0.1,0-0.1,0-0.2-0.1c-0.1,0-0.1,0-0.2,0c-0.2,0-0.4,0.1-0.6,0.3   c-0.3,0.2-0.6,0.4-1,0.7l-3.3,2.5c-0.3,0.2-0.6,0.4-0.8,0.6c-0.2,0.2-0.4,0.3-0.6,0.4c-0.2,0.1-0.3,0.2-0.4,0.2c-0.1,0-0.2,0-0.3,0   c-0.1-0.1-0.1-0.1-0.1-0.2c0-0.1,0-0.2,0.1-0.4c0-0.2,0.1-0.4,0.2-0.6c0.1-0.2,0.2-0.5,0.3-0.9l1.3-4.8c0.1-0.3,0.2-0.6,0.2-0.8   c0.1-0.2,0.1-0.4,0-0.5c0-0.1-0.1-0.1-0.1-0.2c0-0.1-0.1-0.1-0.1-0.2c0,0,0-0.1-0.1-0.1c0-0.1,0-0.1,0.1-0.2c0-0.1,0.1-0.1,0.2-0.1   c0.1,0,0.1,0,0.2,0c0,0,0.1,0.1,0.3,0.3c0.2,0.2,0.4,0.3,0.8,0.6c0.3,0.2,0.6,0.4,0.8,0.5c0.2,0.1,0.4,0.2,0.4,0.2   c0.2,0.1,0.2,0.2,0.1,0.4c-0.1,0.1-0.2,0.2-0.2,0.1c-0.1,0-0.2,0-0.3-0.1c-0.1,0-0.2-0.1-0.3-0.1c-0.1,0-0.2,0-0.2,0.1   c0,0,0,0.1-0.1,0.1c0,0,0,0.1,0,0.1L44.5,118.3z"
   id="path62" />
	<path
   class="st0"
   d="M51.5,122.3c0,0.1,0,0.1,0,0.1c0.1,0,0.1,0,0.1,0l2.7-2.8c0.1-0.1,0.2-0.3,0.3-0.4c0.1-0.1,0.1-0.2,0.2-0.2   c0.1-0.1,0.1-0.2,0-0.3c0-0.1-0.1-0.2-0.2-0.2c-0.1-0.1-0.1-0.1-0.2-0.2c-0.1-0.1-0.1-0.2,0-0.3c0.1-0.2,0.2-0.2,0.4-0.1   c0.1,0,0.2,0.1,0.3,0.2c0.1,0.1,0.3,0.2,0.4,0.2c0.2,0.1,0.3,0.1,0.4,0.2c0.1,0,0.2,0.1,0.3,0.1c0.2,0.1,0.3,0.2,0.2,0.4   c0,0.1-0.1,0.1-0.1,0.1c0,0-0.1,0-0.2,0c-0.1,0-0.1,0-0.2,0c-0.1,0-0.2,0-0.2,0c-0.2,0-0.4,0.1-0.6,0.4c-0.2,0.2-0.5,0.5-0.9,0.8   l-2.9,2.9c-0.3,0.3-0.5,0.5-0.7,0.7c-0.2,0.2-0.4,0.4-0.5,0.5c-0.1,0.1-0.3,0.2-0.4,0.3c-0.1,0-0.2,0-0.3,0c-0.1,0-0.1-0.1-0.2-0.2   c0-0.1,0-0.2,0-0.4c0-0.2,0-0.4,0.1-0.6c0-0.3,0.1-0.6,0.1-0.9l0.6-4.9c0-0.3,0.1-0.6,0.1-0.8c0-0.2,0-0.4,0-0.5   c0-0.1-0.1-0.1-0.1-0.2c0,0-0.1-0.1-0.1-0.1c0,0-0.1-0.1-0.1-0.1c0,0,0-0.1,0-0.2c0-0.1,0.1-0.1,0.1-0.1c0.1,0,0.1,0,0.2,0   c0,0,0.2,0.1,0.3,0.2c0.2,0.1,0.5,0.3,0.9,0.5c0.4,0.2,0.7,0.3,0.9,0.4c0.2,0.1,0.4,0.1,0.5,0.2c0.2,0.1,0.2,0.2,0.1,0.3   c-0.1,0.1-0.1,0.2-0.2,0.2c-0.1,0-0.2,0-0.3,0c-0.1,0-0.2,0-0.3,0c-0.1,0-0.2,0-0.2,0.1c0,0,0,0.1,0,0.1c0,0,0,0.1,0,0.1   L51.5,122.3z"
   id="path64" />
	<path
   class="st0"
   d="M103.9,114.6c0.1,0.1,0.1,0.2,0.1,0.3c0,0.1,0,0.1-0.1,0.2c-0.1,0.1-0.2,0-0.4,0c-0.1-0.1-0.4-0.2-0.6-0.3   c-0.4-0.2-0.8-0.1-1.3,0.2c-0.3,0.2-0.5,0.4-0.5,0.6c0,0.2,0,0.4,0.1,0.5l1,1.6c0.1,0.1,0.1,0.2,0.2,0.2c0.1,0,0.2-0.1,0.4-0.2   c0.2-0.1,0.4-0.3,0.5-0.4c0.1-0.1,0.2-0.2,0.2-0.4c0-0.2,0-0.3,0-0.4c0-0.1-0.1-0.2-0.1-0.3c0-0.1,0-0.1,0-0.2c0-0.1,0-0.1,0.1-0.1   c0.1,0,0.1,0,0.2,0c0.1,0,0.1,0.1,0.2,0.2c0,0,0.1,0.1,0.2,0.3c0.1,0.2,0.2,0.4,0.4,0.6c0.2,0.3,0.3,0.5,0.5,0.7   c0.1,0.2,0.2,0.4,0.3,0.5c0.1,0.2,0.1,0.3,0,0.4c-0.1,0.1-0.2,0.1-0.3,0c-0.1-0.1-0.2-0.2-0.4-0.3c-0.2-0.1-0.4-0.2-0.5-0.2   c-0.2,0-0.4,0.1-0.6,0.2c0,0-0.1,0.1-0.1,0.1c0,0-0.1,0.1-0.1,0.1l-0.1,0.1c-0.1,0.1-0.1,0.2,0,0.2l1.1,1.8   c0.1,0.2,0.2,0.3,0.3,0.5c0.1,0.1,0.2,0.2,0.3,0.3c0.1,0.1,0.2,0.1,0.4,0.1c0.1,0,0.3-0.1,0.5-0.2c0.2-0.1,0.4-0.3,0.5-0.5   c0.1-0.2,0.2-0.4,0.2-0.7c0-0.2,0-0.4,0-0.5c0-0.1,0-0.3,0-0.4c0-0.1,0-0.2,0-0.3c0-0.1,0-0.1,0.1-0.2c0.1-0.1,0.3,0,0.4,0.2   c0,0.1,0.1,0.2,0.1,0.3l0.5,1c0.1,0.1,0.1,0.2,0.1,0.3c0,0.1-0.1,0.2-0.2,0.2c-0.1,0.1-0.4,0.2-0.9,0.4c-0.5,0.2-1.1,0.6-2,1.1   c-0.5,0.3-0.9,0.6-1.1,0.8c-0.3,0.2-0.4,0.3-0.5,0.4c-0.2,0.1-0.3,0.1-0.4-0.1c-0.1-0.1-0.1-0.2,0-0.2c0-0.1,0.1-0.1,0.2-0.2   c0.2-0.1,0.2-0.3,0.3-0.4c0-0.1,0-0.3-0.2-0.4l-3.2-5.1c-0.1-0.2-0.2-0.3-0.3-0.3c-0.1,0-0.2,0-0.4,0c-0.2,0.1-0.3,0.1-0.4,0.1   c-0.1,0-0.2,0-0.2-0.1c-0.1-0.2-0.1-0.3,0.1-0.4c0,0,0.2-0.1,0.5-0.3c0.3-0.2,0.8-0.4,1.3-0.8c0.7-0.4,1.2-0.8,1.6-1.1   c0.4-0.3,0.7-0.5,0.8-0.6c0.1-0.1,0.2-0.1,0.3-0.1c0.1,0,0.1,0,0.2,0.1L103.9,114.6z"
   id="path66" />
	<path
   class="st0"
   d="M109.3,110.6c0.1,0.1,0.1,0.3,0,0.3c-0.1,0.1-0.2,0.1-0.3,0c-0.1-0.1-0.3-0.2-0.5-0.3   c-0.3-0.2-0.6-0.3-0.9-0.4c-0.2,0-0.5,0-0.8,0.3c-0.2,0.2-0.4,0.5-0.4,0.8c0,0.3,0.1,0.6,0.3,0.8c0.2,0.2,0.3,0.3,0.4,0.3   c0.1,0.1,0.3,0.1,0.5,0.1c0.2,0,0.3,0,0.5-0.1c0.2-0.1,0.4-0.1,0.6-0.1c0.4-0.1,0.7-0.1,1-0.1c0.3,0,0.6,0,0.9,0.1   c0.3,0.1,0.5,0.2,0.7,0.3c0.2,0.1,0.5,0.3,0.7,0.6c0.3,0.3,0.5,0.7,0.6,1c0.1,0.4,0.2,0.7,0.1,1.1c0,0.4-0.1,0.7-0.3,1.1   c-0.2,0.3-0.4,0.6-0.7,0.9c-0.2,0.1-0.3,0.3-0.5,0.4c-0.2,0.1-0.3,0.2-0.5,0.2c-0.2,0.1-0.3,0.1-0.4,0.1c-0.1,0-0.2,0-0.3,0   c-0.1,0-0.2-0.1-0.3-0.1c-0.1-0.1-0.2-0.2-0.4-0.4l-0.7-0.8c-0.1-0.1-0.1-0.3,0-0.4c0.1-0.1,0.2-0.1,0.3,0.1   c0.1,0.1,0.3,0.3,0.6,0.4c0.7,0.5,1.4,0.5,1.9,0.1c0.3-0.3,0.5-0.6,0.6-1c0-0.4-0.1-0.7-0.3-1c-0.1-0.2-0.3-0.3-0.5-0.4   c-0.2-0.1-0.3-0.1-0.5-0.2c-0.2,0-0.4,0-0.6,0c-0.2,0-0.5,0.1-0.8,0.1c-0.3,0.1-0.6,0.1-0.9,0.1c-0.3,0-0.5,0-0.8,0   c-0.2-0.1-0.5-0.1-0.7-0.3c-0.2-0.1-0.4-0.3-0.6-0.5c-0.2-0.3-0.4-0.6-0.5-0.9c-0.1-0.3-0.1-0.7-0.1-1c0-0.3,0.1-0.6,0.3-1   c0.2-0.3,0.4-0.6,0.6-0.8c0.3-0.2,0.5-0.4,0.8-0.5c0.3-0.1,0.5-0.2,0.6-0.2c0.1,0,0.2,0,0.2,0.1c0.1,0,0.1,0.1,0.2,0.2l0.1,0.1   L109.3,110.6z"
   id="path68" />
	<path
   class="st0"
   d="M32.9,99.5H31c0,0-0.5-1.6-0.6-1.8c0-0.1-0.1-0.1-0.2-0.1c-0.1,0-0.1,0-0.2,0.1c-0.1,0.2-0.6,1.8-0.6,1.8h-1.9   c-0.2,0-0.2,0.3-0.1,0.3c0.1,0.1,1.5,1.1,1.5,1.1s-0.5,1.6-0.6,1.8c0,0.2,0.1,0.3,0.3,0.2c0.1-0.1,1.5-1.1,1.5-1.1s1.4,1,1.5,1.1   c0.1,0.1,0.3,0,0.3-0.2c-0.1-0.2-0.6-1.8-0.6-1.8s1.4-1,1.5-1.1C33.1,99.8,33.1,99.5,32.9,99.5"
   id="path70" />
	<path
   class="st0"
   d="M122.7,99.5h-1.9c0,0-0.5-1.6-0.6-1.8c0-0.1-0.1-0.1-0.2-0.1c-0.1,0-0.1,0-0.2,0.1c-0.1,0.2-0.6,1.8-0.6,1.8   h-1.9c-0.2,0-0.2,0.3-0.1,0.3c0.1,0.1,1.5,1.1,1.5,1.1s-0.5,1.6-0.6,1.8c0,0.2,0.1,0.3,0.3,0.2c0.1-0.1,1.5-1.1,1.5-1.1   s1.4,1,1.5,1.1c0.1,0.1,0.3,0,0.3-0.2c-0.1-0.2-0.6-1.8-0.6-1.8s1.4-1,1.5-1.1C123,99.8,122.9,99.5,122.7,99.5"
   id="path72" />
	<path
   class="st0"
   d="M118.4,73.3c0,24.1-19.5,43.6-43.6,43.6c-24.1,0-43.6-19.5-43.6-43.6s19.5-43.6,43.6-43.6   C98.9,29.7,118.4,49.2,118.4,73.3"
   id="path74" />
	<g
   id="g142">
		<defs
   id="defs77">
			<path
   id="SVGID_1_"
   d="M31.3,73.3c0,24.1,19.5,43.6,43.6,43.6c24.1,0,43.6-19.5,43.6-43.6S98.9,29.7,74.9,29.7     C50.8,29.7,31.3,49.2,31.3,73.3" />
		</defs>
		<clipPath
   id="SVGID_2_">
			<use
   xlink:href="#SVGID_1_"
   style="overflow:visible;"
   id="use79" />
		</clipPath>
		<path
   class="st2"
   d="M75.2,52.2c0,0-0.2-0.1-0.2-0.2v-0.6c0-0.2-0.1-0.3-0.3-0.3h-0.3c-0.2,0-0.3-0.2-0.3-0.3v-1.3    c0-0.1-0.1-0.3-0.3-0.3h-0.3h-0.3c-0.2,0-0.3,0.1-0.3,0.3v1.3c0,0.1-0.1,0.3-0.3,0.3h-0.3c-0.1,0-0.3,0.1-0.3,0.3V52    c0,0.1-0.1,0.2-0.2,0.2c-0.2,0.1-0.4,0.3-0.4,0.5c0,0.2,0.1,0.4,0.3,0.5c0.1,0,0.2,0.1,0.2,0.2v1.4c0,0.2-0.3,0.1-0.3,0    c0-1-1.1-1.5-1.8-1.2c-0.4,0.2-0.8,0-0.9-0.1c-0.1-0.1,0-0.1,0-0.2c0,0,0,0,0,0c0.5-1.1-0.1-2.2-0.5-2.7c-0.4-0.6-1.1-0.9-1.9-0.9    c-0.6,0.1-0.9,0.5-1,0.7c-0.1,0.1-0.2,0.1-0.3,0c-0.5-0.6-0.6-1.5-0.2-2.1c0.1-0.1,0-0.2,0-0.2s-1-1-1.1-1c0,0-0.1-0.1-0.1-0.2    v-5.3c0-0.1,0.1-0.3,0.3-0.3H67c0.1,0,0.3-0.1,0.3-0.3v-0.5v-0.5c0-0.1-0.1-0.3-0.3-0.3h-2.2c-0.1,0-0.3-0.1-0.3-0.3v-2.1    c0-0.1-0.1-0.3-0.3-0.3h-0.5h-0.5c-0.1,0-0.3,0.1-0.3,0.3v2.1c0,0.1-0.1,0.3-0.3,0.3h-2.2c-0.2,0-0.3,0.1-0.3,0.3v0.5v0.5    c0,0.1,0.1,0.3,0.3,0.3h2.2c0.2,0,0.3,0.1,0.3,0.3V47c0,0.1,0,0.1-0.1,0.2c0,0-1.1,1-1.1,1s-0.1,0.1,0,0.2    c0.4,0.7,0.3,1.5-0.2,2.1c-0.1,0.1-0.2,0.1-0.3,0c-0.1-0.2-0.4-0.7-1-0.7c-0.7-0.1-1.4,0.3-1.9,0.9c-0.4,0.5-1,1.6-0.5,2.7    c0,0,0,0,0,0c0,0,0,0.1,0,0.2c-0.1,0.1-0.5,0.3-0.9,0.1c-0.7-0.3-1.8,0.1-1.8,1.2c0,0.2-0.2,0.2-0.3,0v-1.4c0-0.1,0.1-0.2,0.2-0.2    c0.2-0.1,0.3-0.3,0.3-0.5c0-0.2-0.2-0.4-0.4-0.5c0,0-0.2-0.1-0.2-0.2v-0.6c0-0.2-0.1-0.3-0.3-0.3h-0.3c-0.2,0-0.3-0.2-0.3-0.3    v-1.3c0-0.1-0.1-0.3-0.3-0.3h-0.3h-0.3c-0.2,0-0.3,0.1-0.3,0.3v1.3c0,0.1-0.1,0.3-0.3,0.3h-0.3c-0.1,0-0.3,0.1-0.3,0.3V52    c0,0.1-0.1,0.2-0.2,0.2c-0.2,0.1-0.4,0.3-0.4,0.5c0,0.2,0.1,0.4,0.3,0.5c0.1,0,0.2,0.1,0.2,0.2v2.9c0,0.1,0.1,0.1,0.1,0.1h1.2h1.3    h3H59h3.7c0.1,0,0.2-0.2,0.1-0.2c-0.3-0.2-0.6-0.5-0.6-0.9c0-0.6,0.7-1.1,1.6-1.1c0.9,0,1.6,0.5,1.6,1.1c0,0.3-0.2,0.6-0.6,0.9    c-0.1,0.1-0.1,0.2,0.1,0.2h3.7h0.9h3h1.3h1.2c0.1,0,0.1,0,0.1-0.1v-2.9c0-0.1,0.1-0.2,0.2-0.2c0.2-0.1,0.3-0.3,0.3-0.5    C75.6,52.5,75.4,52.3,75.2,52.2"
   clip-path="url(#SVGID_2_)"
   id="path82" />
		<path
   class="st2"
   d="M75.2,58.1c0-0.3,0.1-0.6,0.2-0.9c0-0.1,0-0.2-0.1-0.2H63.8H52.2c-0.1,0-0.1,0.1-0.1,0.2    c0.1,0.3,0.2,0.6,0.2,0.9c0,0.3-0.1,0.6-0.2,0.9c0,0.1,0,0.2,0.1,0.2h11.6h11.6c0.1,0,0.1-0.1,0.1-0.2    C75.3,58.7,75.2,58.4,75.2,58.1"
   clip-path="url(#SVGID_2_)"
   id="path84" />
		<path
   class="st2"
   d="M85.1,51.6H83c-0.2,0-0.4-0.1-0.5-0.4c-0.2-0.6-0.8-1.3-1.8-1.3c-1.1,0-1.7,0.8-1.8,1.3    c-0.1,0.2-0.3,0.4-0.5,0.4h-2.2c-0.1,0-0.1,0.1-0.1,0.1v5.9c0,0.1,0.1,0.1,0.1,0.1c0.1,0,2.8,0,2.9,0c0.1,0,0.1-0.1,0.1-0.1V53    c0-0.8,0.6-1.4,1.4-1.4c0.8,0,1.4,0.6,1.4,1.4v4.6c0,0.1,0,0.1,0.1,0.1c0.1,0,2.8,0,2.9,0c0.1,0,0.1-0.1,0.1-0.1v-5.9    C85.2,51.6,85.2,51.6,85.1,51.6"
   clip-path="url(#SVGID_2_)"
   id="path86" />
		<path
   class="st2"
   d="M85.9,49.4c-0.3,0-0.6,0-0.9,0c0,0-0.1,0-0.1-0.1v-1.5c0-0.1-0.1-0.3-0.3-0.3h-0.3h-0.3    c-0.2,0-0.3,0.1-0.3,0.3v1.1c0,0.1-0.1,0.2-0.2,0.1c-0.2-0.1-0.4-0.2-0.6-0.4c-0.7-0.5-1.4-0.9-2.4-0.9c-1,0-1.8,0.4-2.4,0.9    c-0.2,0.2-0.4,0.3-0.6,0.4c-0.1,0-0.2,0-0.2-0.1v-1.1c0-0.1-0.1-0.3-0.3-0.3h-0.3h-0.3c-0.2,0-0.3,0.1-0.3,0.3v1.5    c0,0.1-0.1,0.1-0.1,0.1c-0.3,0-0.6,0-0.9,0c-0.2,0-0.3,0.2-0.3,0.3c0.1,0.4,0.3,1,0.9,1.4c0.3,0,1.5,0,2.2,0    c0.2,0,0.2-0.1,0.3-0.2c0.2-0.6,1-1.5,2.2-1.5c1.2,0,1.9,0.8,2.2,1.5c0,0.1,0.1,0.2,0.3,0.2c0.6,0,1.9,0,2.2,0    c0.6-0.4,0.9-1,0.9-1.4C86.2,49.6,86.1,49.4,85.9,49.4"
   clip-path="url(#SVGID_2_)"
   id="path88" />
		<path
   class="st2"
   d="M73.9,59.8h-0.8c-0.2,0-0.3,0.1-0.3,0.3v0.6v0.6c0,0.1,0.1,0.3,0.3,0.3h0.8c0.1,0,0.3-0.1,0.3-0.3v-0.6v-0.6    C74.2,59.9,74.1,59.8,73.9,59.8"
   clip-path="url(#SVGID_2_)"
   id="path90" />
		<path
   class="st2"
   d="M71.5,59.8h-0.8c-0.2,0-0.3,0.1-0.3,0.3v0.6v0.6c0,0.1,0.1,0.3,0.3,0.3h0.8c0.1,0,0.3-0.1,0.3-0.3v-0.6v-0.6    C71.7,59.9,71.6,59.8,71.5,59.8"
   clip-path="url(#SVGID_2_)"
   id="path92" />
		<path
   class="st2"
   d="M69,59.8h-0.8c-0.2,0-0.3,0.1-0.3,0.3v0.6v0.6c0,0.1,0.1,0.3,0.3,0.3H69c0.1,0,0.3-0.1,0.3-0.3v-0.6v-0.6    C69.3,59.9,69.2,59.8,69,59.8"
   clip-path="url(#SVGID_2_)"
   id="path94" />
		<path
   class="st2"
   d="M66.6,59.8h-0.8c-0.2,0-0.3,0.1-0.3,0.3v0.6v0.6c0,0.1,0.1,0.3,0.3,0.3h0.8c0.1,0,0.3-0.1,0.3-0.3v-0.6v-0.6    C66.9,59.9,66.8,59.8,66.6,59.8"
   clip-path="url(#SVGID_2_)"
   id="path96" />
		<path
   class="st2"
   d="M64.2,59.8h-0.8c-0.2,0-0.3,0.1-0.3,0.3v0.6v0.6c0,0.1,0.1,0.3,0.3,0.3h0.8c0.1,0,0.3-0.1,0.3-0.3v-0.6v-0.6    C64.4,59.9,64.3,59.8,64.2,59.8"
   clip-path="url(#SVGID_2_)"
   id="path98" />
		<path
   class="st2"
   d="M61.7,59.8h-0.8c-0.2,0-0.3,0.1-0.3,0.3v0.6v0.6c0,0.1,0.1,0.3,0.3,0.3h0.8c0.1,0,0.3-0.1,0.3-0.3v-0.6v-0.6    C62,59.9,61.9,59.8,61.7,59.8"
   clip-path="url(#SVGID_2_)"
   id="path100" />
		<path
   class="st2"
   d="M59.3,59.8h-0.8c-0.2,0-0.3,0.1-0.3,0.3v0.6v0.6c0,0.1,0.1,0.3,0.3,0.3h0.8c0.1,0,0.3-0.1,0.3-0.3v-0.6v-0.6    C59.6,59.9,59.4,59.8,59.3,59.8"
   clip-path="url(#SVGID_2_)"
   id="path102" />
		<path
   class="st2"
   d="M56.9,59.8h-0.8c-0.2,0-0.3,0.1-0.3,0.3v0.6v0.6c0,0.1,0.1,0.3,0.3,0.3h0.8c0.1,0,0.3-0.1,0.3-0.3v-0.6v-0.6    C57.1,59.9,57,59.8,56.9,59.8"
   clip-path="url(#SVGID_2_)"
   id="path104" />
		<path
   class="st2"
   d="M54.4,59.8h-0.8c-0.2,0-0.3,0.1-0.3,0.3v0.6v0.6c0,0.1,0.1,0.3,0.3,0.3h0.8c0.1,0,0.3-0.1,0.3-0.3v-0.6v-0.6    C54.7,59.9,54.6,59.8,54.4,59.8"
   clip-path="url(#SVGID_2_)"
   id="path106" />
		<path
   class="st2"
   d="M51.2,66.9h-0.8c-0.2,0-0.3,0.1-0.3,0.3v0.6v0.6c0,0.1,0.1,0.3,0.3,0.3h0.8c0.1,0,0.3-0.1,0.3-0.3v-0.6v-0.6    C51.5,67,51.4,66.9,51.2,66.9"
   clip-path="url(#SVGID_2_)"
   id="path108" />
		<path
   class="st2"
   d="M48.8,66.9H48c-0.2,0-0.3,0.1-0.3,0.3v0.6v0.6c0,0.1,0.1,0.3,0.3,0.3h0.8c0.1,0,0.3-0.1,0.3-0.3v-0.6v-0.6    C49,67,48.9,66.9,48.8,66.9"
   clip-path="url(#SVGID_2_)"
   id="path110" />
		<path
   class="st2"
   d="M46.3,66.9h-0.8c-0.2,0-0.3,0.1-0.3,0.3v0.6v0.6c0,0.1,0.1,0.3,0.3,0.3h0.8c0.1,0,0.3-0.1,0.3-0.3v-0.6v-0.6    C46.6,67,46.5,66.9,46.3,66.9"
   clip-path="url(#SVGID_2_)"
   id="path112" />
		<path
   class="st2"
   d="M76.2,58.4c-0.1,0-0.1,0.1-0.1,0.1v1c0,0,0,0.3-0.3,0.3h-0.3c-0.2,0-0.3,0.1-0.3,0.3v0.6v0.6    c0,0.1,0.1,0.3,0.2,0.3h0.3c0.3,0,0.3,0.3,0.3,0.3v0.9c0,0.1,0.1,0.1,0.1,0.1h8.9c0.1,0,0.1-0.1,0.1-0.1v-2.9c0.6-0.2,0.9-0.7,1-1    c0.1-0.2,0-0.5-0.3-0.5H76.2z"
   clip-path="url(#SVGID_2_)"
   id="path114" />
		<path
   class="st2"
   d="M51.5,66.1v-6c0-0.1-0.2-0.2-0.2-0.1c-0.5,1.8-1.8,6-1.8,6c0,0.1,0,0.2,0.1,0.2h1.8    C51.5,66.2,51.5,66.1,51.5,66.1"
   clip-path="url(#SVGID_2_)"
   id="path116" />
		<path
   class="st2"
   d="M72.3,71.5c0,0,0,0.1-0.1,0.1h-3.6c-0.1,0-0.1-0.1-0.1-0.1v-4.1c0-1.1,0.9-1.9,1.9-1.9c1.1,0,1.9,0.9,1.9,1.9    V71.5z M65.7,71.5c0,0,0,0.1-0.1,0.1H62c-0.1,0-0.1-0.1-0.1-0.1v-4.1c0-1.1,0.9-1.9,1.9-1.9c1.1,0,1.9,0.9,1.9,1.9V71.5z     M59.1,71.5c0,0,0,0.1-0.1,0.1h-3.6c-0.1,0-0.1-0.1-0.1-0.1v-4.1c0-1.1,0.9-1.9,1.9-1.9c1.1,0,1.9,0.9,1.9,1.9V71.5z M74.9,62.2    H52.6c-0.1,0-0.1,0.1-0.1,0.1v12.3c0,0,0,0.1,0.1,0.1h22.3c0.1,0,0.1-0.1,0.1-0.1V62.4C75,62.4,75,62.2,74.9,62.2"
   clip-path="url(#SVGID_2_)"
   id="path118" />
		<path
   class="st2"
   d="M83.7,82.6C83.7,82.6,83.7,82.6,83.7,82.6C83.7,82.6,83.7,82.6,83.7,82.6C83.7,82.6,83.7,82.6,83.7,82.6    C83.7,82.6,83.7,82.6,83.7,82.6"
   clip-path="url(#SVGID_2_)"
   id="path120" />
		<path
   class="st2"
   d="M83.8,82.5L83.8,82.5L83.8,82.5z"
   clip-path="url(#SVGID_2_)"
   id="path122" />
		<path
   class="st2"
   d="M83,83L83,83c0.3-0.2,0.5-0.3,0.6-0.3C83.5,82.7,83.3,82.8,83,83"
   clip-path="url(#SVGID_2_)"
   id="path124" />
		<path
   class="st2"
   d="M76.2,83h5.5c0,0,0.1,0,0.1,0c0.5-0.3,1-0.6,1.3-0.7c0.1,0,0.1-0.1,0.1-0.1v-0.3c0,0,0-0.1-0.1-0.1h-6.8    c-0.1,0-0.1,0.1-0.1,0.1v1C76.1,82.9,76.1,83,76.2,83"
   clip-path="url(#SVGID_2_)"
   id="path126" />
		<path
   class="st2"
   d="M76.2,85.3h1.4c0,0,0.1,0,0.1,0c0.6-0.4,1.2-0.7,1.8-1c0.1-0.1,0.1-0.2-0.1-0.2h-3.2c-0.1,0-0.1,0.1-0.1,0.1    v1C76.1,85.2,76.1,85.3,76.2,85.3"
   clip-path="url(#SVGID_2_)"
   id="path128" />
		<path
   class="st2"
   d="M32.8,95.3c1.4-2.7,3.6-4.9,6.2-6.6c2.8-1.8,6.1-2.7,9.4-2.7c1,0,2.1,0.1,3.1,0.3l0-16.7c0,0,0-0.3-0.3-0.3    h-6.8c0,0-0.3,0-0.3-0.3v-2.6c0-0.1,0.1-0.1,0.1-0.1c0.2-0.1,0.4-0.3,0.4-0.5c0-0.2-0.2-0.4-0.4-0.5c0,0-0.1,0-0.1-0.1v-0.4    c0-0.1-0.1-0.3-0.3-0.3h-0.4h-0.4c-0.1,0-0.3,0.1-0.3,0.3v0.4c0,0.1-0.1,0.1-0.1,0.1c-0.2,0.1-0.4,0.3-0.4,0.5    c0,0.2,0.2,0.4,0.4,0.5c0,0,0.1,0,0.1,0.1v2.1v0c-0.7,0.3-1.2,1-1.2,1.8v10c0,0-4.7,3.5-4.8,3.6c-0.1,0.1-0.2,0-0.2-0.1v-2    c0-0.1-0.1-0.3-0.3-0.3H36h-0.4c-0.1,0-0.3,0.1-0.3,0.3v3.2c0,0.1-0.1,0.1-0.1,0.1l-4.5,3.3c0,0-0.1,0-0.1,0.1v4.8v1.9H32.8z"
   clip-path="url(#SVGID_2_)"
   id="path130" />
		<path
   class="st2"
   d="M49.9,92.9H51c0.1,0,0.1,0,0.1,0s0.3-0.2,0.3-0.3c0,0,0.1,0,0.1-0.1c0-0.1,0-5.6,0-5.6l-0.1,0    c-1-0.2-2-0.3-3-0.3c-6.2,0-11.8,3.3-14.9,8.7h12.1c0,0,0.1,0,0.1-0.1c0-1.2,0.1-2.3,0.1-2.3c0-0.2,0.1-0.4,0.2-0.5l0.3-0.4    c0,0,0,0,0-0.1c0-0.2,0-0.4,0-0.5c0-0.3,0.1-0.4,0.2-0.5l0.6-0.7c0.1-0.1,0.3-0.3,0.6-0.3c0.3,0,0.5,0.2,0.6,0.3l0.6,0.7    c0.1,0.1,0.2,0.3,0.2,0.5c0,0.1,0,0.3,0,0.5c0,0.1,0,0.1,0,0.1l0.3,0.4c0.1,0.1,0.1,0.2,0.2,0.4C49.7,92.9,49.8,92.9,49.9,92.9"
   clip-path="url(#SVGID_2_)"
   id="path132" />
		<path
   class="st2"
   d="M53.4,91.1c0,0,0.3-0.3,0.6-0.3c0.3,0,0.6,0.3,0.6,0.3l2.3,1.8c0,0,0,0,0.1,0h1.1c0.1,0,0.1-0.1,0.1-0.1    c0-0.2,0.1-0.4,0.2-0.4l0.3-0.4c0,0,0,0,0-0.1c0-0.2,0-0.4,0-0.5c0-0.3,0.1-0.4,0.2-0.5l0.6-0.7c0.1-0.1,0.3-0.3,0.6-0.3    c0.3,0,0.5,0.2,0.6,0.3l0.6,0.7c0.1,0.1,0.2,0.3,0.2,0.5c0,0.1,0,0.4,0,0.5c0,0.1,0,0.1,0,0.1l0.3,0.4c0.1,0.1,0.2,0.2,0.2,0.5    c0,0,0,0.4,0,1.2c0,0.1,0.1,0.1,0.1,0.1h4.1c0.1,0,0.1-0.1,0.1-0.1l2.3-3.7c0-0.1,0.1-0.2,0.3-0.3c0,0,2.8-1.6,5.9-3.3    c0.1,0,0.1-0.1,0.1-0.1V75.9c0,0,0-0.1-0.1-0.1H52.6c-0.1,0-0.1,0.1-0.1,0.1v15.5c0,0.1,0.1,0.2,0.2,0.1    C52.7,91.6,53.4,91.1,53.4,91.1"
   clip-path="url(#SVGID_2_)"
   id="path134" />
		<path
   class="st2"
   d="M86.8,76.8c0,0,0,0.1-0.1,0.1h-2.8c-0.1,0-0.1-0.1-0.1-0.1V74c0,0,0-0.1,0.1-0.1h2.8c0.1,0,0.1,0.1,0.1,0.1    V76.8z M113.1,76.4h-0.9c-0.1-0.3-0.5-0.5-0.8-0.5c-0.3,0-0.5,0.1-0.7,0.4c-0.2-0.2-0.4-0.4-0.7-0.4c-0.3,0-0.5,0.1-0.7,0.4    c-0.2-0.2-0.4-0.4-0.7-0.4c-0.3,0-0.5,0.1-0.7,0.4c-0.2-0.2-0.4-0.4-0.7-0.4c-0.3,0-0.5,0.1-0.7,0.4c-0.2-0.2-0.4-0.4-0.7-0.4    c-0.3,0-0.5,0.1-0.7,0.4c-0.2-0.2-0.4-0.4-0.7-0.4c-0.3,0-0.5,0.1-0.7,0.4c-0.2-0.2-0.4-0.4-0.7-0.4c-0.3,0-0.5,0.1-0.7,0.4    c-0.2-0.2-0.4-0.4-0.7-0.4c-0.3,0-0.5,0.1-0.7,0.4c-0.2-0.2-0.4-0.4-0.7-0.4c-0.3,0-0.5,0.1-0.7,0.4c-0.2-0.2-0.4-0.4-0.7-0.4    c-0.3,0-0.5,0.1-0.7,0.4c-0.2-0.2-0.4-0.4-0.7-0.4c-0.2,0-0.4,0.1-0.6,0.2V70c0-0.4,0.3-0.8,0.7-0.9c0,0,0.1,0,0.1-0.1    c0-0.2-0.1-0.4-0.3-0.6c-0.4-0.4-0.8-0.3-1-0.2c-0.1,0-0.1,0-0.1,0l-8.4-4.3c0,0-0.3-0.1-0.6-0.1H76.2c-0.1,0-0.1,0.1-0.1,0.1    v16.8c0,0,0,0.1,0.1,0.1h0.9c0.1,0,0.1-0.1,0.1-0.1V74c0-0.1,0.1-0.1,0.1-0.1h4.1c0.1,0,0.1,0.1,0.1,0.1v6.5c0,0,0,0.1,0.1,0.1H83    c0.1,0,0.1-0.1,0.1-0.1v-0.8c0-0.5,0.4-0.8,0.8-0.8h1.5c0.4,0,0.7,0.3,0.8,0.7l0,0v0v2c0,0.1,0.1,0.1,0.1,0.1    c3.1,0,6.8,0.3,10.1,0.8c2.9,0.4,6.6,1.1,8.2,2.2l0,0l0,0c0.3,0.2,0.3,0.5,0.3,0.5l0,0v0c0,0,0,0,0,0.1c0,0.1,0,0.1,0.1,0.1    c0.2,0,0.4,0.1,0.5,0.2l0,0l0,0c1.6,1.8,3.7,4.2,4.1,4.7c0.1,0.2,0.2,0.4,0.2,0.6l0,13.4l0,0.4l-0.4,0.1l-1.6,0.5l3.3,2.1h1.2    c0,0,0-29.8,0-30c0.4-0.2,0.9-0.6,1-1C113.5,76.6,113.4,76.4,113.1,76.4"
   clip-path="url(#SVGID_2_)"
   id="path136" />
		<path
   class="st2"
   d="M51.8,100.9v-6.1c0-0.1,0.1-0.1,0.1-0.1H56c0.1,0,0.1,0.1,0.1,0.1v5.5c5.1-0.7,9.4-1.3,11.6-1.7    c8.5-1.4,23.5-4.9,34.1,1.2c0.8,0.5,1.6,0.9,2.4,1.4V85.5c0,0,0-0.1-0.1-0.1c-2.6-1.8-12.4-2.9-18.6-2.9c-0.1,0-0.1-0.1-0.1-0.1    v-2.7c0,0,0-0.1-0.1-0.1h-1.5c0,0-0.1,0-0.1,0.1v2.8c0,0.1,0,0.1-0.1,0.1c-1.1,0.6-14.2,8-14.3,8c-0.1,0-0.1,0.1-0.1,0.1l-2.5,3.9    c0,0,0,0.1-0.1,0.1h-5c0,0-0.1,0-0.1-0.1c0-0.8-0.1-1.7-0.1-1.8c0-0.1,0-0.1,0-0.1L61,92.1c0,0,0,0,0-0.1c0,0,0-0.5,0-0.7    c0-0.1,0-0.1,0-0.1l-0.6-0.7c0,0,0-0.1-0.1-0.1s-0.1,0.1-0.1,0.1l-0.6,0.7c0,0,0,0,0,0.1c0,0.2,0,0.7,0,0.7c0,0.1,0,0.1,0,0.1    l-0.5,0.6c0,0,0,0,0,0.1c0,0,0,0.2,0,0.5c0,0.1-0.1,0.1-0.1,0.1h-1.9c-0.1,0-0.1,0-0.1,0l-2.6-2c0,0,0,0-0.1,0c0,0-0.1,0-0.1,0    l-2.6,2c0,0-0.1,0-0.1,0h-1.9c0,0-0.1,0-0.1-0.1c0-0.3,0-0.5,0-0.5c0-0.1,0-0.1,0-0.1l-0.5-0.6c0,0,0,0,0-0.1c0,0,0-0.5,0-0.7    c0-0.1,0-0.1,0-0.1l-0.6-0.7c0,0,0-0.1-0.1-0.1c-0.1,0-0.1,0.1-0.1,0.1l-0.6,0.7c0,0,0,0,0,0.1c0,0.2,0,0.7,0,0.7    c0,0.1,0,0.1,0,0.1l-0.5,0.6c0,0,0,0,0,0.1c0,0-0.1,2.3-0.1,2.9c0,0.1-0.1,0.1-0.1,0.1H21.3c0,0-0.1,0-0.1,0.1v9.1    C24.1,104.7,39.3,102.7,51.8,100.9"
   clip-path="url(#SVGID_2_)"
   id="path138" />
		<path
   class="st2"
   d="M109.3,104.7L109.3,104.7l0-13.5c0,0,0-0.1-0.1-0.2c-0.4-0.4-2.5-2.9-4.1-4.7c-0.1-0.1-0.2,0-0.2,0.1v15.1    C106.5,102.6,108,103.6,109.3,104.7"
   clip-path="url(#SVGID_2_)"
   id="path140" />
	</g>
	<path
   class="st0"
   d="M74.8,117c-24.3,0-44-19.6-44-43.7c0-24.1,19.7-43.7,44-43.7c24.3,0,44,19.6,44,43.7   C118.9,97.4,99.1,117,74.8,117 M74.8,30.4c-23.8,0-43.2,19.2-43.2,42.9c0,23.6,19.4,42.9,43.2,42.9c23.8,0,43.2-19.2,43.2-42.9   C118.1,49.7,98.7,30.4,74.8,30.4"
   id="path144" />
	<path
   class="st3"
   d="M67.5,102.8c0,0,0.2,0,0.4,0l0.2,0l0.4,0c0,0.1,0,0.2,0,0.3c0,0,0,0.1,0,0.2c0,0.1,0,0.3,0,0.6l0,0.9l0,0.6   l0,4v0.3c0,0.1,0,0.2,0.1,0.3c0.1,0.1,0.2,0.1,0.4,0.1c0.1,0,0.3,0,0.6,0.1c0,0,0,0.1,0,0.1c0,0,0,0.1,0,0.3h-0.3   c-0.2,0-0.4,0-0.8,0c-0.2,0-0.3,0-0.4,0c-0.1,0-0.4,0-1,0c-0.1,0-0.1,0-0.2,0h-0.1l-0.2,0l-0.2,0l-0.3,0c0,0-0.1,0-0.2,0   c0-0.1,0-0.2,0-0.2c0,0,0-0.1,0-0.2c0.2,0,0.3-0.1,0.5-0.1c0.3-0.1,0.5-0.1,0.5-0.2c0.1-0.1,0.1-0.1,0.1-0.2l0-0.4l0-0.4l0-0.9   l0-0.2c0,0,0-0.1,0-0.4c0-0.1,0-0.2,0-0.3c0-0.1,0-0.2,0-0.5l0-0.3c0-0.3,0-0.4,0-0.5c0-0.1,0-0.1,0-0.2l0-0.1l0-0.4l0-0.2   c0-0.1,0-0.2,0-0.3c0-0.1,0-0.3,0-0.5c-0.3,0.2-0.6,0.4-1,0.6c0,0-0.2,0.1-0.5,0.2c-0.1-0.2-0.2-0.3-0.2-0.4   c0.4-0.2,0.7-0.4,0.8-0.5c0.2-0.2,0.5-0.4,0.8-0.6C67.2,103.3,67.3,103.1,67.5,102.8"
   id="path146" />
	<path
   class="st3"
   d="M70.7,110.7c-0.1-0.1-0.1-0.1-0.1-0.2c0-0.1,0-0.1,0.1-0.2c0,0,0.1-0.1,0.3-0.2c0.4-0.2,0.8-0.3,1.1-0.6   c0.3-0.2,0.5-0.5,0.7-0.8c0.2-0.3,0.3-0.7,0.4-1c0.1-0.4,0.1-0.7,0.1-0.9c0-0.1,0-0.2,0.1-0.5c0-0.2,0-0.4,0-0.7c0-1-0.1-1.7-0.4-2   c-0.2-0.3-0.4-0.4-0.7-0.4c-0.3,0-0.5,0.1-0.6,0.4c-0.2,0.3-0.4,0.8-0.4,1.4c0,0.4,0,0.7,0.1,1c0,0.2,0.1,0.4,0.2,0.6   c0.1,0.1,0.1,0.2,0.2,0.2c0.2,0.1,0.3,0.1,0.5,0.1c0.1,0,0.2,0,0.3,0l0.1,0c0,0,0.1,0,0.1,0.1c0,0,0.1,0.1,0.1,0.2   c0,0.1-0.1,0.2-0.2,0.3c-0.2,0.1-0.5,0.1-0.8,0.1c-0.2,0-0.3,0-0.3,0c-0.4-0.1-0.6-0.2-0.7-0.3c-0.2-0.2-0.4-0.3-0.5-0.5   c-0.1-0.2-0.2-0.4-0.3-0.6c-0.1-0.3-0.1-0.6-0.1-0.9c0-0.5,0.1-0.9,0.3-1.3c0.2-0.4,0.5-0.7,0.9-0.9c0.4-0.2,0.8-0.3,1.2-0.3   c0.7,0,1.4,0.3,1.9,0.8c0.5,0.6,0.7,1.4,0.7,2.5c0,0.5-0.1,1.1-0.3,1.7c-0.1,0.1-0.2,0.4-0.4,0.8c-0.2,0.4-0.5,0.8-0.9,1.1   c-0.4,0.3-0.8,0.6-1.3,0.7c-0.4,0.2-0.8,0.2-1.1,0.2C70.8,110.7,70.8,110.7,70.7,110.7"
   id="path148" />
	<path
   class="st3"
   d="M75.6,103c0.2,0,0.4,0,0.7,0l1.4,0l1.2,0l0.7,0l0.2,0c0.1,0,0.1,0,0.2,0c0,0.1,0,0.3,0,0.4   c0,0.1-0.1,0.4-0.2,0.8c-0.1,0.3-0.2,0.6-0.3,0.9c-0.1,0.3-0.2,0.5-0.2,0.6c-0.1,0.3-0.2,0.5-0.3,0.7c-0.1,0.2-0.1,0.4-0.2,0.6   l-0.3,0.8c0,0.1-0.1,0.4-0.3,0.8l-0.5,1.3c0,0.1-0.1,0.2-0.1,0.2c0,0.1,0,0.1,0.1,0.2c0.1,0.1,0.1,0.1,0.1,0.2c0,0.1,0,0.2-0.1,0.2   h-0.2l-0.4,0c0,0-0.1,0-0.2,0c-0.1,0-0.2,0-0.3,0c-0.1,0-0.1,0-0.2,0c0-0.1,0.1-0.3,0.2-0.6c0.1-0.2,0.3-0.7,0.6-1.4l1-2.7l0.3-0.7   c0.1-0.1,0.1-0.3,0.2-0.4c0-0.1,0.1-0.2,0.1-0.3c-0.4,0-0.7,0-0.9,0l-0.9,0l-0.7,0c-0.2,0-0.4,0-0.4,0.1c-0.1,0.1-0.1,0.2-0.2,0.3   c0,0.2-0.1,0.3-0.1,0.3c0,0-0.1,0.1-0.3,0.1c-0.1,0-0.1,0-0.2-0.1c0,0-0.1-0.1-0.1-0.2c0-0.2,0-0.5,0.1-0.9c0-0.2,0.1-0.4,0.1-0.6   C75.6,103.3,75.6,103.2,75.6,103"
   id="path150" />
	<path
   class="st3"
   d="M82.5,106.7c0-0.1,0-0.1,0-0.2c0,0,0-0.1,0-0.2c0,0,0.1,0,0.2-0.1c0.3-0.1,0.5-0.2,0.8-0.2   c0.5,0,1,0.2,1.3,0.6c0.4,0.4,0.5,0.9,0.5,1.6c0,0.7-0.2,1.3-0.7,1.8c-0.4,0.4-1.1,0.7-1.8,0.7c-0.3,0-0.7-0.1-0.9-0.2   c-0.3-0.1-0.5-0.3-0.7-0.6c-0.2-0.3-0.4-0.5-0.5-0.8c-0.2-0.5-0.3-1-0.3-1.5c0-0.5,0.1-1,0.2-1.5c0.2-0.5,0.4-1,0.7-1.4   c0.3-0.4,0.7-0.7,1.1-1c0.4-0.3,0.8-0.4,1.1-0.6c0.6-0.2,1.1-0.3,1.4-0.3c0.1,0,0.1,0,0.1,0.1c0,0,0.1,0.1,0.1,0.2   c0,0.1,0,0.2,0,0.2c-0.1,0-0.2,0.1-0.5,0.1c-0.5,0.1-0.9,0.3-1.3,0.6c-0.4,0.3-0.6,0.6-0.8,0.9c-0.2,0.4-0.4,0.9-0.5,1.4   c-0.1,0.5-0.1,1.1-0.1,1.6c0,0.6,0,1.1,0.1,1.4c0.1,0.4,0.2,0.6,0.4,0.8c0.1,0.1,0.3,0.2,0.5,0.2c0.1,0,0.2,0,0.3-0.1   c0.2-0.1,0.3-0.2,0.4-0.3c0.1-0.2,0.2-0.4,0.3-0.7c0-0.3,0.1-0.5,0.1-0.8c0-0.7-0.1-1.2-0.3-1.5c-0.2-0.3-0.4-0.4-0.7-0.4   C82.9,106.6,82.7,106.6,82.5,106.7"
   id="path152" />
	<path
   class="st0"
   d="M176.8,35.8c-1.5,0.1-2.1,0.5-2.2,1.5c-0.1,0.7-0.2,1.8-0.2,3.8v2.4c0,2.9-0.5,5-1.9,6.6   c-1.2,1.2-2.9,1.8-4.7,1.8c-1.6,0-3.2-0.4-4.4-1.3c-1.5-1.1-2.2-3-2.2-6.1v-6.1c0-2.4-0.2-2.5-2.2-2.7v-0.9h7.3v0.9   c-1.9,0.2-2.2,0.3-2.2,2.7v5.6c0,4,1.5,6.3,4.5,6.3c3.4,0,4.7-2.6,4.7-6.9v-2.3c0-2-0.1-3-0.2-3.8c-0.2-0.9-0.8-1.4-2.5-1.5v-0.9   h6.4V35.8z"
   id="path154" />
	<path
   class="st0"
   d="M204.9,35.8c-1.4,0.1-2,0.4-2.1,1.6c-0.1,0.8-0.2,2-0.2,4.3v10.2h-1.1l-11-13.1h-0.1v6c0,2.3,0.1,3.4,0.2,4.2   c0.1,1.2,0.6,1.6,2.5,1.7v0.8H187v-0.8c1.5-0.1,2.1-0.5,2.2-1.7c0.1-0.9,0.2-2,0.2-4.3v-5.4c0-1.7-0.1-2.1-0.5-2.7   c-0.5-0.6-1.1-0.8-2.2-0.9v-0.8h4.4l10.4,11.9h0.1v-5.2c0-2.3-0.1-3.5-0.2-4.2c-0.1-1.1-0.7-1.5-2.6-1.6v-0.8h6.2V35.8z"
   id="path156" />
	<path
   class="st0"
   d="M215.5,51.6v-0.8c2-0.2,2.2-0.4,2.2-2.5v-10c0-2.2-0.2-2.3-2.2-2.5v-0.9h7.4v0.9c-2,0.2-2.2,0.3-2.2,2.5v10   c0,2.2,0.2,2.3,2.2,2.5v0.8H215.5z"
   id="path158" />
	<path
   class="st0"
   d="M251.5,35.8c-1.7,0.2-2.2,0.5-3.2,2.8c-0.8,1.8-3.3,7.9-5.3,13.2H242c-1.8-4.7-4-10.5-5.3-13.7   c-0.8-1.9-1.2-2.2-2.8-2.4v-0.9h7.1v0.9c-1.9,0.3-1.9,0.5-1.5,1.6c0.7,2,2.7,7.1,4,10.3h0.1c1.4-3.6,2.9-7.4,3.6-9.7   c0.5-1.6,0.5-1.9-1.6-2.2v-0.9h6V35.8z"
   id="path160" />
	<path
   class="st0"
   d="M275.4,47.4c-0.2,1-0.7,3.4-0.9,4.2h-12.9v-0.8c2.3-0.2,2.5-0.4,2.5-2.5v-9.9c0-2.3-0.2-2.4-2.1-2.5v-0.8h11.9   c0,0.6,0.1,2.3,0.2,3.8l-0.9,0.1c-0.3-1-0.6-1.7-1-2.2c-0.4-0.5-1.1-0.7-2.7-0.7H268c-0.9,0-1,0.1-1,0.9v5.6h2c2.2,0,2.5-0.2,2.8-2   h0.9v5.1h-0.9c-0.3-1.8-0.6-2-2.8-2h-2v4.6c0,1.2,0.1,1.8,0.6,2.1c0.5,0.3,1.4,0.3,2.5,0.3c1.6,0,2.4-0.2,3-0.8   c0.5-0.5,1-1.4,1.4-2.5L275.4,47.4z"
   id="path162" />
	<path
   class="st0"
   d="M291.8,43.4c1.2,0,2.1-0.2,2.7-0.7c0.9-0.8,1.3-1.8,1.3-3.1c0-2.8-1.7-3.7-3.3-3.7c-0.7,0-1.1,0.1-1.3,0.3   c-0.2,0.2-0.3,0.4-0.3,1v6.2H291.8z M301.4,51.8c-0.2,0-0.5,0-0.8-0.1c-2.7-0.1-3.7-0.8-4.8-2.4c-0.8-1.2-1.5-2.6-2.3-3.9   c-0.5-0.7-0.9-1.1-2-1.1h-0.6v3.8c0,2.1,0.2,2.3,2.2,2.5v0.8h-7.4v-0.8c2-0.2,2.3-0.4,2.3-2.5v-10c0-2.1-0.2-2.3-2.2-2.4v-0.9h6.9   c2.1,0,3.4,0.2,4.4,0.9c1,0.7,1.7,1.8,1.7,3.4c0,2.2-1.4,3.5-3.2,4.2c0.4,0.8,1.4,2.5,2.2,3.6c0.9,1.4,1.5,2.2,2,2.8   c0.6,0.6,1.1,0.9,1.7,1.1L301.4,51.8z"
   id="path164" />
	<path
   class="st0"
   d="M320.7,39c-0.5-1.6-1.4-3.5-3.5-3.5c-1.7,0-2.7,1.2-2.7,2.6c0,1.6,1.1,2.4,3.3,3.5c2.4,1.2,4.5,2.5,4.5,5.2   c0,2.8-2.4,5.1-6.1,5.1c-1,0-1.9-0.2-2.6-0.4c-0.7-0.2-1.2-0.4-1.4-0.5c-0.2-0.6-0.6-2.8-0.7-4.2l0.8-0.3c0.5,1.6,1.8,4.4,4.4,4.4   c1.7,0,2.8-1.1,2.8-2.9c0-1.7-1.2-2.6-3.2-3.6c-2.2-1.2-4.4-2.5-4.4-5.1c0-2.7,2.1-4.8,5.6-4.8c1.5,0,2.8,0.4,3.5,0.6   c0.1,1,0.3,2,0.5,3.6L320.7,39z"
   id="path166" />
	<path
   class="st0"
   d="M332.9,51.6v-0.8c2-0.2,2.2-0.4,2.2-2.5v-10c0-2.2-0.2-2.3-2.2-2.5v-0.9h7.4v0.9c-2,0.2-2.2,0.3-2.2,2.5v10   c0,2.2,0.2,2.3,2.2,2.5v0.8H332.9z"
   id="path168" />
	<path
   class="st0"
   d="M356.5,48c0,1.9,0.6,2.5,2.5,2.5c4.1,0,6.4-3.1,6.4-7.4c0-2.5-0.9-4.6-2.4-5.8c-1.1-0.9-2.6-1.4-4.4-1.4   c-1,0-1.6,0.2-1.8,0.4c-0.2,0.2-0.3,0.6-0.3,1.5V48z M359.1,34.9c3.3,0,5.7,0.7,7.4,2.2c1.3,1.2,2.3,3,2.3,5.5   c0,3.1-1.3,5.3-3.2,6.8c-1.9,1.5-4.6,2.1-7.8,2.1h-6.5v-0.8c2.1-0.2,2.4-0.4,2.4-2.5v-10c0-2.2-0.3-2.3-2.1-2.5v-0.9H359.1z"
   id="path170" />
	<path
   class="st0"
   d="M386,38.6L386,38.6c-0.8,2-1.6,4-2.3,6h4.4L386,38.6z M388.4,51.6v-0.8c1.6-0.3,1.7-0.5,1.4-1.6   c-0.3-0.9-0.7-2.1-1.2-3.3h-5.2c-0.3,1-0.7,2-1,3c-0.5,1.4-0.3,1.7,1.6,1.9v0.8h-5.8l0-0.8c1.7-0.3,2-0.5,2.9-2.7l5.3-13.2l1.1-0.3   c1.6,4.5,3.3,9,5,13.5c0.8,2.2,1.2,2.5,2.8,2.7v0.8H388.4z"
   id="path172" />
	<path
   class="st0"
   d="M411,48c0,1.9,0.6,2.5,2.5,2.5c4.1,0,6.4-3.1,6.4-7.4c0-2.5-0.9-4.6-2.4-5.8c-1.1-0.9-2.6-1.4-4.4-1.4   c-1,0-1.6,0.2-1.8,0.4c-0.2,0.2-0.3,0.6-0.3,1.5V48z M413.6,34.9c3.3,0,5.7,0.7,7.4,2.2c1.3,1.2,2.3,3,2.3,5.5   c0,3.1-1.3,5.3-3.2,6.8c-1.9,1.5-4.6,2.1-7.8,2.1h-6.5v-0.8c2.1-0.2,2.4-0.4,2.4-2.5v-10c0-2.2-0.3-2.3-2.1-2.5v-0.9H413.6z"
   id="path174" />
	<path
   class="st0"
   d="M447.7,47.4c-0.2,1-0.7,3.4-0.9,4.2h-12.9v-0.8c2.3-0.2,2.5-0.4,2.5-2.5v-9.9c0-2.3-0.2-2.4-2.1-2.5v-0.8h11.9   c0,0.6,0.1,2.3,0.2,3.8l-0.9,0.1c-0.3-1-0.6-1.7-1-2.2c-0.4-0.5-1.1-0.7-2.7-0.7h-1.6c-0.9,0-1,0.1-1,0.9v5.6h2   c2.2,0,2.5-0.2,2.8-2h0.9v5.1h-0.9c-0.3-1.8-0.6-2-2.8-2h-2v4.6c0,1.2,0.1,1.8,0.6,2.1c0.5,0.3,1.4,0.3,2.5,0.3   c1.6,0,2.4-0.2,3-0.8c0.5-0.5,1-1.4,1.4-2.5L447.7,47.4z"
   id="path176" />
	<path
   class="st0"
   d="M192.9,71.1c-3.3,0.3-4.2,0.9-6.1,5.5c-1.5,3.5-6.4,15.3-10.2,25.5h-2.1c-3.4-9-7.8-20.3-10.3-26.3   c-1.5-3.7-2.3-4.3-5.3-4.6v-1.6h13.7v1.6c-3.6,0.5-3.6,1-2.8,3.1c1.4,3.8,5.2,13.6,7.7,19.8h0.1c2.7-7,5.5-14.3,6.9-18.7   c1-3.2,0.9-3.7-3.2-4.2v-1.6h11.5V71.1z"
   id="path178" />
	<path
   class="st0"
   d="M195.8,101.6V100c3.9-0.4,4.3-0.7,4.3-4.8V75.9c0-4.2-0.4-4.5-4.3-4.8v-1.6H210v1.6c-3.8,0.3-4.3,0.6-4.3,4.8   v19.2c0,4.2,0.4,4.5,4.3,4.8v1.6H195.8z"
   id="path180" />
	<path
   class="st0"
   d="M239.3,93.4c-0.3,1.9-1.4,6.7-1.8,8.2h-23.6V100c4.3-0.4,4.8-0.7,4.8-4.9V75.9c0-4.2-0.4-4.5-4.4-4.8v-1.6   h14.3v1.6c-3.8,0.3-4.3,0.5-4.3,4.8v19.3c0,2.5,0.2,3.3,1.2,3.8c0.9,0.4,2.4,0.5,4.1,0.5c2.4,0,4.2-0.3,5.3-1.5   c0.9-1,1.8-2.6,2.7-5L239.3,93.4z"
   id="path182" />
	<path
   class="st0"
   d="M257,76.6L257,76.6c-1.6,3.9-3,7.8-4.4,11.5h8.4L257,76.6z M261.5,101.6V100c3.1-0.5,3.3-1,2.7-3   c-0.6-1.7-1.4-4-2.4-6.5h-10c-0.6,1.8-1.3,3.8-1.9,5.7c-0.9,2.7-0.6,3.2,3.1,3.7v1.6h-11.1l0-1.6c3.2-0.5,3.9-0.9,5.6-5.2   l10.2-25.5l2.2-0.5c3.2,8.6,6.3,17.4,9.6,26c1.6,4.3,2.3,4.9,5.5,5.3v1.6H261.5z"
   id="path184" />
	<path
   class="st0"
   d="M316.6,71.1c-3.3,0.3-4.2,0.9-6.1,5.5c-1.5,3.5-6.4,15.3-10.2,25.5h-2.1c-3.4-9-7.8-20.3-10.3-26.3   c-1.5-3.7-2.3-4.3-5.3-4.6v-1.6h13.7v1.6c-3.6,0.5-3.6,1-2.8,3.1c1.4,3.8,5.2,13.6,7.7,19.8h0.1c2.7-7,5.5-14.3,6.9-18.7   c1-3.2,0.9-3.7-3.2-4.2v-1.6h11.5V71.1z"
   id="path186" />
	<path
   class="st0"
   d="M345.6,93.5c-0.3,2-1.4,6.5-1.7,8.1h-24.9V100c4.4-0.4,4.9-0.7,4.9-4.8V76c0-4.4-0.4-4.6-4.1-4.9v-1.6h23   c0.1,1.1,0.2,4.5,0.4,7.3l-1.7,0.2c-0.5-1.9-1.1-3.3-1.8-4.3c-0.8-1-2.1-1.3-5.2-1.3h-3.1c-1.7,0-1.8,0.1-1.8,1.6V84h3.9   c4.3,0,4.8-0.3,5.4-3.8h1.6V90h-1.6c-0.6-3.5-1.2-3.8-5.4-3.8h-3.9V95c0,2.3,0.2,3.5,1.2,4c0.9,0.5,2.7,0.5,4.8,0.5   c3.1,0,4.7-0.3,5.9-1.6c0.9-1,1.8-2.7,2.7-4.8L345.6,93.5z"
   id="path188" />
	<path
   class="st0"
   d="M373.6,93.4c-0.3,1.9-1.4,6.7-1.8,8.2h-23.6V100c4.3-0.4,4.8-0.7,4.8-4.9V75.9c0-4.2-0.4-4.5-4.4-4.8v-1.6   h14.3v1.6c-3.8,0.3-4.3,0.5-4.3,4.8v19.3c0,2.5,0.2,3.3,1.2,3.8c0.9,0.4,2.4,0.5,4.1,0.5c2.4,0,4.2-0.3,5.3-1.5   c0.9-1,1.8-2.6,2.7-5L373.6,93.4z"
   id="path190" />
	<path
   class="st0"
   d="M410.4,71.1c-4,0.3-4.3,0.6-4.3,4.8v19.3c0,4.1,0.4,4.4,4.3,4.8v1.6h-14.5V100c4.1-0.4,4.5-0.7,4.5-4.8v-9.5   h-15.2v9.5c0,4.1,0.4,4.4,4.2,4.8v1.6h-14.1V100c3.8-0.4,4.2-0.7,4.2-4.8V75.9c0-4.2-0.4-4.5-4.4-4.8v-1.6h14.1v1.6   c-3.7,0.3-4.1,0.6-4.1,4.8v7.5h15.2v-7.5c0-4.2-0.4-4.5-4.2-4.8v-1.6h14.2V71.1z"
   id="path192" />
	<path
   class="st0"
   d="M429.8,76.6L429.8,76.6c-1.6,3.9-3,7.8-4.4,11.5h8.4L429.8,76.6z M434.3,101.6V100c3.1-0.5,3.3-1,2.7-3   c-0.6-1.7-1.4-4-2.4-6.5h-10c-0.6,1.8-1.3,3.8-1.9,5.7c-0.9,2.7-0.6,3.2,3.1,3.7v1.6h-11.1l0-1.6c3.3-0.5,3.9-0.9,5.6-5.2   l10.2-25.5l2.2-0.5c3.2,8.6,6.3,17.4,9.6,26c1.6,4.3,2.3,4.9,5.5,5.3v1.6H434.3z"
   id="path194" />
	<path
   class="st0"
   d="M215,125.7c-0.1,0.5-0.3,1.7-0.4,2.1h-6.4v-0.4c1.1-0.1,1.2-0.2,1.2-1.2v-4.9c0-1.1-0.1-1.2-1.1-1.3v-0.4h5.9   c0,0.3,0.1,1.1,0.1,1.9l-0.4,0.1c-0.1-0.5-0.3-0.8-0.5-1.1c-0.2-0.2-0.5-0.3-1.3-0.3h-0.8c-0.4,0-0.5,0-0.5,0.4v2.8h1   c1.1,0,1.2-0.1,1.4-1h0.4v2.5h-0.4c-0.2-0.9-0.3-1-1.4-1h-1v2.3c0,0.6,0.1,0.9,0.3,1c0.2,0.1,0.7,0.1,1.2,0.1   c0.8,0,1.2-0.1,1.5-0.4c0.2-0.3,0.5-0.7,0.7-1.2L215,125.7z"
   id="path196" />
	<path
   class="st0"
   d="M227.1,121.5c-0.2-0.8-0.7-1.7-1.7-1.7c-0.8,0-1.3,0.6-1.3,1.3c0,0.8,0.5,1.2,1.6,1.7c1.2,0.6,2.2,1.2,2.2,2.6   c0,1.4-1.2,2.5-3,2.5c-0.5,0-0.9-0.1-1.3-0.2c-0.3-0.1-0.6-0.2-0.7-0.3c-0.1-0.3-0.3-1.4-0.4-2.1l0.4-0.1c0.2,0.8,0.9,2.2,2.2,2.2   c0.9,0,1.4-0.6,1.4-1.4c0-0.8-0.6-1.3-1.6-1.8c-1.1-0.6-2.2-1.2-2.2-2.5c0-1.3,1.1-2.4,2.8-2.4c0.7,0,1.4,0.2,1.7,0.3   c0,0.5,0.1,1,0.2,1.8L227.1,121.5z"
   id="path198" />
	<path
   class="st0"
   d="M238.1,123.8c0.1,0.1,0.4,0.1,0.8,0.1c0.6,0,1.6-0.4,1.6-2c0-1.4-0.8-1.9-1.7-1.9c-0.3,0-0.5,0.1-0.6,0.1   c-0.1,0.1-0.1,0.2-0.1,0.5V123.8z M239.1,119.5c1,0,1.7,0.1,2.2,0.5c0.6,0.4,0.9,1,0.9,1.8c0,1.7-1.2,2.5-2.5,2.6   c-0.2,0-0.4,0-0.5,0l-0.9-0.2v1.8c0,1.1,0.1,1.1,1.2,1.2v0.4h-3.8v-0.4c1-0.1,1.1-0.2,1.1-1.2v-4.9c0-1.1-0.1-1.2-1-1.2v-0.4H239.1   z"
   id="path200" />
	<path
   class="st0"
   d="M253.6,118.3l-2.5,0.8l-0.2-0.3c0.7-0.5,1.5-1,2.1-1.4c0.2,0.1,0.6,0.6,0.6,0.9L253.6,118.3z M249.9,127.7   v-0.4c1-0.1,1.1-0.2,1.1-1.2v-4.9c0-1.1-0.1-1.2-1.1-1.2v-0.4h3.6v0.4c-1,0.1-1.1,0.1-1.1,1.2v4.9c0,1.1,0.1,1.1,1.1,1.2v0.4H249.9   z"
   id="path202" />
	<path
   class="st0"
   d="M264.4,123.7c0.6,0,1-0.1,1.3-0.3c0.4-0.4,0.6-0.9,0.6-1.5c0-1.4-0.8-1.8-1.6-1.8c-0.3,0-0.5,0-0.6,0.1   c-0.1,0.1-0.1,0.2-0.1,0.5v3.1H264.4z M269.2,127.8c-0.1,0-0.3,0-0.4,0c-1.3,0-1.8-0.4-2.4-1.2c-0.4-0.6-0.8-1.3-1.1-1.9   c-0.2-0.4-0.4-0.5-1-0.5H264v1.9c0,1.1,0.1,1.2,1.1,1.3v0.4h-3.6v-0.4c1-0.1,1.1-0.2,1.1-1.3v-4.9c0-1-0.1-1.1-1.1-1.2v-0.4h3.4   c1,0,1.7,0.1,2.2,0.5c0.5,0.3,0.8,0.9,0.8,1.7c0,1.1-0.7,1.7-1.6,2.1c0.2,0.4,0.7,1.2,1.1,1.8c0.4,0.7,0.7,1.1,1,1.4   c0.3,0.3,0.5,0.5,0.8,0.6L269.2,127.8z"
   id="path204" />
	<path
   class="st0"
   d="M276.6,127.7v-0.4c1-0.1,1.1-0.2,1.1-1.2v-4.9c0-1.1-0.1-1.2-1.1-1.2v-0.4h3.6v0.4c-1,0.1-1.1,0.1-1.1,1.2v4.9   c0,1.1,0.1,1.1,1.1,1.2v0.4H276.6z"
   id="path206" />
	<path
   class="st0"
   d="M295,121.6c-0.1-0.6-0.3-1-0.5-1.3c-0.2-0.2-0.5-0.3-1.3-0.3h-0.7v6c0,1,0.1,1.1,1.3,1.2v0.4h-3.9v-0.4   c1.1-0.1,1.2-0.2,1.2-1.2v-6h-0.6c-1.1,0-1.3,0.1-1.5,0.4c-0.2,0.2-0.3,0.6-0.5,1.2H288c0.1-0.9,0.1-1.7,0.2-2.4h0.3   c0.2,0.3,0.4,0.3,0.7,0.3h5.1c0.3,0,0.5-0.1,0.7-0.3h0.3c0,0.6,0.1,1.6,0.1,2.4L295,121.6z"
   id="path208" />
	<path
   class="st0"
   d="M307.2,119.8c-1.4,0-2.5,1.3-2.5,3.5c0,2.2,1.1,4,2.8,4c1.3,0,2.4-1.2,2.4-3.5   C310,121.3,308.8,119.8,307.2,119.8L307.2,119.8z M307.5,119.3c2.3,0,4.2,1.7,4.2,4.2c0,2.7-2,4.4-4.4,4.4c-2.5,0-4.3-1.8-4.3-4.2   C303,121.5,304.6,119.3,307.5,119.3L307.5,119.3z"
   id="path210" />
	<path
   class="st0"
   d="M334,121.5c-0.2-0.8-0.7-1.7-1.7-1.7c-0.8,0-1.3,0.6-1.3,1.3c0,0.8,0.5,1.2,1.6,1.7c1.2,0.6,2.2,1.2,2.2,2.6   c0,1.4-1.2,2.5-3,2.5c-0.5,0-0.9-0.1-1.3-0.2c-0.3-0.1-0.6-0.2-0.7-0.3c-0.1-0.3-0.3-1.4-0.4-2.1l0.4-0.1c0.2,0.8,0.9,2.2,2.2,2.2   c0.9,0,1.4-0.6,1.4-1.4c0-0.8-0.6-1.3-1.6-1.8c-1.1-0.6-2.2-1.2-2.2-2.5c0-1.3,1.1-2.4,2.8-2.4c0.7,0,1.4,0.2,1.7,0.3   c0.1,0.5,0.1,1,0.2,1.8L334,121.5z"
   id="path212" />
	<path
   class="st0"
   d="M346.2,121.3L346.2,121.3c-0.4,1-0.8,2-1.1,2.9h2.1L346.2,121.3z M347.4,127.7v-0.4c0.8-0.1,0.9-0.3,0.7-0.8   c-0.1-0.4-0.4-1-0.6-1.6h-2.6c-0.2,0.5-0.3,1-0.5,1.5c-0.2,0.7-0.1,0.8,0.8,1v0.4h-2.8l0-0.4c0.8-0.1,1-0.2,1.4-1.3l2.6-6.5   l0.6-0.1c0.8,2.2,1.6,4.4,2.4,6.6c0.4,1.1,0.6,1.2,1.4,1.4v0.4H347.4z"
   id="path214" />
	<path
   class="st0"
   d="M367.2,119.9c-0.7,0-1,0.2-1,0.8c0,0.4-0.1,1-0.1,2.1v5h-0.5l-5.4-6.4h0v3c0,1.1,0.1,1.7,0.1,2.1   c0.1,0.6,0.3,0.8,1.2,0.9v0.4h-3.1v-0.4c0.7-0.1,1-0.2,1.1-0.8c0.1-0.4,0.1-1,0.1-2.1v-2.7c0-0.9,0-1-0.3-1.3   c-0.3-0.3-0.5-0.4-1.1-0.5v-0.4h2.2l5.1,5.9h0v-2.6c0-1.1,0-1.7-0.1-2.1c-0.1-0.6-0.3-0.8-1.3-0.8v-0.4h3.1V119.9z"
   id="path216" />
	<path
   class="st0"
   d="M381.8,121.6c-0.1-0.6-0.3-1-0.5-1.3c-0.2-0.2-0.5-0.3-1.3-0.3h-0.7v6c0,1,0.1,1.1,1.3,1.2v0.4h-3.9v-0.4   c1.1-0.1,1.2-0.2,1.2-1.2v-6h-0.6c-1.1,0-1.3,0.1-1.5,0.4c-0.2,0.2-0.3,0.6-0.5,1.2h-0.4c0.1-0.9,0.1-1.7,0.2-2.4h0.3   c0.2,0.3,0.4,0.3,0.7,0.3h5.1c0.3,0,0.5-0.1,0.7-0.3h0.3c0,0.6,0.1,1.6,0.1,2.4L381.8,121.6z"
   id="path218" />
	<path
   class="st0"
   d="M394,119.8c-1.4,0-2.5,1.3-2.5,3.5c0,2.2,1.1,4,2.8,4c1.3,0,2.4-1.2,2.4-3.5   C396.7,121.3,395.5,119.8,394,119.8L394,119.8z M394.2,119.3c2.3,0,4.2,1.7,4.2,4.2c0,2.7-2,4.4-4.4,4.4c-2.5,0-4.3-1.8-4.3-4.2   C389.8,121.5,391.4,119.3,394.2,119.3L394.2,119.3z"
   id="path220" />
	<path
   class="st4"
   d="M447,59.8H159.6c-0.4,0-0.7,0.3-0.7,0.7c0,0.4,0.3,0.7,0.7,0.7H447c0.4,0,0.7-0.3,0.7-0.7   C447.8,60.2,447.4,59.8,447,59.8"
   id="path222" />
	<path
   class="st4"
   d="M447,109.8H159.6c-0.4,0-0.7,0.3-0.7,0.7c0,0.4,0.3,0.7,0.7,0.7H447c0.4,0,0.7-0.3,0.7-0.7   C447.8,110.2,447.4,109.8,447,109.8"
   id="path224" />
</g>
</svg>