<?xml version="1.0" encoding="UTF-8" standalone="no"?>
<svg
   xmlns:dc="http://purl.org/dc/elements/1.1/"
   xmlns:cc="http://creativecommons.org/ns#"
   xmlns:rdf="http://www.w3.org/1999/02/22-rdf-syntax-ns#"
   xmlns:svg="http://www.w3.org/2000/svg"
   xmlns="http://www.w3.org/2000/svg"
   xmlns:xlink="http://www.w3.org/1999/xlink"
   id="svg226"
   xml:space="preserve"
   viewBox="0 0 454 146.6"
   version="1.1"
   enable-background="new 0 0 454 146.6"><metadata
   id="metadata2"><rdf:RDF><cc:Work
       rdf:about=""><dc:format>image/svg+xml</dc:format><dc:type
         rdf:resource="http://purl.org/dc/dcmitype/StillImage" /><dc:title></dc:title></cc:Work></rdf:RDF></metadata>
<style
   id="style4"
   type="text/css">
	.st0{fill:#2F2B62;}
	.st1{fill:#E3B42C;}
	.st2{clip-path:url(#SVGID_2_);fill:#FFFFFF;}
	.st3{fill:#FFFFFF;}
	.st4{fill:#E5B52C;}
</style>

	<path
   id="path6"
   d="m140 78.6c-0.1-0.1-0.1-0.3 0-0.4l3.3-2.4c0.2-0.1 0.2-0.3 0-0.4l-3.2-2.6c-0.1-0.1-0.2-0.3 0-0.5l3.1-2.7c0.1-0.1 0.1-0.3 0-0.4l-3.4-2.3c-0.2-0.1-0.2-0.3 0-0.4l2.8-2.9c0.1-0.1 0.1-0.3-0.1-0.4l-3.6-2c-0.2-0.1-0.2-0.3-0.1-0.4l2.6-3.2c0.1-0.1 0.1-0.3-0.1-0.4l-3.7-1.7c-0.2-0.1-0.2-0.3-0.1-0.4l2.3-3.4c0.1-0.2 0-0.3-0.1-0.4l-3.9-1.3c-0.2-0.1-0.3-0.3-0.2-0.4l2-3.6c0.1-0.2 0-0.3-0.2-0.4l-4-1c-0.2 0-0.3-0.2-0.2-0.4l1.6-3.7c0.1-0.2 0-0.3-0.2-0.4l-4-0.6c-0.2 0-0.3-0.2-0.2-0.4l1.3-3.9c0.1-0.2 0-0.3-0.2-0.4l-4.1-0.2c-0.2 0-0.3-0.2-0.3-0.4l0.9-4c0-0.2-0.1-0.3-0.3-0.3l-4.1 0.1c-0.2 0-0.3-0.1-0.3-0.3l0.6-4c0-0.2-0.1-0.3-0.3-0.3l-4.1 0.5c-0.2 0-0.3-0.1-0.3-0.3l0.2-4.1c0-0.2-0.1-0.3-0.3-0.3l-4 0.8c-0.2 0-0.3-0.1-0.4-0.3l-0.2-4.1c0-0.2-0.2-0.3-0.3-0.2l-3.9 1.2c-0.2 0.1-0.4-0.1-0.4-0.2l-0.5-4.1c0-0.2-0.2-0.3-0.4-0.2l-3.8 1.5c-0.2 0.1-0.4 0-0.4-0.2l-0.9-4c0-0.2-0.2-0.3-0.4-0.2l-3.6 1.9c-0.2 0.1-0.4 0-0.4-0.2l-1.2-3.9c-0.1-0.2-0.2-0.2-0.4-0.1l-3.4 2.2c-0.2 0.1-0.4 0-0.4-0.1l-1.6-4c-0.1-0.2-0.3-0.2-0.4-0.1l-3.2 2.5c-0.2 0.1-0.4 0.1-0.4-0.1l-1.9-3.6c-0.1-0.2-0.3-0.2-0.4-0.1l-3 2.8c-0.1 0.1-0.3 0.1-0.4-0.1l-2.2-3.4c-0.1-0.2-0.3-0.2-0.4 0l-2.7 3c-0.1 0.1-0.3 0.1-0.5 0l-2.5-3.2c-0.1-0.2-0.3-0.1-0.4 0l-2.7 3.3c-0.1 0.2-0.3 0.2-0.4 0l-2.8-3c-0.1-0.1-0.3-0.1-0.4 0l-2.2 3.5c-0.1 0.2-0.3 0.2-0.4 0.1l-3.2-2.7c-0.1-0.1-0.3-0.1-0.4 0.1l-1.8 3.7c-0.1 0.2-0.3 0.2-0.4 0.1l-3.3-2.4c-0.2-0.1-0.3-0.1-0.4 0.1l-1.5 3.8c-0.1 0.2-0.3 0.2-0.4 0.1l-3.5-2.1c-0.2-0.1-0.3 0-0.4 0.2l-1.2 3.9c-0.1 0.2-0.2 0.3-0.4 0.2l-3.7-1.8c-0.2-0.1-0.3 0-0.4 0.2l-0.8 4c0 0.2-0.2 0.3-0.4 0.2l-3.8-1.5c-0.2-0.1-0.3 0-0.4 0.2l-0.4 4.1c0 0.2-0.2 0.3-0.4 0.3l-3.9-1.1c-0.2-0.1-0.3 0.1-0.3 0.3l-0.1 4.1c0 0.2-0.2 0.3-0.3 0.3l-4-0.8c-0.2 0-0.3 0.1-0.3 0.3l0.3 4.1c0 0.2-0.1 0.3-0.3 0.3l-4.1-0.4c-0.2 0-0.3 0.1-0.3 0.3l0.7 4c0 0.2-0.1 0.3-0.3 0.3h-4.1c-0.2 0-0.3 0.2-0.3 0.3l1 4c0 0.2-0.1 0.4-0.3 0.4l-4.1 0.3c-0.2 0-0.3 0.2-0.2 0.4l1.4 3.9c0.1 0.2 0 0.4-0.2 0.4l-4 0.7c-0.2 0-0.3 0.2-0.2 0.4l1.7 3.7c0.1 0.2 0 0.4-0.2 0.4l-3.9 1.1c-0.2 0-0.3 0.2-0.2 0.4l2 3.5c0.1 0.2 0 0.4-0.2 0.4l-3.8 1.4c-0.2 0.1-0.2 0.3-0.1 0.4l2.3 3.3c0.1 0.2 0.1 0.4-0.1 0.4l-3.7 1.8c-0.2 0.1-0.2 0.3-0.1 0.4l2.6 3.1c0.1 0.1 0.1 0.3-0.1 0.4l-3.5 2.1c-0.2 0.1-0.2 0.3-0.1 0.4l2.9 2.9c0.1 0.1 0.1 0.3 0 0.4l-3.3 2.4c-0.2 0.1-0.2 0.3 0 0.4l3.2 2.6c0.1 0.1 0.2 0.3 0 0.5l-3.1 2.7c-0.1 0.1-0.1 0.3 0 0.4l3.4 2.3c0.2 0.1 0.2 0.3 0 0.4l-2.8 3c-0.1 0.1-0.1 0.3 0.1 0.4l3.6 2c0.2 0.1 0.2 0.3 0.1 0.4l-2.6 3.2c-0.1 0.1-0.1 0.3 0.1 0.4l3.7 1.7c0.2 0.1 0.2 0.3 0.1 0.4l-2.3 3.5c-0.1 0.2 0 0.3 0.1 0.4l3.9 1.3c0.2 0.1 0.3 0.3 0.2 0.4l-2 3.6c-0.1 0.2 0 0.3 0.2 0.4l4 1c0.2 0 0.3 0.2 0.2 0.4l-1.6 3.8c-0.1 0.2 0 0.3 0.2 0.4l4 0.6c0.2 0 0.3 0.2 0.2 0.4l-1.3 3.9c-0.1 0.2 0 0.3 0.2 0.4l4.1 0.3c0.2 0 0.3 0.2 0.3 0.4l-0.9 4c0 0.2 0.1 0.3 0.3 0.3l4.1-0.1c0.2 0 0.3 0.1 0.3 0.3l-0.6 4c0 0.2 0.1 0.3 0.3 0.3l4.1-0.5c0.2 0 0.3 0.1 0.3 0.3l-0.2 4.1c0 0.2 0.1 0.3 0.3 0.3l4-0.8c0.2 0 0.3 0.1 0.4 0.3l0.2 4.1c0 0.2 0.2 0.3 0.3 0.2l3.9-1.2c0.2-0.1 0.4 0.1 0.4 0.2l0.5 4.1c0 0.2 0.2 0.3 0.4 0.2l3.8-1.5c0.2-0.1 0.4 0 0.4 0.2l0.9 4c0 0.2 0.2 0.3 0.4 0.2l3.6-1.9c0.2-0.1 0.4 0 0.4 0.2l1.2 3.9c0.1 0.2 0.2 0.2 0.4 0.1l3.4-2.2c0.2-0.1 0.4 0 0.4 0.1l1.6 3.8c0.1 0.2 0.3 0.2 0.4 0.1l3.2-2.5c0.2-0.1 0.4-0.1 0.4 0.1l1.9 3.6c0.1 0.2 0.3 0.2 0.4 0.1l3-2.8c0.1-0.1 0.3-0.1 0.4 0.1l2.2 3.4c0.1 0.2 0.3 0.2 0.4 0l2.7-3c0.1-0.1 0.3-0.1 0.5 0l2.5 3.2c0.1 0.2 0.3 0.1 0.4 0l2.5-3.3c0.1-0.2 0.3-0.2 0.5 0l2.8 3c0.1 0.1 0.3 0.1 0.4 0l2.2-3.5c0.1-0.2 0.3-0.2 0.4-0.1l3.1 2.7c0.1 0.1 0.3 0.1 0.4-0.1l1.8-3.7c0.1-0.2 0.3-0.2 0.4-0.1l3.3 2.4c0.2 0.1 0.3 0.1 0.4-0.1l1.5-3.8c0.1-0.2 0.3-0.2 0.4-0.1l3.5 2.1c0.2 0.1 0.3 0 0.4-0.2l1.1-3.9c0.1-0.2 0.2-0.3 0.4-0.2l3.7 1.8c0.2 0.1 0.3 0 0.4-0.2l0.8-4c0-0.2 0.2-0.3 0.4-0.2l3.8 1.5c0.2 0.1 0.3 0 0.4-0.2l0.4-4.1c0-0.2 0.2-0.3 0.4-0.3l3.9 1.1c0.2 0.1 0.3-0.1 0.3-0.3l0.1-4.1c0-0.2 0.2-0.3 0.3-0.3l4 0.8c0.2 0 0.3-0.1 0.3-0.3l-0.3-4.1c0-0.2 0.1-0.3 0.3-0.3l4.1 0.4c0.2 0 0.3-0.1 0.3-0.3l-0.7-4c0-0.2 0.1-0.3 0.3-0.3h4.1c0.2 0 0.3-0.2 0.3-0.3l-1-4c0-0.2 0.1-0.4 0.3-0.4l4.1-0.3c0.2 0 0.3-0.2 0.2-0.4l-1.4-3.8c-0.1-0.2 0-0.4 0.2-0.4l4-0.7c0.2 0 0.3-0.2 0.2-0.4l-1.7-3.7c-0.1-0.2 0-0.4 0.2-0.4l3.9-1.1c0.2-0.1 0.3-0.2 0.2-0.4l-2-3.5c-0.1-0.2 0-0.4 0.2-0.4l3.8-1.4c0.2-0.1 0.2-0.2 0.1-0.4l-2.4-3.3c-0.1-0.2-0.1-0.4 0.1-0.4l3.7-1.8c0.2-0.1 0.2-0.3 0.1-0.4l-2.6-3.1c-0.1-0.1-0.1-0.3 0.1-0.4l3.5-2.1c0.2-0.1 0.2-0.3 0.1-0.4l-2.5-3.2z"
   class="st0" />
	<path
   id="path8"
   d="m74.9 134.4c-33.8 0-61.1-27.4-61.1-61.1 0-33.8 27.4-61.1 61.1-61.1 33.8 0 61.1 27.4 61.1 61.1s-27.4 61.1-61.1 61.1"
   class="st1" />
	<path
   id="path10"
   d="m25.2 85.8c0.4-0.1 0.7-0.2 1-0.3s0.5-0.3 0.7-0.4c0.2-0.2 0.3-0.4 0.3-0.6 0.1-0.2 0-0.5 0-0.8-0.2-0.7-0.5-1.1-1-1.3-0.3-0.1-0.6-0.1-0.9-0.1s-0.7 0.1-1.2 0.2l-1.6 0.4c-0.8 0.2-1.5 0.4-1.9 0.5-0.5 0.1-0.8 0.3-0.9 0.4 0 0.1-0.1 0.1-0.1 0.2v0.2 0.2c0 0.1-0.1 0.1-0.2 0.1-0.2 0-0.3-0.1-0.3-0.3 0-0.1 0-0.2-0.1-0.4 0-0.2-0.1-0.3-0.1-0.6 0-0.2-0.1-0.3-0.1-0.5-0.1-0.1-0.1-0.3-0.1-0.4v-0.3c0-0.1 0.1-0.1 0.2-0.1h0.2s0.1 0.1 0.1 0.2 0 0.2 0.1 0.2c0 0.1 0.1 0.1 0.2 0.2 0.2 0.1 0.5 0.1 1 0s1.1-0.2 2-0.4l1.5-0.1c0.5-0.1 1-0.2 1.3-0.3 0.4-0.1 0.7 0 1.1 0.1s0.7 0.4 0.9 0.7c0.3 0.3 0.4 0.8 0.6 1.3 0.1 0.6 0.2 1.1 0.1 1.5s-0.2 0.8-0.5 1.1c-0.2 0.2-0.5 0.4-0.8 0.5s-0.7 0.2-1.1 0.3l-4.4 1c-0.2 0-0.3 0.1-0.4 0.2s-0.1 0.2-0.1 0.3v0.3c0 0.1-0.1 0.1-0.2 0.2-0.2 0-0.3 0-0.3-0.2 0-0.1 0-0.2-0.1-0.4 0-0.2-0.1-0.6-0.2-1s-0.2-0.7-0.3-0.9-0.1-0.4-0.1-0.4c0-0.2 0-0.3 0.2-0.3h0.2s0.1 0.1 0.1 0.3c0.1 0.2 0.2 0.3 0.3 0.4s0.3 0.1 0.5 0l4.4-0.9z"
   class="st0" />
	<path
   id="path12"
   d="m26.1 71.8c0.4 0 0.6 0.1 0.6 0.3 0 0.1 0 0.2-0.1 0.3s-0.2 0.2-0.4 0.3l-6.2 4.2c0.1 0 0 0.1 0 0.1h0.2l4.4-0.1c0.4 0 0.7 0 0.9-0.1 0.2 0 0.3-0.2 0.4-0.3 0-0.1 0.1-0.2 0.1-0.3v-0.2-0.2s0.1-0.1 0.2-0.1c0.2 0 0.3 0.1 0.3 0.3v0.4 0.6c0 0.2 0 0.4 0.1 0.6v0.3c0 0.2-0.1 0.3-0.3 0.3h-0.2l-0.1-0.1v-0.2c0-0.1 0-0.2-0.1-0.2-0.1-0.1-0.2-0.2-0.4-0.3-0.2 0-0.5-0.1-1 0l-4.8 0.1c-0.3 0-0.5 0-0.7 0.1-0.2 0-0.3 0.1-0.3 0.2v0.2 0.2c0 0.1 0 0.1-0.1 0.1 0 0-0.1 0.1-0.2 0.1-0.2 0-0.3-0.1-0.3-0.2v-0.3-0.9-0.6-0.3-0.2l0.2-0.2 4.5-3.1 0.1-0.1c0-0.1-0.1-0.1-0.2-0.1l-2.7 0.1c-0.4 0-0.7 0-0.9 0.1s-0.3 0.2-0.4 0.3c0 0.1-0.1 0.2-0.1 0.3v0.2c0 0.1 0 0.1-0.1 0.2 0 0-0.1 0.1-0.2 0.1-0.2 0-0.3-0.1-0.3-0.3v-0.3-0.2-0.1-0.3-0.3-0.1-0.2-0.3c0-0.2 0.1-0.3 0.3-0.3h0.1s0 0.1 0.1 0.1v0.2c0 0.1 0 0.2 0.1 0.2 0.1 0.1 0.2 0.2 0.4 0.3 0.2 0 0.5 0.1 1 0l6.1-0.3z"
   class="st0" />
	<path
   id="path14"
   d="m25.9 65.9h0.4c0.1-0.1 0.2-0.2 0.2-0.3s0.1-0.3 0.1-0.3c0-0.1 0.1-0.1 0.2-0.1 0.2 0 0.3 0.1 0.3 0.3 0 0.1 0 0.2-0.1 0.4s-0.1 0.6-0.2 1-0.1 0.8-0.1 1v0.5c0 0.2-0.1 0.2-0.3 0.2-0.1 0-0.2-0.1-0.2-0.1v-0.3c0-0.2-0.1-0.3-0.1-0.4-0.1-0.1-0.2-0.1-0.4-0.2l-6-0.8h-0.4c-0.1 0-0.2 0.1-0.2 0.3 0 0.1-0.1 0.2-0.1 0.3s-0.1 0.1-0.2 0.1c-0.2 0-0.3-0.1-0.2-0.3 0-0.1 0-0.2 0.1-0.4s0.1-0.6 0.2-1 0.1-0.8 0.1-1v-0.4c0-0.2 0.1-0.2 0.3-0.2 0.1 0 0.2 0 0.2 0.1v0.3c0 0.2 0 0.3 0.1 0.4s0.2 0.1 0.5 0.2l5.8 0.7z"
   class="st0" />
	<path
   id="path16"
   d="m25.7 58.5c0.1 0 0.1 0 0.1-0.1s0-0.1-0.1-0.1l-3.2-2.2c-0.2-0.1-0.3-0.2-0.4-0.2-0.1-0.1-0.2-0.1-0.3-0.1h-0.3l-0.2 0.2c-0.1 0.1-0.1 0.2-0.2 0.2-0.1 0.1-0.1 0.1-0.3 0.1s-0.2-0.2-0.2-0.4c0-0.1 0.1-0.2 0.1-0.3 0.1-0.1 0.1-0.3 0.2-0.5s0.1-0.3 0.1-0.5c0-0.1 0-0.3 0.1-0.3 0.1-0.2 0.2-0.3 0.3-0.2 0.1 0 0.1 0.1 0.2 0.1 0 0 0 0.1 0.1 0.2v0.2c0 0.1 0 0.1 0.1 0.2 0.1 0.2 0.2 0.3 0.5 0.5 0.2 0.2 0.6 0.4 1 0.7l3.4 2.4 0.9 0.6c0.2 0.2 0.4 0.3 0.6 0.4s0.3 0.2 0.3 0.3c0.1 0.1 0.1 0.2 0.1 0.3s-0.1 0.2-0.2 0.2-0.2 0.1-0.4 0.1h-0.6-0.9l-5 0.2h-0.9c-0.2 0-0.4 0.1-0.5 0.1s-0.1 0.1-0.2 0.1c0 0.1-0.1 0.1-0.1 0.1l-0.1 0.1h-0.2c-0.1 0-0.1-0.1-0.2-0.1v-0.2c0-0.1 0.1-0.2 0.2-0.4s0.2-0.5 0.3-0.9 0.2-0.7 0.2-0.9 0.1-0.4 0.1-0.5c0.1-0.2 0.2-0.2 0.3-0.2s0.2 0.1 0.2 0.2v0.3 0.3c0 0.1 0.1 0.1 0.1 0.2h0.1 0.1l4.8-0.2z"
   class="st0" />
	<path
   id="path18"
   d="m26.4 46.8c0.1 0.1 0.2 0.1 0.3 0.2 0.1 0 0.1 0.1 0 0.2s-0.2 0.2-0.3 0.2c-0.2 0-0.4 0-0.7 0.1-0.4 0.1-0.7 0.3-1 0.8-0.2 0.3-0.2 0.6-0.2 0.8 0.1 0.2 0.2 0.3 0.4 0.4l1.7 0.8c0.1 0.1 0.2 0.1 0.3 0s0.2-0.2 0.3-0.4 0.2-0.4 0.2-0.6 0-0.3-0.1-0.4l-0.3-0.3c-0.1-0.1-0.2-0.1-0.2-0.2-0.1-0.1-0.1-0.1-0.1-0.2v-0.2c0-0.1 0.1-0.1 0.1-0.1h0.2s0.1 0.1 0.3 0.2c0.1 0.1 0.4 0.2 0.6 0.3 0.3 0.1 0.6 0.3 0.8 0.4s0.4 0.2 0.5 0.2c0.2 0.1 0.2 0.2 0.2 0.3-0.1 0.1-0.2 0.2-0.3 0.1h-0.5c-0.2 0-0.4 0-0.6 0.1-0.1 0.1-0.3 0.2-0.4 0.5 0 0 0 0.1-0.1 0.1 0 0 0 0.1-0.1 0.2v0.1c0 0.1 0 0.2 0.1 0.2l1.9 0.9c0.2 0.1 0.4 0.2 0.5 0.2 0.2 0.1 0.3 0.1 0.4 0.1s0.2-0.1 0.4-0.2c0.1-0.1 0.2-0.3 0.3-0.5s0.2-0.5 0.2-0.7c0-0.3-0.1-0.5-0.2-0.7s-0.2-0.3-0.3-0.4-0.2-0.2-0.2-0.3c-0.1-0.1-0.1-0.2-0.1-0.2v-0.2c0.1-0.2 0.2-0.2 0.5 0 0.1 0.1 0.2 0.1 0.3 0.2l0.9 0.6 0.2 0.2v0.3c0 0.1-0.2 0.4-0.5 0.8-0.3 0.5-0.6 1.1-1.1 2-0.3 0.5-0.4 0.9-0.5 1.3-0.1 0.3-0.2 0.5-0.2 0.6-0.1 0.2-0.2 0.2-0.4 0.1-0.1 0-0.1-0.1-0.1-0.2s0-0.2 0.1-0.3c0.1-0.2 0.1-0.3 0-0.5 0-0.1-0.2-0.2-0.4-0.3l-5.2-2.5c-0.2-0.1-0.3-0.1-0.4-0.1s-0.2 0.1-0.3 0.2-0.2 0.3-0.2 0.3c-0.1 0.1-0.1 0.1-0.2 0-0.2-0.1-0.2-0.2-0.1-0.4 0 0 0.1-0.2 0.3-0.5s0.4-0.8 0.7-1.4c0.3-0.7 0.6-1.3 0.8-1.7 0.2-0.5 0.3-0.8 0.4-0.9s0.1-0.2 0.2-0.2h0.2l1 0.6z"
   class="st0" />
	<path
   id="path20"
   d="m33.5 41.1h0.7l2.5 0.5c0.2 0 0.3 0.1 0.5 0 0.1 0 0.2-0.1 0.3-0.1s0.2-0.1 0.2-0.1h0.2c0.1 0 0.1 0.1 0.1 0.2v0.2c0 0.1-0.1 0.1-0.2 0.2l-0.4 0.4c-0.1 0.1-0.2 0.3-0.3 0.4s-0.2 0.3-0.2 0.4c-0.1 0.1-0.1 0.2-0.2 0.2s-0.2 0-0.4-0.1l-2.9-0.7c-0.6-0.2-1-0.1-1.1 0.1l-0.1 0.1c-0.1 0.1 0 0.2 0.1 0.2l2.2 1.6c0.2 0.1 0.3 0.2 0.4 0.2s0.2 0 0.3-0.2l0.2-0.2h0.2c0.2 0.1 0.2 0.2 0.1 0.4 0 0-0.1 0.2-0.3 0.3-0.2 0.2-0.4 0.4-0.6 0.8-0.3 0.4-0.4 0.6-0.6 0.8-0.1 0.2-0.2 0.3-0.2 0.4-0.1 0.1-0.2 0.1-0.4 0-0.1-0.1-0.1-0.1-0.1-0.2s0-0.2 0.1-0.3c0.1-0.2 0.1-0.3 0.1-0.4s-0.1-0.2-0.3-0.3l-4.9-3.5c-0.2-0.1-0.3-0.2-0.4-0.2s-0.2 0-0.3 0.1-0.2 0.2-0.3 0.2c-0.1 0.1-0.1 0-0.2 0-0.2-0.1-0.2-0.3 0-0.5 0.1-0.1 0.1-0.2 0.2-0.3s0.2-0.2 0.3-0.4c0.3-0.4 0.6-0.8 0.8-1.2s0.4-0.7 0.6-0.9c0.5-0.6 1-1 1.5-1.1s1 0 1.6 0.4c0.4 0.3 0.7 0.7 0.8 1.2s0 1-0.3 1.6c0.3-0.1 0.5-0.2 0.7-0.2m-2.3 1.2c0.2 0.1 0.3 0.2 0.4 0.2s0.2 0 0.3-0.2c0.3-0.4 0.4-0.7 0.3-1.1s-0.3-0.7-0.7-1l-0.6-0.3c-0.2-0.1-0.4-0.1-0.6-0.1s-0.4 0-0.5 0.1c-0.2 0.1-0.3 0.2-0.4 0.3-0.2 0.2-0.2 0.4-0.1 0.5l0.5 0.5 1.4 1.1z"
   class="st0" />
	<path
   id="path22"
   d="m38.1 32.5c0.1 0.1 0.1 0.2 0.1 0.3-0.1 0.1-0.2 0.1-0.3 0s-0.3-0.1-0.5-0.2c-0.3-0.2-0.6-0.3-0.9-0.3-0.2 0-0.5 0.1-0.7 0.3s-0.3 0.5-0.3 0.8 0.1 0.6 0.3 0.8 0.3 0.3 0.5 0.3c0.1 0 0.3 0.1 0.5 0 0.2 0 0.3-0.1 0.5-0.1 0.2-0.1 0.4-0.1 0.6-0.2 0.4-0.1 0.7-0.2 1-0.2h0.9c0.3 0 0.5 0.1 0.8 0.3 0.2 0.1 0.5 0.3 0.7 0.5 0.3 0.3 0.5 0.6 0.7 1 0.1 0.4 0.2 0.7 0.2 1.1s-0.1 0.7-0.2 1.1-0.4 0.7-0.7 1c-0.2 0.1-0.3 0.3-0.5 0.4s-0.3 0.2-0.5 0.3-0.3 0.1-0.4 0.2c-0.1 0-0.2 0.1-0.3 0.1s-0.2 0-0.3-0.1l-1.2-1.2c-0.1-0.1-0.1-0.3 0-0.4s0.2-0.1 0.4 0c0.1 0.1 0.4 0.2 0.6 0.4 0.8 0.4 1.4 0.4 1.9-0.1 0.3-0.3 0.5-0.6 0.5-1s-0.1-0.7-0.4-1c-0.2-0.2-0.3-0.3-0.5-0.3-0.2-0.1-0.3-0.1-0.5-0.1s-0.4 0-0.6 0.1c-0.2 0-0.5 0.1-0.8 0.2s-0.6 0.2-0.9 0.2h-0.8c-0.2 0-0.5-0.1-0.7-0.2s-0.4-0.3-0.7-0.5c-0.3-0.3-0.5-0.6-0.6-0.9s-0.2-0.7-0.2-1 0.1-0.7 0.2-1 0.3-0.6 0.6-0.8c0.3-0.3 0.5-0.4 0.8-0.6 0.3-0.1 0.5-0.2 0.6-0.2s0.2 0 0.2 0.1c0.1 0 0.1 0.1 0.2 0.2l0.7 0.7z"
   class="st0" />
	<path
   id="path24"
   d="m46.6 32.6c0.1 0.2 0.2 0.3 0.3 0.3h0.4c0.1-0.1 0.2-0.1 0.3-0.1s0.1 0 0.2 0.1c0.1 0.2 0.1 0.3 0 0.4-0.1 0-0.2 0.1-0.4 0.2s-0.5 0.3-0.9 0.6-0.6 0.5-0.8 0.7l-0.3 0.3c-0.1 0.1-0.3 0.1-0.4-0.1-0.1-0.1-0.1-0.1 0-0.2 0-0.1 0.1-0.1 0.2-0.2s0.2-0.3 0.2-0.4-0.1-0.2-0.2-0.4l-3.5-4.9c-0.1-0.2-0.2-0.3-0.3-0.3h-0.4c-0.1 0.1-0.2 0.1-0.3 0.1s-0.2 0-0.2-0.1c-0.1-0.2-0.1-0.3 0-0.4l0.4-0.2c0.2-0.1 0.5-0.3 0.9-0.6s0.6-0.5 0.8-0.6l0.3-0.3c0.1-0.1 0.3-0.1 0.4 0.1 0.1 0.1 0.1 0.1 0 0.2 0 0.1-0.1 0.1-0.2 0.2s-0.2 0.3-0.2 0.4 0 0.3 0.2 0.4l3.5 4.8z"
   class="st0" />
	<path
   id="path26"
   d="m47.5 24.9c-0.1-0.3-0.3-0.4-0.6-0.3 0 0-0.1 0.1-0.2 0.1s-0.1 0.1-0.2 0.1-0.2 0-0.2-0.1 0-0.2 0.1-0.4 0.3-0.3 0.5-0.5 0.5-0.4 0.8-0.6 0.7-0.4 1.1-0.6c0.6-0.3 1.2-0.5 1.8-0.6s1.2 0 1.7 0.2 1 0.4 1.4 0.8 0.8 0.9 1.1 1.5c0.3 0.5 0.4 1.1 0.5 1.6 0.1 0.6 0 1.1-0.2 1.6s-0.4 1-0.8 1.4-0.9 0.8-1.5 1.1c-0.3 0.2-0.7 0.3-0.9 0.4-0.3 0.1-0.5 0.2-0.7 0.3-0.3 0.1-0.5 0.3-0.7 0.4s-0.3 0.2-0.4 0.3c-0.2 0.1-0.3 0-0.4-0.1v-0.2l0.5-0.5c0-0.1 0-0.3-0.1-0.5l-2.6-5.4zm4.5 4.9c0.2 0.1 0.4 0.1 0.7 0s0.5-0.4 0.7-0.6c0.2-0.3 0.3-0.6 0.4-1s0-0.8 0-1.3c-0.1-0.5-0.3-1-0.5-1.5-0.3-0.5-0.5-1-0.9-1.3-0.3-0.4-0.6-0.6-1-0.8-0.3-0.2-0.7-0.3-1-0.3s-0.7 0-1 0.2c-0.2 0.1-0.3 0.2-0.4 0.3s-0.1 0.2-0.2 0.2v0.3c0 0.1 0.1 0.2 0.1 0.3l2.5 5c0.2 0.1 0.4 0.4 0.6 0.5"
   class="st0" />
	<path
   id="path28"
   d="m63.6 24.5c0.3 0.5 0.6 0.8 0.9 0.9h0.2s0.1 0 0.2 0h0.2s0.1 0.1 0.1 0.2v0.2s-0.1 0.1-0.2 0.1-0.3 0.1-0.5 0.1-0.5 0.1-0.9 0.2c-0.3 0.1-0.6 0.2-0.8 0.3s-0.4 0.2-0.6 0.2c-0.2 0.1-0.3 0-0.4-0.2v-0.3c0.1-0.1 0.1-0.1 0.2-0.1s0.1-0.1 0.2-0.1c0.1-0.1 0.1-0.1 0-0.3 0-0.1-0.1-0.1-0.1-0.2l-0.8-1.3c-0.2-0.1-0.3-0.2-0.4-0.2-0.2 0-0.4 0.1-0.9 0.2-0.2 0.1-0.4 0.1-0.5 0.2-0.1 0-0.2 0.1-0.3 0.1s-0.1 0.1-0.1 0.2v0.2c0 0.6 0 1 0.1 1.2 0 0.2 0.1 0.3 0.2 0.4s0.2 0.1 0.4 0.1h0.5c0.1 0 0.2 0.1 0.2 0.2 0 0.2 0 0.3-0.2 0.3 0 0-0.1 0-0.3 0.1-0.2 0-0.5 0.1-0.8 0.2s-0.5 0.2-0.6 0.2c-0.1 0.1-0.2 0.1-0.2 0.1-0.2 0-0.3 0-0.3-0.2 0-0.1 0-0.2 0.1-0.3s0.2-0.1 0.3-0.2 0.1-0.2 0.2-0.3c0-0.1 0.1-0.3 0.1-0.5l0.3-7.1c0-0.2 0-0.4 0.1-0.5s0.1-0.1 0.3-0.2h0.3c0.1 0 0.2 0.2 0.3 0.4l3.5 5.7zm-4.4-3.3v0.2 2.3 0.1s0.1 0.1 0.1 0l1.3-0.4c0.1 0 0.1-0.1 0.1-0.1 0-0.1 0-0.1-0.1-0.1l-1.3-1.8c-0.1-0.1-0.1-0.2-0.1-0.2"
   class="st0" />
	<path
   id="path30"
   d="m67 18.3c0-0.3-0.2-0.5-0.4-0.4h-0.2-0.2c-0.1 0-0.1-0.1-0.2-0.2 0-0.1 0.1-0.2 0.2-0.3 0.2-0.1 0.4-0.2 0.7-0.3s0.6-0.2 1-0.3 0.8-0.1 1.3-0.2c0.7-0.1 1.3 0 1.9 0.1 0.6 0.2 1.1 0.4 1.5 0.8 0.4 0.3 0.8 0.8 1 1.3 0.3 0.5 0.4 1.1 0.5 1.7s0 1.2-0.2 1.7-0.4 1-0.7 1.4-0.8 0.8-1.3 1c-0.5 0.3-1.1 0.4-1.8 0.5h-1-0.8c-0.3 0-0.6 0.1-0.8 0.1-0.2 0.1-0.4 0.1-0.5 0.1-0.2 0-0.3-0.1-0.3-0.3 0-0.1 0-0.2 0.1-0.2s0.2-0.1 0.3-0.1c0.2-0.1 0.3-0.1 0.3-0.2 0.1-0.1 0.1-0.2 0.1-0.5l-0.5-5.7zm2.4 6.1c0.1 0.2 0.3 0.2 0.7 0.2 0.3 0 0.6-0.1 0.9-0.3s0.5-0.5 0.7-0.8 0.3-0.7 0.4-1.2 0.1-1 0.1-1.6c-0.1-0.6-0.2-1.1-0.3-1.6-0.2-0.5-0.4-0.8-0.6-1.1s-0.5-0.5-0.8-0.7c-0.3-0.1-0.6-0.2-1-0.2-0.2 0-0.4 0-0.5 0.1-0.1 0-0.2 0.1-0.2 0.2-0.1 0.1-0.1 0.2-0.1 0.2v0.3l0.5 5.5c0 0.5 0.1 0.9 0.2 1"
   class="st0" />
	<path
   id="path32"
   d="m83 18.7c0 0.1 0 0.2-0.1 0.3 0 0.1-0.1 0.1-0.2 0.1s-0.2-0.1-0.3-0.3l-0.3-0.6c-0.2-0.4-0.6-0.6-1.1-0.6-0.4 0-0.6 0-0.8 0.1-0.1 0.1-0.2 0.3-0.2 0.5l-0.2 1.9c0 0.1 0 0.2 0.1 0.3s0.2 0.1 0.4 0.1h0.6c0.2 0 0.3-0.1 0.4-0.2s0.2-0.2 0.2-0.3 0.1-0.2 0.1-0.3 0.1-0.1 0.1-0.2c0 0 0.1-0.1 0.2-0.1s0.1 0 0.2 0.1c0 0.1 0.1 0.1 0 0.2 0 0.1 0 0.2-0.1 0.3 0 0.2-0.1 0.4-0.1 0.7s-0.1 0.6-0.1 0.8v0.6c0 0.2-0.1 0.3-0.3 0.3-0.1 0-0.2-0.1-0.2-0.2s-0.1-0.3-0.1-0.5c-0.1-0.2-0.2-0.4-0.3-0.5s-0.3-0.2-0.6-0.2h-0.2-0.2 0.1c-0.1 0-0.2 0.1-0.2 0.2l-0.2 2.1v0.6c0 0.2 0 0.3 0.1 0.4s0.1 0.2 0.3 0.3c0.1 0.1 0.3 0.1 0.5 0.1 0.3 0 0.5 0 0.8-0.1 0.2-0.1 0.4-0.2 0.6-0.4 0.1-0.1 0.2-0.3 0.3-0.4s0.1-0.2 0.2-0.3 0.1-0.2 0.2-0.2c0.1-0.1 0.1-0.1 0.2-0.1 0.2 0 0.2 0.2 0.2 0.4 0 0.1-0.1 0.2-0.1 0.3l-0.3 1.1c0 0.1-0.1 0.2-0.1 0.3-0.1 0.1-0.2 0.1-0.3 0.1s-0.4-0.1-1-0.2c-0.5-0.1-1.3-0.2-2.2-0.3-0.6-0.1-1-0.1-1.4-0.1h-0.6c-0.2 0-0.3-0.1-0.2-0.3 0-0.1 0-0.2 0.1-0.2h0.3c0.2 0 0.3-0.1 0.4-0.1 0.1-0.1 0.1-0.2 0.2-0.4l0.6-6v-0.4c-0.1-0.1-0.2-0.2-0.3-0.2-0.2-0.1-0.3-0.1-0.4-0.1s-0.1-0.1-0.1-0.2c0-0.2 0.1-0.3 0.3-0.2 0 0 0.2 0 0.6 0.1 0.3 0.1 0.9 0.1 1.6 0.2 0.8 0.1 1.4 0.1 1.9 0.1h1c0.1 0 0.2 0 0.3 0.1 0 0 0.1 0.1 0 0.2l-0.3 1.3z"
   class="st0" />
	<path
   id="path34"
   d="m94.3 25.8c0 0.1 0 0.1 0.1 0.1h0.1l2.5-3c0.1-0.1 0.2-0.3 0.3-0.4s0.1-0.2 0.1-0.3v-0.3c-0.1-0.1-0.1-0.2-0.2-0.2l-0.2-0.2c-0.1-0.1-0.1-0.2 0-0.3 0.1-0.2 0.2-0.2 0.4-0.1 0.1 0 0.2 0.1 0.3 0.2s0.3 0.1 0.5 0.2 0.3 0.1 0.4 0.1 0.2 0.1 0.3 0.1c0.2 0.1 0.3 0.2 0.2 0.4 0 0.1-0.1 0.1-0.1 0.2h-0.2-0.2-0.2c-0.2 0-0.3 0.2-0.6 0.4-0.2 0.2-0.5 0.5-0.8 0.9l-2.7 3.1c-0.3 0.3-0.5 0.6-0.7 0.8s-0.3 0.4-0.5 0.6l-0.3 0.3c-0.1 0.1-0.2 0.1-0.3 0-0.1 0-0.2-0.1-0.2-0.2v-0.4-0.6c0-0.3 0-0.6 0.1-0.9l0.2-5v-0.9c0-0.2 0-0.4-0.1-0.5 0-0.1-0.1-0.1-0.1-0.2l-0.2-0.2v-0.2c0-0.1 0.1-0.1 0.1-0.1h0.2l0.4 0.2c0.2 0.1 0.5 0.2 0.9 0.4 0.4 0.1 0.7 0.3 0.9 0.3 0.2 0.1 0.4 0.1 0.5 0.1 0.2 0.1 0.2 0.2 0.2 0.3s-0.1 0.2-0.2 0.2h-0.3-0.3c-0.1 0-0.1 0-0.2 0.1v0.1 0.1l-0.1 4.8z"
   class="st0" />
	<path
   id="path36"
   d="m100.4 30.9c-0.1 0.2-0.1 0.3-0.1 0.4s0.1 0.2 0.2 0.3l0.2 0.2v0.2c-0.1 0.2-0.2 0.2-0.4 0.1-0.1 0-0.2-0.1-0.4-0.3s-0.5-0.3-0.9-0.6c-0.4-0.2-0.7-0.4-0.9-0.5s-0.4-0.1-0.4-0.2c-0.1-0.1-0.2-0.2-0.1-0.4 0-0.1 0.1-0.1 0.2-0.1s0.2 0 0.3 0.1c0.2 0.1 0.3 0.1 0.4 0 0.1 0 0.2-0.2 0.3-0.4l3-5.2c0.1-0.2 0.1-0.3 0.1-0.4s-0.1-0.2-0.2-0.3-0.2-0.2-0.3-0.2c-0.1-0.1-0.1-0.1 0-0.2 0.1-0.2 0.2-0.2 0.4-0.1 0 0 0.2 0.1 0.4 0.3 0.2 0.1 0.5 0.3 0.9 0.6 0.4 0.2 0.7 0.4 0.9 0.5l0.4 0.2c0.1 0.1 0.2 0.2 0.1 0.4 0 0.1-0.1 0.1-0.2 0.1s-0.1 0-0.3-0.1-0.3-0.1-0.4-0.1-0.2 0.2-0.3 0.4l-2.9 5.3z"
   class="st0" />
	<path
   id="path38"
   d="m105.7 34c-0.3 0.3-0.4 0.6-0.4 0.8s0.1 0.4 0.3 0.6l0.6 0.3c0.2 0.1 0.5 0.1 0.7 0 0.2 0 0.3-0.1 0.4-0.1 0.1-0.1 0.3-0.1 0.4-0.2 0.1 0 0.2-0.1 0.3-0.1h0.2l0.1 0.1c0 0.1 0 0.1-0.1 0.2l-1.1 1.1c-0.1 0.1-0.2 0.2-0.3 0.2s-0.2 0-0.3-0.1c-0.2-0.1-0.4-0.4-0.8-0.7-0.4-0.4-0.9-0.8-1.6-1.3-0.4-0.3-0.6-0.5-0.8-0.6s-0.3-0.2-0.4-0.2c-0.1-0.1-0.1-0.2 0-0.4 0.1-0.1 0.1-0.1 0.2-0.1s0.2 0.1 0.3 0.1c0.2 0.1 0.3 0.1 0.4 0.1s0.2-0.1 0.4-0.3l3.7-4.7c0.1-0.2 0.2-0.3 0.2-0.4s0-0.2-0.1-0.3-0.2-0.2-0.2-0.3v-0.2c0.1-0.1 0.2-0.2 0.4-0.1l0.3 0.3c0.2 0.2 0.4 0.4 0.8 0.7s0.6 0.5 0.9 0.6c0.2 0.1 0.4 0.2 0.4 0.3 0.1 0.1 0.2 0.2 0 0.4-0.1 0.1-0.1 0.1-0.2 0.1s-0.2-0.1-0.3-0.1c-0.2-0.1-0.3-0.2-0.5-0.1-0.1 0-0.3 0.1-0.4 0.3l-3.5 4.1z"
   class="st0" />
	<path
   id="path40"
   d="m113.7 41.7c-0.3 0.5-0.4 0.9-0.4 1.2 0 0.1 0 0.1 0.1 0.2 0 0.1 0.1 0.1 0.1 0.2v0.2c0 0.1 0 0.1-0.1 0.2s-0.1 0.1-0.2 0.1-0.1-0.1-0.2-0.2-0.2-0.2-0.3-0.4-0.3-0.4-0.6-0.7c-0.2-0.3-0.4-0.5-0.6-0.6-0.2-0.2-0.4-0.3-0.5-0.4-0.1-0.2-0.1-0.3 0-0.4s0.2-0.1 0.3-0.1 0.1 0.1 0.2 0.1c0.1 0.1 0.1 0.1 0.2 0.1s0.2 0 0.3-0.1l0.2-0.2 0.8-1.3c0.1-0.1 0.1-0.3 0-0.4s-0.3-0.4-0.6-0.7l-0.6-0.6h-0.2c-0.1 0-0.1 0-0.2 0.1-0.6 0.3-0.9 0.5-1.1 0.6-0.1 0.1-0.2 0.2-0.2 0.3s0 0.3 0.1 0.5 0.1 0.3 0.2 0.4 0 0.2-0.1 0.3-0.3 0.1-0.4 0c0 0-0.1-0.1-0.2-0.3s-0.3-0.4-0.5-0.7c-0.2-0.2-0.3-0.4-0.5-0.4-0.1-0.1-0.2-0.1-0.2-0.2-0.1-0.1-0.1-0.3 0-0.4s0.2-0.1 0.3-0.1 0.2 0.1 0.3 0.1 0.2 0.1 0.4 0c0.1 0 0.3-0.1 0.5-0.2l6.5-2.9c0.2-0.1 0.4-0.1 0.5-0.1s0.2 0.1 0.3 0.2 0.2 0.2 0.1 0.3c0 0.1-0.1 0.2-0.2 0.4l-3.5 5.9zm1-5.4h-0.2l-2 1h-0.1v0.1l0.9 1c0.1 0.1 0.1 0.1 0.1 0l0.1-0.1 1.1-1.9c0.1 0 0.1 0 0.1-0.1"
   class="st0" />
	<path
   id="path42"
   d="m121.2 51.2s-0.1 0.1 0 0.1c0 0.1 0.1 0.1 0.1 0.1l3.8-0.5c0.2 0 0.3-0.1 0.5-0.1 0.1 0 0.2-0.1 0.3-0.1 0.1-0.1 0.2-0.1 0.2-0.2v-0.3-0.3c0-0.1 0.1-0.2 0.2-0.2 0.2-0.1 0.3 0 0.4 0.2 0 0.1 0.1 0.2 0.1 0.3s0.1 0.3 0.2 0.5 0.2 0.3 0.2 0.4c0.1 0.1 0.1 0.2 0.2 0.3 0.1 0.2 0.1 0.3-0.1 0.4-0.1 0-0.1 0.1-0.2 0-0.1 0-0.1 0-0.1-0.1l-0.1-0.1c-0.1-0.1-0.1-0.1-0.2-0.1-0.1-0.1-0.4-0.1-0.7-0.1s-0.7 0.1-1.2 0.1l-4.1 0.5c-0.4 0-0.7 0.1-1 0.1s-0.5 0.1-0.7 0.1h-0.4c-0.1 0-0.2-0.1-0.2-0.2v-0.3c0-0.1 0.1-0.2 0.2-0.3l0.4-0.4c0.2-0.2 0.4-0.4 0.7-0.6l3.5-3.5c0.2-0.2 0.4-0.5 0.6-0.6 0.2-0.2 0.2-0.3 0.3-0.4v-0.2-0.2-0.2l0.1-0.1h0.2c0.1 0 0.1 0.1 0.1 0.1s0.1 0.2 0.1 0.4c0.1 0.2 0.2 0.5 0.4 0.9s0.3 0.6 0.5 0.8c0.1 0.2 0.2 0.3 0.3 0.4 0.1 0.2 0 0.3-0.1 0.4s-0.2 0.1-0.3 0-0.2-0.1-0.2-0.2l-0.2-0.2c-0.1-0.1-0.1-0.1-0.2 0 0 0-0.1 0-0.1 0.1l-0.1 0.1-3.4 3.2z"
   class="st0" />
	<path
   id="path44"
   d="m128.5 60.4c-0.1 0-0.2 0.1-0.3 0.1s-0.1 0-0.2-0.1c0-0.1 0-0.2 0.1-0.3l0.5-0.5c0.3-0.3 0.3-0.7 0.2-1.3-0.1-0.4-0.2-0.6-0.4-0.7s-0.3-0.1-0.6 0l-1.8 0.5c-0.1 0-0.2 0.1-0.2 0.2s0 0.2 0.1 0.4c0.1 0.3 0.2 0.5 0.2 0.6l0.3 0.3c0.2 0 0.3 0.1 0.4 0.1h0.3 0.2c0.1 0 0.1 0.1 0.1 0.1v0.2c0 0.1-0.1 0.1-0.2 0.1s-0.2 0-0.3 0.1c-0.2 0-0.4 0.1-0.7 0.2s-0.6 0.2-0.8 0.3-0.4 0.1-0.6 0.2-0.3 0-0.3-0.1 0-0.2 0.1-0.3 0.3-0.2 0.4-0.3c0.2-0.2 0.3-0.3 0.4-0.5s0-0.4 0-0.6v-0.2c0-0.1 0-0.1-0.1-0.2l-0.1-0.1c0-0.1-0.1-0.1-0.2-0.1l-2 0.6c-0.2 0.1-0.4 0.1-0.6 0.2s-0.3 0.1-0.4 0.2-0.1 0.2-0.2 0.4c0 0.1 0 0.3 0.1 0.6s0.2 0.5 0.4 0.7 0.4 0.3 0.6 0.4 0.3 0.1 0.5 0.1c0.1 0 0.3 0 0.4 0.1 0.1 0 0.2 0 0.3 0.1 0.1 0 0.1 0.1 0.1 0.1 0 0.2-0.1 0.3-0.3 0.4h-0.3l-1.1 0.2h-0.3c-0.1 0-0.1-0.1-0.2-0.2 0-0.1-0.1-0.4-0.2-0.9s-0.3-1.3-0.6-2.2c-0.2-0.6-0.3-1-0.4-1.3s-0.2-0.5-0.2-0.6c-0.1-0.2 0-0.3 0.2-0.4h0.2c0 0.1 0.1 0.2 0.2 0.3 0.1 0.2 0.2 0.3 0.3 0.3h0.5l5.8-1.7c0.2-0.1 0.3-0.1 0.4-0.2s0.1-0.2 0.1-0.4v-0.4c0-0.1 0-0.2 0.2-0.2 0.2-0.1 0.3 0 0.3 0.2 0 0 0.1 0.2 0.1 0.6 0.1 0.3 0.2 0.8 0.4 1.5s0.4 1.4 0.6 1.8c0.2 0.5 0.3 0.8 0.3 1v0.3c0 0.1-0.1 0.1-0.2 0.1l-1.5 0.2z"
   class="st0" />
	<path
   id="path46"
   d="m124.5 67.3c-0.4 0.1-0.7 0.1-0.8 0.2s-0.2 0.3-0.2 0.6c0 0.2 0.1 0.4 0.2 0.6s0.3 0.4 0.5 0.5c0.1 0.1 0.3 0.2 0.4 0.2 0.1 0.1 0.3 0.1 0.4 0.1s0.2 0.1 0.3 0.1 0.1 0.1 0.1 0.2v0.1s-0.1 0.1-0.2 0.1h-0.4-1.1c-0.2 0-0.3 0-0.3-0.1-0.1 0-0.1-0.1-0.1-0.3s0-0.6-0.1-1.1c0-0.5-0.1-1.2-0.2-2.1-0.1-0.4-0.1-0.8-0.2-1s-0.1-0.4-0.1-0.4c0-0.2 0.1-0.3 0.3-0.3 0.1 0 0.2 0 0.2 0.1s0.1 0.1 0.1 0.3c0.1 0.2 0.1 0.3 0.2 0.3 0.1 0.1 0.2 0.1 0.5 0l6-0.7c0.2 0 0.3-0.1 0.4-0.1 0.1-0.1 0.1-0.2 0.2-0.3v-0.4c0-0.1 0.1-0.1 0.2-0.1 0.2 0 0.3 0 0.3 0.2v0.4c0 0.2 0 0.6 0.1 1s0.1 0.8 0.2 1.1 0.1 0.4 0.1 0.5c0 0.2-0.1 0.3-0.3 0.3-0.1 0-0.2 0-0.2-0.1s-0.1-0.1-0.1-0.3c-0.1-0.2-0.1-0.4-0.2-0.4-0.1-0.1-0.3-0.1-0.5-0.1l-5.7 0.9z"
   class="st0" />
	<path
   id="path48"
   d="m128.2 75.4c-0.1 0-0.2 0-0.2 0.1l-0.1 2.2c0 0.1 0.1 0.2 0.2 0.2l2.2 0.1c0.2 0 0.3 0 0.4-0.1s0.2-0.2 0.2-0.3 0.1-0.3 0.1-0.3c0-0.1 0.1-0.1 0.2-0.1 0.2 0 0.3 0.1 0.3 0.3 0 0.1 0 0.2-0.1 0.4 0 0.2-0.1 0.6-0.1 1v1 0.4c0 0.2-0.1 0.2-0.3 0.2-0.1 0-0.2 0-0.2-0.1s0-0.2-0.1-0.3c0-0.2-0.1-0.3-0.1-0.4-0.1-0.1-0.2-0.1-0.5-0.1l-6-0.4c-0.2 0-0.3 0-0.4 0.1-0.1 0-0.2 0.1-0.2 0.3s-0.1 0.3-0.1 0.3c0 0.1-0.1 0.1-0.2 0.1-0.2 0-0.3-0.1-0.3-0.3 0-0.1 0-0.2 0.1-0.4s0.1-0.6 0.1-1v-1-0.5c0-0.2 0.1-0.2 0.3-0.2 0.1 0 0.2 0 0.2 0.1v0.3c0 0.2 0.1 0.3 0.1 0.4 0.1 0.1 0.2 0.1 0.5 0.1l2.9 0.2c0.1 0 0.2 0 0.2-0.1l0.1-2.2c0-0.1-0.1-0.2-0.2-0.2l-2.9-0.2c-0.2 0-0.3 0-0.4 0.1s-0.2 0.2-0.2 0.3-0.1 0.3-0.1 0.3c0 0.1-0.1 0.1-0.2 0.1-0.2 0-0.3-0.1-0.3-0.3 0-0.1 0-0.2 0.1-0.4s0.1-0.6 0.1-1v-1-0.5c0-0.2 0.1-0.2 0.3-0.2 0.1 0 0.2 0 0.2 0.1s0 0.2 0.1 0.3c0 0.2 0.1 0.3 0.1 0.4 0.1 0.1 0.2 0.1 0.5 0.1l6 0.4c0.2 0 0.3 0 0.4-0.1 0.1 0 0.2-0.1 0.2-0.3 0-0.1 0.1-0.3 0.1-0.3 0-0.1 0.1-0.1 0.2-0.1 0.2 0 0.3 0.1 0.3 0.3 0 0.1 0 0.2-0.1 0.4 0 0.2-0.1 0.6-0.1 1v1 0.4c0 0.2-0.1 0.2-0.3 0.2-0.1 0-0.2 0-0.2-0.1v-0.3c0-0.2-0.1-0.3-0.2-0.4s-0.2-0.1-0.5-0.1l-2.1 0.1z"
   class="st0" />
	<path
   id="path50"
   d="m122.6 88.4c-0.6 0-1 0.1-1.2 0.3 0 0-0.1 0.1-0.1 0.2s-0.1 0.1-0.1 0.2-0.1 0.1-0.1 0.1h-0.2c-0.1 0-0.1-0.1-0.2-0.1v-0.3c0-0.1 0.1-0.2 0.2-0.5 0.1-0.2 0.2-0.5 0.3-0.9 0.1-0.3 0.1-0.6 0.2-0.9 0-0.3 0.1-0.5 0.1-0.6 0.1-0.2 0.2-0.3 0.3-0.2 0.1 0 0.2 0.1 0.2 0.2v0.3 0.3c0 0.1 0.1 0.1 0.2 0.2h0.2l1.5-0.1c0.2 0 0.3-0.1 0.3-0.2 0.1-0.1 0.1-0.4 0.3-0.8 0.1-0.2 0.1-0.4 0.1-0.5v-0.3c0-0.1 0-0.1-0.1-0.2 0 0-0.1-0.1-0.2-0.1-0.5-0.3-0.9-0.5-1.1-0.6h-0.4c-0.1 0-0.2 0.1-0.3 0.3s-0.2 0.3-0.3 0.4-0.2 0.1-0.3 0.1c-0.2 0-0.2-0.2-0.2-0.3 0 0 0.1-0.1 0.1-0.3 0.1-0.2 0.2-0.5 0.3-0.8s0.1-0.5 0.1-0.6v-0.3c0-0.2 0.1-0.2 0.3-0.2 0.1 0 0.2 0.1 0.2 0.2s0 0.2 0.1 0.4c0 0.1 0.1 0.2 0.2 0.3s0.2 0.2 0.4 0.3l5.9 3.8c0.2 0.1 0.3 0.2 0.4 0.3v0.3c0 0.2-0.1 0.2-0.2 0.3-0.1 0-0.2 0.1-0.5 0.1l-6.4 0.2zm5-2.1s0-0.1-0.1-0.1l-1.9-1.2h-0.1s-0.1 0-0.1 0.1l-0.3 1.3v0.1h0.1l2.2-0.1 0.2-0.1"
   class="st0" />
	<polygon
   id="polygon52"
   points="30.3 97.6 30.9 99.7 33.1 99.7 31.4 100.9 32 103 30.3 101.7 28.5 103 29.2 100.9 27.5 99.7 29.6 99.7"
   class="st0" />
	<polygon
   id="polygon54"
   points="120.1 97.6 120.8 99.7 122.9 99.7 121.2 100.9 121.9 103 120.1 101.7 118.4 103 119 100.9 117.3 99.7 119.5 99.7"
   class="st0" />
	<path
   id="path56"
   d="m78.3 124.4h-2.8l-0.9-2.7c0-0.1-0.2-0.2-0.3-0.2s-0.2 0-0.3 0.2l-0.9 2.7h-2.8c-0.3 0-0.4 0.4-0.2 0.5s2.3 1.7 2.3 1.7-0.8 2.4-0.9 2.7 0.2 0.5 0.4 0.3 2.3-1.7 2.3-1.7 2.1 1.5 2.3 1.7c0.2 0.1 0.5 0 0.4-0.3l-0.9-2.7s2.1-1.5 2.3-1.7c0.4-0.1 0.3-0.5 0-0.5"
   class="st0" />
	<path
   id="path58"
   d="m57.6 123.3c3.4 1.1 7 1.9 10.7 2.4 0.5 0.1 0.4-0.2 0.2-0.4-0.2-0.1-0.5-0.4-0.7-0.5-0.1-0.1-0.3-0.1-0.4-0.2-3.2-0.4-5.9-1.1-8.9-2.1-0.3-0.1-0.4 0-0.5 0.1s-0.2 0.2-0.3 0.2c-0.3 0.2-0.3 0.3-0.1 0.5"
   class="st0" />
	<path
   id="path60"
   d="m95.5 120.5c-4.5 2-9.1 3.3-14.1 4-0.1 0-0.4 0.1-0.6 0.2s-0.4 0.3-0.6 0.5c-0.4 0.3-0.1 0.4 0.2 0.4 5.5-0.6 10.7-2.1 15.6-4.3 0.3-0.2 0.1-0.5 0.1-0.5l-0.2-0.3c0 0.1-0.2-0.1-0.4 0"
   class="st0" />
	<path
   id="path62"
   d="m36.4 111.7c-0.3 0.3-0.5 0.6-0.7 0.8-0.2 0.3-0.3 0.5-0.4 0.7s0 0.5 0 0.7c0.1 0.2 0.2 0.4 0.5 0.7 0.5 0.5 1 0.6 1.6 0.5 0.3-0.1 0.5-0.2 0.8-0.4 0.2-0.2 0.5-0.5 0.9-0.8l1.1-1.2c0.6-0.6 1-1.1 1.3-1.5s0.5-0.7 0.5-0.9c0-0.1 0-0.2-0.1-0.2l-0.2-0.2c-0.1-0.1-0.1-0.1-0.1-0.2s0-0.1 0.1-0.2 0.3-0.1 0.4 0.1l0.3 0.3c0.1 0.1 0.2 0.3 0.4 0.4 0.1 0.1 0.3 0.2 0.4 0.3l0.3 0.3c0.1 0.1 0.1 0.2 0.2 0.2 0 0.1 0 0.1-0.1 0.2s-0.1 0.1-0.2 0.1-0.1 0-0.2-0.1l-0.2-0.2c-0.1-0.1-0.2-0.1-0.2-0.1-0.2 0-0.5 0.2-0.8 0.5-0.4 0.3-0.8 0.8-1.4 1.4l-1.1 1.1c-0.4 0.4-0.7 0.7-1 0.9-0.3 0.3-0.6 0.4-1 0.5s-0.8 0.1-1.2-0.1c-0.4-0.1-0.8-0.4-1.2-0.8s-0.8-0.8-0.9-1.2c-0.2-0.4-0.3-0.8-0.2-1.2 0-0.3 0.2-0.6 0.4-0.9s0.4-0.5 0.7-0.8l3.1-3.3c0.1-0.1 0.2-0.3 0.2-0.4s0-0.2-0.1-0.4c-0.1-0.1-0.1-0.2-0.2-0.3 0-0.1 0-0.1 0.1-0.2s0.3-0.2 0.4 0c0 0 0.1 0.2 0.3 0.3 0.2 0.2 0.4 0.4 0.7 0.8 0.3 0.3 0.5 0.5 0.7 0.6s0.3 0.2 0.3 0.3c0.1 0.1 0.1 0.2 0 0.4-0.1 0.1-0.1 0.1-0.2 0.1s-0.1-0.1-0.2-0.1c-0.2-0.1-0.3-0.2-0.4-0.2s-0.2 0.1-0.4 0.3l-3 3.4z"
   class="st0" />
	<path
   id="path64"
   d="m44.5 118.3v0.1h0.2l3.1-2.3c0.1-0.1 0.3-0.2 0.4-0.3l0.2-0.2c0.1-0.1 0.1-0.2 0.1-0.3s-0.1-0.2-0.1-0.3c-0.1-0.1-0.1-0.2-0.2-0.2v-0.3c0.1-0.1 0.2-0.2 0.4 0 0.1 0.1 0.2 0.1 0.3 0.2s0.2 0.2 0.4 0.3c0.1 0.1 0.3 0.2 0.4 0.2 0.1 0.1 0.2 0.1 0.3 0.2 0.2 0.1 0.2 0.3 0.1 0.4s-0.1 0.1-0.2 0.1h-0.2c-0.1 0-0.1 0-0.2-0.1h-0.2c-0.2 0-0.4 0.1-0.6 0.3-0.3 0.2-0.6 0.4-1 0.7l-3.3 2.5c-0.3 0.2-0.6 0.4-0.8 0.6s-0.4 0.3-0.6 0.4-0.3 0.2-0.4 0.2h-0.3c-0.1-0.1-0.1-0.1-0.1-0.2s0-0.2 0.1-0.4c0-0.2 0.1-0.4 0.2-0.6s0.2-0.5 0.3-0.9l1.3-4.8c0.1-0.3 0.2-0.6 0.2-0.8 0.1-0.2 0.1-0.4 0-0.5 0-0.1-0.1-0.1-0.1-0.2s-0.1-0.1-0.1-0.2c0 0 0-0.1-0.1-0.1 0-0.1 0-0.1 0.1-0.2 0-0.1 0.1-0.1 0.2-0.1h0.2l0.3 0.3c0.2 0.2 0.4 0.3 0.8 0.6 0.3 0.2 0.6 0.4 0.8 0.5l0.4 0.2c0.2 0.1 0.2 0.2 0.1 0.4-0.1 0.1-0.2 0.2-0.2 0.1-0.1 0-0.2 0-0.3-0.1-0.1 0-0.2-0.1-0.3-0.1s-0.2 0-0.2 0.1c0 0 0 0.1-0.1 0.1v0.1l-1.3 4.6z"
   class="st0" />
	<path
   id="path66"
   d="m51.5 122.3v0.1h0.1l2.7-2.8c0.1-0.1 0.2-0.3 0.3-0.4s0.1-0.2 0.2-0.2c0.1-0.1 0.1-0.2 0-0.3 0-0.1-0.1-0.2-0.2-0.2l-0.2-0.2c-0.1-0.1-0.1-0.2 0-0.3 0.1-0.2 0.2-0.2 0.4-0.1 0.1 0 0.2 0.1 0.3 0.2s0.3 0.2 0.4 0.2c0.2 0.1 0.3 0.1 0.4 0.2 0.1 0 0.2 0.1 0.3 0.1 0.2 0.1 0.3 0.2 0.2 0.4 0 0.1-0.1 0.1-0.1 0.1h-0.2-0.2-0.2c-0.2 0-0.4 0.1-0.6 0.4-0.2 0.2-0.5 0.5-0.9 0.8l-4.1 4.1c-0.1 0.1-0.3 0.2-0.4 0.3h-0.3c-0.1 0-0.1-0.1-0.2-0.2v-0.4c0-0.2 0-0.4 0.1-0.6 0-0.3 0.1-0.6 0.1-0.9l0.6-4.9c0-0.3 0.1-0.6 0.1-0.8v-0.5c0-0.1-0.1-0.1-0.1-0.2l-0.2-0.2v-0.2c0-0.1 0.1-0.1 0.1-0.1h0.2s0.2 0.1 0.3 0.2c0.2 0.1 0.5 0.3 0.9 0.5s0.7 0.3 0.9 0.4 0.4 0.1 0.5 0.2c0.2 0.1 0.2 0.2 0.1 0.3s-0.1 0.2-0.2 0.2h-0.3-0.3c-0.1 0-0.2 0-0.2 0.1v0.1 0.1l-0.3 4.5z"
   class="st0" />
	<path
   id="path68"
   d="m103.9 114.6c0.1 0.1 0.1 0.2 0.1 0.3s0 0.1-0.1 0.2-0.2 0-0.4 0c-0.1-0.1-0.4-0.2-0.6-0.3-0.4-0.2-0.8-0.1-1.3 0.2-0.3 0.2-0.5 0.4-0.5 0.6s0 0.4 0.1 0.5l1 1.6c0.1 0.1 0.1 0.2 0.2 0.2s0.2-0.1 0.4-0.2 0.4-0.3 0.5-0.4 0.2-0.2 0.2-0.4v-0.4c0-0.1-0.1-0.2-0.1-0.3v-0.2c0-0.1 0-0.1 0.1-0.1h0.2c0.1 0 0.1 0.1 0.2 0.2 0 0 0.1 0.1 0.2 0.3s0.2 0.4 0.4 0.6c0.2 0.3 0.3 0.5 0.5 0.7 0.1 0.2 0.2 0.4 0.3 0.5 0.1 0.2 0.1 0.3 0 0.4s-0.2 0.1-0.3 0-0.2-0.2-0.4-0.3-0.4-0.2-0.5-0.2c-0.2 0-0.4 0.1-0.6 0.2l-0.3 0.3c-0.1 0.1-0.1 0.2 0 0.2l1.1 1.8c0.1 0.2 0.2 0.3 0.3 0.5l0.3 0.3c0.1 0.1 0.2 0.1 0.4 0.1 0.1 0 0.3-0.1 0.5-0.2s0.4-0.3 0.5-0.5 0.2-0.4 0.2-0.7v-0.5-0.4-0.3c0-0.1 0-0.1 0.1-0.2s0.3 0 0.4 0.2c0 0.1 0.1 0.2 0.1 0.3l0.5 1c0.1 0.1 0.1 0.2 0.1 0.3s-0.1 0.2-0.2 0.2c-0.1 0.1-0.4 0.2-0.9 0.4s-1.1 0.6-2 1.1c-0.5 0.3-0.9 0.6-1.1 0.8-0.3 0.2-0.4 0.3-0.5 0.4-0.2 0.1-0.3 0.1-0.4-0.1-0.1-0.1-0.1-0.2 0-0.2 0-0.1 0.1-0.1 0.2-0.2 0.2-0.1 0.2-0.3 0.3-0.4 0-0.1 0-0.3-0.2-0.4l-3.2-5.1c-0.1-0.2-0.2-0.3-0.3-0.3h-0.4c-0.2 0.1-0.3 0.1-0.4 0.1s-0.2 0-0.2-0.1c-0.1-0.2-0.1-0.3 0.1-0.4 0 0 0.2-0.1 0.5-0.3s0.8-0.4 1.3-0.8c0.7-0.4 1.2-0.8 1.6-1.1s0.7-0.5 0.8-0.6 0.2-0.1 0.3-0.1 0.1 0 0.2 0.1l0.7 1.1z"
   class="st0" />
	<path
   id="path70"
   d="m109.3 110.6c0.1 0.1 0.1 0.3 0 0.3-0.1 0.1-0.2 0.1-0.3 0s-0.3-0.2-0.5-0.3c-0.3-0.2-0.6-0.3-0.9-0.4-0.2 0-0.5 0-0.8 0.3-0.2 0.2-0.4 0.5-0.4 0.8s0.1 0.6 0.3 0.8 0.3 0.3 0.4 0.3c0.1 0.1 0.3 0.1 0.5 0.1s0.3 0 0.5-0.1 0.4-0.1 0.6-0.1c0.4-0.1 0.7-0.1 1-0.1s0.6 0 0.9 0.1 0.5 0.2 0.7 0.3 0.5 0.3 0.7 0.6c0.3 0.3 0.5 0.7 0.6 1 0.1 0.4 0.2 0.7 0.1 1.1 0 0.4-0.1 0.7-0.3 1.1-0.2 0.3-0.4 0.6-0.7 0.9-0.2 0.1-0.3 0.3-0.5 0.4s-0.3 0.2-0.5 0.2c-0.2 0.1-0.3 0.1-0.4 0.1h-0.3c-0.1 0-0.2-0.1-0.3-0.1l-0.4-0.4-0.7-0.8c-0.1-0.1-0.1-0.3 0-0.4s0.2-0.1 0.3 0.1c0.1 0.1 0.3 0.3 0.6 0.4 0.7 0.5 1.4 0.5 1.9 0.1 0.3-0.3 0.5-0.6 0.6-1 0-0.4-0.1-0.7-0.3-1-0.1-0.2-0.3-0.3-0.5-0.4s-0.3-0.1-0.5-0.2h-0.6c-0.2 0-0.5 0.1-0.8 0.1-0.3 0.1-0.6 0.1-0.9 0.1h-0.8c-0.2-0.1-0.5-0.1-0.7-0.3-0.2-0.1-0.4-0.3-0.6-0.5-0.2-0.3-0.4-0.6-0.5-0.9s-0.1-0.7-0.1-1 0.1-0.6 0.3-1c0.2-0.3 0.4-0.6 0.6-0.8 0.3-0.2 0.5-0.4 0.8-0.5s0.5-0.2 0.6-0.2 0.2 0 0.2 0.1c0.1 0 0.1 0.1 0.2 0.2l0.1 0.1 0.8 0.9z"
   class="st0" />
	<path
   id="path72"
   d="m32.9 99.5h-1.9s-0.5-1.6-0.6-1.8c0-0.1-0.1-0.1-0.2-0.1s-0.1 0-0.2 0.1c-0.1 0.2-0.6 1.8-0.6 1.8h-1.9c-0.2 0-0.2 0.3-0.1 0.3 0.1 0.1 1.5 1.1 1.5 1.1s-0.5 1.6-0.6 1.8c0 0.2 0.1 0.3 0.3 0.2 0.1-0.1 1.5-1.1 1.5-1.1s1.4 1 1.5 1.1 0.3 0 0.3-0.2c-0.1-0.2-0.6-1.8-0.6-1.8s1.4-1 1.5-1.1c0.3 0 0.3-0.3 0.1-0.3"
   class="st0" />
	<path
   id="path74"
   d="m122.7 99.5h-1.9s-0.5-1.6-0.6-1.8c0-0.1-0.1-0.1-0.2-0.1s-0.1 0-0.2 0.1c-0.1 0.2-0.6 1.8-0.6 1.8h-1.9c-0.2 0-0.2 0.3-0.1 0.3 0.1 0.1 1.5 1.1 1.5 1.1s-0.5 1.6-0.6 1.8c0 0.2 0.1 0.3 0.3 0.2 0.1-0.1 1.5-1.1 1.5-1.1s1.4 1 1.5 1.1 0.3 0 0.3-0.2c-0.1-0.2-0.6-1.8-0.6-1.8s1.4-1 1.5-1.1c0.4 0 0.3-0.3 0.1-0.3"
   class="st0" />
	<path
   id="path76"
   d="m118.4 73.3c0 24.1-19.5 43.6-43.6 43.6s-43.6-19.5-43.6-43.6 19.5-43.6 43.6-43.6 43.6 19.5 43.6 43.6"
   class="st0" />
	
		<defs
   id="defs79">
			<path
   d="m31.3 73.3c0 24.1 19.5 43.6 43.6 43.6s43.6-19.5 43.6-43.6-19.6-43.6-43.6-43.6c-24.1 0-43.6 19.5-43.6 43.6"
   id="SVGID_1_" />
		</defs>
		<clipPath
   id="SVGID_2_">
			<use
   id="use81"
   xlink:href="#SVGID_1_" />
		</clipPath>
		<path
   id="path84"
   clip-path="url(#SVGID_2_)"
   d="m75.2 52.2s-0.2-0.1-0.2-0.2v-0.6c0-0.2-0.1-0.3-0.3-0.3h-0.3c-0.2 0-0.3-0.2-0.3-0.3v-1.3c0-0.1-0.1-0.3-0.3-0.3h-0.6c-0.2 0-0.3 0.1-0.3 0.3v1.3c0 0.1-0.1 0.3-0.3 0.3h-0.3c-0.1 0-0.3 0.1-0.3 0.3v0.6c0 0.1-0.1 0.2-0.2 0.2-0.2 0.1-0.4 0.3-0.4 0.5s0.1 0.4 0.3 0.5c0.1 0 0.2 0.1 0.2 0.2v1.4c0 0.2-0.3 0.1-0.3 0 0-1-1.1-1.5-1.8-1.2-0.4 0.2-0.8 0-0.9-0.1s0-0.1 0-0.2c0.5-1.1-0.1-2.2-0.5-2.7-0.4-0.6-1.1-0.9-1.9-0.9-0.6 0.1-0.9 0.5-1 0.7-0.1 0.1-0.2 0.1-0.3 0-0.5-0.6-0.6-1.5-0.2-2.1 0.1-0.1 0-0.2 0-0.2s-1-1-1.1-1c0 0-0.1-0.1-0.1-0.2v-5.3c0-0.1 0.1-0.3 0.3-0.3h2.9c0.1 0 0.3-0.1 0.3-0.3v-1c0-0.1-0.1-0.3-0.3-0.3h-2.2c-0.1 0-0.3-0.1-0.3-0.3v-2.1c0-0.1-0.1-0.3-0.3-0.3h-1c-0.1 0-0.3 0.1-0.3 0.3v2.1c0 0.1-0.1 0.3-0.3 0.3h-2.2c-0.2 0-0.3 0.1-0.3 0.3v1c0 0.1 0.1 0.3 0.3 0.3h2.2c0.2 0 0.3 0.1 0.3 0.3v5.4c0 0.1 0 0.1-0.1 0.2l-1.1 1s-0.1 0.1 0 0.2c0.4 0.7 0.3 1.5-0.2 2.1-0.1 0.1-0.2 0.1-0.3 0-0.1-0.2-0.4-0.7-1-0.7-0.7-0.1-1.4 0.3-1.9 0.9-0.4 0.5-1 1.6-0.5 2.7v0.2c-0.1 0.1-0.5 0.3-0.9 0.1-0.7-0.3-1.8 0.1-1.8 1.2 0 0.2-0.2 0.2-0.3 0v-1.4c0-0.1 0.1-0.2 0.2-0.2 0.2-0.1 0.3-0.3 0.3-0.5s-0.2-0.4-0.4-0.5c0 0-0.2-0.1-0.2-0.2v-0.6c0-0.2-0.1-0.3-0.3-0.3h-0.3c-0.2 0-0.3-0.2-0.3-0.3v-1.3c0-0.1-0.1-0.3-0.3-0.3h-0.6c-0.2 0-0.3 0.1-0.3 0.3v1.3c0 0.1-0.1 0.3-0.3 0.3h-0.3c-0.1 0-0.3 0.1-0.3 0.3v0.5c0 0.1-0.1 0.2-0.2 0.2-0.2 0.1-0.4 0.3-0.4 0.5s0.1 0.4 0.3 0.5c0.1 0 0.2 0.1 0.2 0.2v2.9c0 0.1 0.1 0.1 0.1 0.1h11c0.1 0 0.2-0.2 0.1-0.2-0.3-0.2-0.6-0.5-0.6-0.9 0-0.6 0.7-1.1 1.6-1.1s1.6 0.5 1.6 1.1c0 0.3-0.2 0.6-0.6 0.9-0.1 0.1-0.1 0.2 0.1 0.2h10.1c0.1 0 0.1 0 0.1-0.1v-2.9c0-0.1 0.1-0.2 0.2-0.2 0.2-0.1 0.3-0.3 0.3-0.5s-0.2-0.4-0.4-0.5"
   class="st2" />
		<path
   id="path86"
   clip-path="url(#SVGID_2_)"
   d="m75.2 58.1c0-0.3 0.1-0.6 0.2-0.9 0-0.1 0-0.2-0.1-0.2h-23.1c-0.1 0-0.1 0.1-0.1 0.2 0.1 0.3 0.2 0.6 0.2 0.9s-0.1 0.6-0.2 0.9c0 0.1 0 0.2 0.1 0.2h23.2c0.1 0 0.1-0.1 0.1-0.2-0.2-0.3-0.3-0.6-0.3-0.9"
   class="st2" />
		<path
   id="path88"
   clip-path="url(#SVGID_2_)"
   d="m85.1 51.6h-2.1c-0.2 0-0.4-0.1-0.5-0.4-0.2-0.6-0.8-1.3-1.8-1.3-1.1 0-1.7 0.8-1.8 1.3-0.1 0.2-0.3 0.4-0.5 0.4h-2.2c-0.1 0-0.1 0.1-0.1 0.1v5.9c0 0.1 0.1 0.1 0.1 0.1h2.9c0.1 0 0.1-0.1 0.1-0.1v-4.6c0-0.8 0.6-1.4 1.4-1.4s1.4 0.6 1.4 1.4v4.6c0 0.1 0 0.1 0.1 0.1h2.9c0.1 0 0.1-0.1 0.1-0.1v-5.9c0.1-0.1 0.1-0.1 0-0.1"
   class="st2" />
		<path
   id="path90"
   clip-path="url(#SVGID_2_)"
   d="m85.9 49.4h-0.9s-0.1 0-0.1-0.1v-1.5c0-0.1-0.1-0.3-0.3-0.3h-0.6c-0.2 0-0.3 0.1-0.3 0.3v1.1c0 0.1-0.1 0.2-0.2 0.1-0.2-0.1-0.4-0.2-0.6-0.4-0.7-0.5-1.4-0.9-2.4-0.9s-1.8 0.4-2.4 0.9c-0.2 0.2-0.4 0.3-0.6 0.4-0.1 0-0.2 0-0.2-0.1v-1.1c0-0.1-0.1-0.3-0.3-0.3h-0.6c-0.2 0-0.3 0.1-0.3 0.3v1.5c0 0.1-0.1 0.1-0.1 0.1h-0.9c-0.2 0-0.3 0.2-0.3 0.3 0.1 0.4 0.3 1 0.9 1.4h2.2c0.2 0 0.2-0.1 0.3-0.2 0.2-0.6 1-1.5 2.2-1.5s1.9 0.8 2.2 1.5c0 0.1 0.1 0.2 0.3 0.2h2.2c0.6-0.4 0.9-1 0.9-1.4 0.2-0.1 0.1-0.3-0.1-0.3"
   class="st2" />
		<path
   id="path92"
   clip-path="url(#SVGID_2_)"
   d="m73.9 59.8h-0.8c-0.2 0-0.3 0.1-0.3 0.3v1.2c0 0.1 0.1 0.3 0.3 0.3h0.8c0.1 0 0.3-0.1 0.3-0.3v-1.2c0-0.2-0.1-0.3-0.3-0.3"
   class="st2" />
		<path
   id="path94"
   clip-path="url(#SVGID_2_)"
   d="m71.5 59.8h-0.8c-0.2 0-0.3 0.1-0.3 0.3v1.2c0 0.1 0.1 0.3 0.3 0.3h0.8c0.1 0 0.3-0.1 0.3-0.3v-1.2c-0.1-0.2-0.2-0.3-0.3-0.3"
   class="st2" />
		<path
   id="path96"
   clip-path="url(#SVGID_2_)"
   d="m69 59.8h-0.8c-0.2 0-0.3 0.1-0.3 0.3v1.2c0 0.1 0.1 0.3 0.3 0.3h0.8c0.1 0 0.3-0.1 0.3-0.3v-1.2c0-0.2-0.1-0.3-0.3-0.3"
   class="st2" />
		<path
   id="path98"
   clip-path="url(#SVGID_2_)"
   d="m66.6 59.8h-0.8c-0.2 0-0.3 0.1-0.3 0.3v1.2c0 0.1 0.1 0.3 0.3 0.3h0.8c0.1 0 0.3-0.1 0.3-0.3v-1.2c0-0.2-0.1-0.3-0.3-0.3"
   class="st2" />
		<path
   id="path100"
   clip-path="url(#SVGID_2_)"
   d="m64.2 59.8h-0.8c-0.2 0-0.3 0.1-0.3 0.3v1.2c0 0.1 0.1 0.3 0.3 0.3h0.8c0.1 0 0.3-0.1 0.3-0.3v-1.2c-0.1-0.2-0.2-0.3-0.3-0.3"
   class="st2" />
		<path
   id="path102"
   clip-path="url(#SVGID_2_)"
   d="m61.7 59.8h-0.8c-0.2 0-0.3 0.1-0.3 0.3v1.2c0 0.1 0.1 0.3 0.3 0.3h0.8c0.1 0 0.3-0.1 0.3-0.3v-1.2c0-0.2-0.1-0.3-0.3-0.3"
   class="st2" />
		<path
   id="path104"
   clip-path="url(#SVGID_2_)"
   d="m59.3 59.8h-0.8c-0.2 0-0.3 0.1-0.3 0.3v1.2c0 0.1 0.1 0.3 0.3 0.3h0.8c0.1 0 0.3-0.1 0.3-0.3v-1.2c0-0.2-0.2-0.3-0.3-0.3"
   class="st2" />
		<path
   id="path106"
   clip-path="url(#SVGID_2_)"
   d="m56.9 59.8h-0.8c-0.2 0-0.3 0.1-0.3 0.3v1.2c0 0.1 0.1 0.3 0.3 0.3h0.8c0.1 0 0.3-0.1 0.3-0.3v-1.2c-0.1-0.2-0.2-0.3-0.3-0.3"
   class="st2" />
		<path
   id="path108"
   clip-path="url(#SVGID_2_)"
   d="m54.4 59.8h-0.8c-0.2 0-0.3 0.1-0.3 0.3v1.2c0 0.1 0.1 0.3 0.3 0.3h0.8c0.1 0 0.3-0.1 0.3-0.3v-1.2c0-0.2-0.1-0.3-0.3-0.3"
   class="st2" />
		<path
   id="path110"
   clip-path="url(#SVGID_2_)"
   d="m51.2 66.9h-0.8c-0.2 0-0.3 0.1-0.3 0.3v1.2c0 0.1 0.1 0.3 0.3 0.3h0.8c0.1 0 0.3-0.1 0.3-0.3v-1.2c0-0.2-0.1-0.3-0.3-0.3"
   class="st2" />
		<path
   id="path112"
   clip-path="url(#SVGID_2_)"
   d="m48.8 66.9h-0.8c-0.2 0-0.3 0.1-0.3 0.3v1.2c0 0.1 0.1 0.3 0.3 0.3h0.8c0.1 0 0.3-0.1 0.3-0.3v-1.2c-0.1-0.2-0.2-0.3-0.3-0.3"
   class="st2" />
		<path
   id="path114"
   clip-path="url(#SVGID_2_)"
   d="m46.3 66.9h-0.8c-0.2 0-0.3 0.1-0.3 0.3v1.2c0 0.1 0.1 0.3 0.3 0.3h0.8c0.1 0 0.3-0.1 0.3-0.3v-1.2c0-0.2-0.1-0.3-0.3-0.3"
   class="st2" />
		<path
   id="path116"
   clip-path="url(#SVGID_2_)"
   d="m76.2 58.4c-0.1 0-0.1 0.1-0.1 0.1v1s0 0.3-0.3 0.3h-0.3c-0.2 0-0.3 0.1-0.3 0.3v1.2c0 0.1 0.1 0.3 0.2 0.3h0.3c0.3 0 0.3 0.3 0.3 0.3v0.9c0 0.1 0.1 0.1 0.1 0.1h8.9c0.1 0 0.1-0.1 0.1-0.1v-2.9c0.6-0.2 0.9-0.7 1-1 0.1-0.2 0-0.5-0.3-0.5h-9.6z"
   class="st2" />
		<path
   id="path118"
   clip-path="url(#SVGID_2_)"
   d="m51.5 66.1v-6c0-0.1-0.2-0.2-0.2-0.1-0.5 1.8-1.8 6-1.8 6 0 0.1 0 0.2 0.1 0.2h1.8c0.1 0 0.1-0.1 0.1-0.1"
   class="st2" />
		<path
   id="path120"
   clip-path="url(#SVGID_2_)"
   d="m72.3 71.5s0 0.1-0.1 0.1h-3.6c-0.1 0-0.1-0.1-0.1-0.1v-4.1c0-1.1 0.9-1.9 1.9-1.9 1.1 0 1.9 0.9 1.9 1.9v4.1zm-6.6 0s0 0.1-0.1 0.1h-3.6c-0.1 0-0.1-0.1-0.1-0.1v-4.1c0-1.1 0.9-1.9 1.9-1.9 1.1 0 1.9 0.9 1.9 1.9v4.1zm-6.6 0s0 0.1-0.1 0.1h-3.6c-0.1 0-0.1-0.1-0.1-0.1v-4.1c0-1.1 0.9-1.9 1.9-1.9 1.1 0 1.9 0.9 1.9 1.9v4.1zm15.8-9.3h-22.3c-0.1 0-0.1 0.1-0.1 0.1v12.3s0 0.1 0.1 0.1h22.3c0.1 0 0.1-0.1 0.1-0.1v-12.2s0-0.2-0.1-0.2"
   class="st2" />
		<path
   id="path122"
   clip-path="url(#SVGID_2_)"
   d="m83.7 82.6"
   class="st2" />
		<path
   id="path124"
   clip-path="url(#SVGID_2_)"
   d="m83.8 82.5z"
   class="st2" />
		<path
   id="path126"
   clip-path="url(#SVGID_2_)"
   d="m83 83c0.3-0.2 0.5-0.3 0.6-0.3-0.1 0-0.3 0.1-0.6 0.3"
   class="st2" />
		<path
   id="path128"
   clip-path="url(#SVGID_2_)"
   d="m76.2 83h5.5 0.1c0.5-0.3 1-0.6 1.3-0.7 0.1 0 0.1-0.1 0.1-0.1v-0.3s0-0.1-0.1-0.1h-6.8c-0.1 0-0.1 0.1-0.1 0.1v1c-0.1 0-0.1 0.1 0 0.1"
   class="st2" />
		<path
   id="path130"
   clip-path="url(#SVGID_2_)"
   d="m76.2 85.3h1.4 0.1c0.6-0.4 1.2-0.7 1.8-1 0.1-0.1 0.1-0.2-0.1-0.2h-3.2c-0.1 0-0.1 0.1-0.1 0.1v1s0 0.1 0.1 0.1"
   class="st2" />
		<path
   id="path132"
   clip-path="url(#SVGID_2_)"
   d="m32.8 95.3c1.4-2.7 3.6-4.9 6.2-6.6 2.8-1.8 6.1-2.7 9.4-2.7 1 0 2.1 0.1 3.1 0.3v-16.7s0-0.3-0.3-0.3h-6.8s-0.3 0-0.3-0.3v-2.6c0-0.1 0.1-0.1 0.1-0.1 0.2-0.1 0.4-0.3 0.4-0.5s-0.2-0.4-0.4-0.5c0 0-0.1 0-0.1-0.1v-0.4c0-0.1-0.1-0.3-0.3-0.3h-0.8c-0.1 0-0.3 0.1-0.3 0.3v0.4c0 0.1-0.1 0.1-0.1 0.1-0.2 0.1-0.4 0.3-0.4 0.5s0.2 0.4 0.4 0.5c0 0 0.1 0 0.1 0.1v2.1c-0.7 0.3-1.2 1-1.2 1.8v10s-4.7 3.5-4.8 3.6-0.2 0-0.2-0.1v-2c0-0.1-0.1-0.3-0.3-0.3h-0.6c-0.1 0-0.3 0.1-0.3 0.3v3.2c0 0.1-0.1 0.1-0.1 0.1l-4.5 3.3s-0.1 0-0.1 0.1v6.7h2.2z"
   class="st2" />
		<path
   id="path134"
   clip-path="url(#SVGID_2_)"
   d="m49.9 92.9h1.1 0.1s0.3-0.2 0.3-0.3c0 0 0.1 0 0.1-0.1v-5.6h-0.1c-1-0.2-2-0.3-3-0.3-6.2 0-11.8 3.3-14.9 8.7h12.1s0.1 0 0.1-0.1c0-1.2 0.1-2.3 0.1-2.3 0-0.2 0.1-0.4 0.2-0.5l0.3-0.4v-0.1-0.5c0-0.3 0.1-0.4 0.2-0.5l0.6-0.7c0.1-0.1 0.3-0.3 0.6-0.3s0.5 0.2 0.6 0.3l0.6 0.7c0.1 0.1 0.2 0.3 0.2 0.5v0.5 0.1l0.3 0.4c0.1 0.1 0.1 0.2 0.2 0.4 0.1 0.1 0.2 0.1 0.3 0.1"
   class="st2" />
		<path
   id="path136"
   clip-path="url(#SVGID_2_)"
   d="m53.4 91.1s0.3-0.3 0.6-0.3 0.6 0.3 0.6 0.3l2.3 1.8h0.1 1.1c0.1 0 0.1-0.1 0.1-0.1 0-0.2 0.1-0.4 0.2-0.4l0.3-0.4v-0.1-0.5c0-0.3 0.1-0.4 0.2-0.5l0.6-0.7c0.1-0.1 0.3-0.3 0.6-0.3s0.5 0.2 0.6 0.3l0.6 0.7c0.1 0.1 0.2 0.3 0.2 0.5v0.5 0.1l0.3 0.4c0.1 0.1 0.2 0.2 0.2 0.5v1.2c0 0.1 0.1 0.1 0.1 0.1h4.1c0.1 0 0.1-0.1 0.1-0.1l2.3-3.7c0-0.1 0.1-0.2 0.3-0.3 0 0 2.8-1.6 5.9-3.3 0.1 0 0.1-0.1 0.1-0.1v-10.8s0-0.1-0.1-0.1h-22.2c-0.1 0-0.1 0.1-0.1 0.1v15.5c0 0.1 0.1 0.2 0.2 0.1 0 0.1 0.7-0.4 0.7-0.4"
   class="st2" />
		<path
   id="path138"
   clip-path="url(#SVGID_2_)"
   d="m86.8 76.8s0 0.1-0.1 0.1h-2.8c-0.1 0-0.1-0.1-0.1-0.1v-2.8s0-0.1 0.1-0.1h2.8c0.1 0 0.1 0.1 0.1 0.1v2.8zm26.3-0.4h-0.9c-0.1-0.3-0.5-0.5-0.8-0.5s-0.5 0.1-0.7 0.4c-0.2-0.2-0.4-0.4-0.7-0.4s-0.5 0.1-0.7 0.4c-0.2-0.2-0.4-0.4-0.7-0.4s-0.5 0.1-0.7 0.4c-0.2-0.2-0.4-0.4-0.7-0.4s-0.5 0.1-0.7 0.4c-0.2-0.2-0.4-0.4-0.7-0.4s-0.5 0.1-0.7 0.4c-0.2-0.2-0.4-0.4-0.7-0.4s-0.5 0.1-0.7 0.4c-0.2-0.2-0.4-0.4-0.7-0.4s-0.5 0.1-0.7 0.4c-0.2-0.2-0.4-0.4-0.7-0.4s-0.5 0.1-0.7 0.4c-0.2-0.2-0.4-0.4-0.7-0.4s-0.5 0.1-0.7 0.4c-0.2-0.2-0.4-0.4-0.7-0.4s-0.5 0.1-0.7 0.4c-0.2-0.2-0.4-0.4-0.7-0.4-0.2 0-0.4 0.1-0.6 0.2v-6.1c0-0.4 0.3-0.8 0.7-0.9 0 0 0.1 0 0.1-0.1 0-0.2-0.1-0.4-0.3-0.6-0.4-0.4-0.8-0.3-1-0.2h-0.1l-8.4-4.3s-0.3-0.1-0.6-0.1h-11c-0.1 0-0.1 0.1-0.1 0.1v16.8s0 0.1 0.1 0.1h0.9c0.1 0 0.1-0.1 0.1-0.1v-6.7c0-0.1 0.1-0.1 0.1-0.1h4.1c0.1 0 0.1 0.1 0.1 0.1v6.5s0 0.1 0.1 0.1h1.4c0.1 0 0.1-0.1 0.1-0.1v-0.8c0-0.5 0.4-0.8 0.8-0.8h1.5c0.4 0 0.7 0.3 0.8 0.7v2c0 0.1 0.1 0.1 0.1 0.1 3.1 0 6.8 0.3 10.1 0.8 2.9 0.4 6.6 1.1 8.2 2.2 0.3 0.2 0.3 0.5 0.3 0.5v0.1c0 0.1 0 0.1 0.1 0.1 0.2 0 0.4 0.1 0.5 0.2 1.6 1.8 3.7 4.2 4.1 4.7 0.1 0.2 0.2 0.4 0.2 0.6v13.4 0.4l-0.4 0.1-1.6 0.5 3.3 2.1h1.2v-30c0.4-0.2 0.9-0.6 1-1 0.2 0.2 0.1 0-0.2 0"
   class="st2" />
		<path
   id="path140"
   clip-path="url(#SVGID_2_)"
   d="m51.8 100.9v-6.1c0-0.1 0.1-0.1 0.1-0.1h4.1c0.1 0 0.1 0.1 0.1 0.1v5.5c5.1-0.7 9.4-1.3 11.6-1.7 8.5-1.4 23.5-4.9 34.1 1.2 0.8 0.5 1.6 0.9 2.4 1.4v-15.7s0-0.1-0.1-0.1c-2.6-1.8-12.4-2.9-18.6-2.9-0.1 0-0.1-0.1-0.1-0.1v-2.7s0-0.1-0.1-0.1h-1.5s-0.1 0-0.1 0.1v2.8c0 0.1 0 0.1-0.1 0.1-1.1 0.6-14.2 8-14.3 8s-0.1 0.1-0.1 0.1l-2.5 3.9s0 0.1-0.1 0.1h-5s-0.1 0-0.1-0.1c0-0.8-0.1-1.7-0.1-1.8v-0.1l-0.4-0.6v-0.1-0.7-0.1l-0.6-0.7s0-0.1-0.1-0.1-0.1 0.1-0.1 0.1l-0.6 0.7v0.1 0.7 0.1l-0.5 0.6v0.1 0.5c0 0.1-0.1 0.1-0.1 0.1h-1.9-0.1l-2.6-2h-0.1-0.1l-2.6 2h-0.1-1.9s-0.1 0-0.1-0.1v-0.5-0.1l-0.5-0.6v-0.1-0.7-0.1l-0.6-0.7s0-0.1-0.1-0.1-0.1 0.1-0.1 0.1l-0.6 0.7v0.1 0.7 0.1l-0.5 0.6v0.1s-0.1 2.3-0.1 2.9c0 0.1-0.1 0.1-0.1 0.1h-25.6s-0.1 0-0.1 0.1v9.1c2.9-0.3 18.1-2.3 30.6-4.1"
   class="st2" />
		<path
   id="path142"
   clip-path="url(#SVGID_2_)"
   d="m109.3 104.7v-13.5s0-0.1-0.1-0.2c-0.4-0.4-2.5-2.9-4.1-4.7-0.1-0.1-0.2 0-0.2 0.1v15.1c1.6 1.1 3.1 2.1 4.4 3.2"
   class="st2" />
	
	<path
   id="path144"
   d="m74.8 117c-24.3 0-44-19.6-44-43.7s19.7-43.7 44-43.7 44 19.6 44 43.7c0.1 24.1-19.7 43.7-44 43.7m0-86.6c-23.8 0-43.2 19.2-43.2 42.9 0 23.6 19.4 42.9 43.2 42.9s43.2-19.2 43.2-42.9c0.1-23.6-19.3-42.9-43.2-42.9"
   class="st0" />
	<path
   id="path146"
   d="m67.5 102.8h0.4 0.2 0.4v0.3 0.2 0.6 0.9 0.6 4 0.3c0 0.1 0 0.2 0.1 0.3s0.2 0.1 0.4 0.1c0.1 0 0.3 0 0.6 0.1v0.1 0.3h-0.3-0.8-0.4-1-0.2-0.1-0.2-0.2-0.3-0.2v-0.2-0.2c0.2 0 0.3-0.1 0.5-0.1 0.3-0.1 0.5-0.1 0.5-0.2 0.1-0.1 0.1-0.1 0.1-0.2v-0.4-0.4-0.9-0.2-0.4-0.3-0.5-0.3-0.5-0.2-0.1-0.4-0.2-0.3-0.5c-0.3 0.2-0.6 0.4-1 0.6 0 0-0.2 0.1-0.5 0.2-0.1-0.2-0.2-0.3-0.2-0.4 0.4-0.2 0.7-0.4 0.8-0.5 0.2-0.2 0.5-0.4 0.8-0.6 0.3-0.1 0.4-0.3 0.6-0.6"
   class="st3" />
	<path
   id="path148"
   d="m70.7 110.7c-0.1-0.1-0.1-0.1-0.1-0.2s0-0.1 0.1-0.2c0 0 0.1-0.1 0.3-0.2 0.4-0.2 0.8-0.3 1.1-0.6 0.3-0.2 0.5-0.5 0.7-0.8s0.3-0.7 0.4-1c0.1-0.4 0.1-0.7 0.1-0.9 0-0.1 0-0.2 0.1-0.5v-0.7c0-1-0.1-1.7-0.4-2-0.2-0.3-0.4-0.4-0.7-0.4s-0.5 0.1-0.6 0.4c-0.2 0.3-0.4 0.8-0.4 1.4 0 0.4 0 0.7 0.1 1 0 0.2 0.1 0.4 0.2 0.6 0.1 0.1 0.1 0.2 0.2 0.2 0.2 0.1 0.3 0.1 0.5 0.1h0.3 0.1s0.1 0 0.1 0.1c0 0 0.1 0.1 0.1 0.2s-0.1 0.2-0.2 0.3c-0.2 0.1-0.5 0.1-0.8 0.1h-0.3c-0.4-0.1-0.6-0.2-0.7-0.3-0.2-0.2-0.4-0.3-0.5-0.5l-0.3-0.6c-0.1-0.3-0.1-0.6-0.1-0.9 0-0.5 0.1-0.9 0.3-1.3s0.5-0.7 0.9-0.9 0.8-0.3 1.2-0.3c0.7 0 1.4 0.3 1.9 0.8 0.5 0.6 0.7 1.4 0.7 2.5 0 0.5-0.1 1.1-0.3 1.7-0.1 0.1-0.2 0.4-0.4 0.8s-0.5 0.8-0.9 1.1-0.8 0.6-1.3 0.7c-0.4 0.2-0.8 0.2-1.1 0.2-0.2 0.1-0.2 0.1-0.3 0.1"
   class="st3" />
	<path
   id="path150"
   d="m75.6 103h0.7 1.4 1.2 0.7 0.2 0.2v0.4c0 0.1-0.1 0.4-0.2 0.8l-0.3 0.9c-0.1 0.3-0.2 0.5-0.2 0.6-0.1 0.3-0.2 0.5-0.3 0.7s-0.1 0.4-0.2 0.6l-0.3 0.8c0 0.1-0.1 0.4-0.3 0.8l-0.5 1.3c0 0.1-0.1 0.2-0.1 0.2 0 0.1 0 0.1 0.1 0.2s0.1 0.1 0.1 0.2 0 0.2-0.1 0.2h-0.2-0.4-0.2-0.3-0.2c0-0.1 0.1-0.3 0.2-0.6 0.1-0.2 0.3-0.7 0.6-1.4l1-2.7 0.3-0.7c0.1-0.1 0.1-0.3 0.2-0.4 0-0.1 0.1-0.2 0.1-0.3h-0.9-0.9-0.7c-0.2 0-0.4 0-0.4 0.1-0.1 0.1-0.1 0.2-0.2 0.3 0 0.2-0.1 0.3-0.1 0.3s-0.1 0.1-0.3 0.1c-0.1 0-0.1 0-0.2-0.1 0 0-0.1-0.1-0.1-0.2 0-0.2 0-0.5 0.1-0.9 0-0.2 0.1-0.4 0.1-0.6 0.4-0.3 0.4-0.4 0.4-0.6"
   class="st3" />
	<path
   id="path152"
   d="m82.5 106.7v-0.2-0.2s0.1 0 0.2-0.1c0.3-0.1 0.5-0.2 0.8-0.2 0.5 0 1 0.2 1.3 0.6 0.4 0.4 0.5 0.9 0.5 1.6s-0.2 1.3-0.7 1.8c-0.4 0.4-1.1 0.7-1.8 0.7-0.3 0-0.7-0.1-0.9-0.2-0.3-0.1-0.5-0.3-0.7-0.6s-0.4-0.5-0.5-0.8c-0.2-0.5-0.3-1-0.3-1.5s0.1-1 0.2-1.5c0.2-0.5 0.4-1 0.7-1.4s0.7-0.7 1.1-1 0.8-0.4 1.1-0.6c0.6-0.2 1.1-0.3 1.4-0.3 0.1 0 0.1 0 0.1 0.1 0 0 0.1 0.1 0.1 0.2v0.2c-0.1 0-0.2 0.1-0.5 0.1-0.5 0.1-0.9 0.3-1.3 0.6s-0.6 0.6-0.8 0.9c-0.2 0.4-0.4 0.9-0.5 1.4s-0.1 1.1-0.1 1.6c0 0.6 0 1.1 0.1 1.4 0.1 0.4 0.2 0.6 0.4 0.8 0.1 0.1 0.3 0.2 0.5 0.2 0.1 0 0.2 0 0.3-0.1 0.2-0.1 0.3-0.2 0.4-0.3 0.1-0.2 0.2-0.4 0.3-0.7 0-0.3 0.1-0.5 0.1-0.8 0-0.7-0.1-1.2-0.3-1.5s-0.4-0.4-0.7-0.4c-0.1 0.1-0.3 0.1-0.5 0.2"
   class="st3" />
	<path
   id="path154"
   d="m176.8 35.8c-1.5 0.1-2.1 0.5-2.2 1.5-0.1 0.7-0.2 1.8-0.2 3.8v2.4c0 2.9-0.5 5-1.9 6.6-1.2 1.2-2.9 1.8-4.7 1.8-1.6 0-3.2-0.4-4.4-1.3-1.5-1.1-2.2-3-2.2-6.1v-6.1c0-2.4-0.2-2.5-2.2-2.7v-0.9h7.3v0.9c-1.9 0.2-2.2 0.3-2.2 2.7v5.6c0 4 1.5 6.3 4.5 6.3 3.4 0 4.7-2.6 4.7-6.9v-2.3c0-2-0.1-3-0.2-3.8-0.2-0.9-0.8-1.4-2.5-1.5v-0.9h6.4v0.9z"
   class="st0" />
	<path
   id="path156"
   d="m204.9 35.8c-1.4 0.1-2 0.4-2.1 1.6-0.1 0.8-0.2 2-0.2 4.3v10.2h-1.1l-11-13.1h-0.1v6c0 2.3 0.1 3.4 0.2 4.2 0.1 1.2 0.6 1.6 2.5 1.7v0.8h-6.1v-0.8c1.5-0.1 2.1-0.5 2.2-1.7 0.1-0.9 0.2-2 0.2-4.3v-5.4c0-1.7-0.1-2.1-0.5-2.7-0.5-0.6-1.1-0.8-2.2-0.9v-0.8h4.4l10.4 11.9h0.1v-5.2c0-2.3-0.1-3.5-0.2-4.2-0.1-1.1-0.7-1.5-2.6-1.6v-0.8h6.2v0.8z"
   class="st0" />
	<path
   id="path158"
   d="m215.5 51.6v-0.8c2-0.2 2.2-0.4 2.2-2.5v-10c0-2.2-0.2-2.3-2.2-2.5v-0.9h7.4v0.9c-2 0.2-2.2 0.3-2.2 2.5v10c0 2.2 0.2 2.3 2.2 2.5v0.8h-7.4z"
   class="st0" />
	<path
   id="path160"
   d="m251.5 35.8c-1.7 0.2-2.2 0.5-3.2 2.8-0.8 1.8-3.3 7.9-5.3 13.2h-1c-1.8-4.7-4-10.5-5.3-13.7-0.8-1.9-1.2-2.2-2.8-2.4v-0.9h7.1v0.9c-1.9 0.3-1.9 0.5-1.5 1.6 0.7 2 2.7 7.1 4 10.3h0.1c1.4-3.6 2.9-7.4 3.6-9.7 0.5-1.6 0.5-1.9-1.6-2.2v-0.9h6v1z"
   class="st0" />
	<path
   id="path162"
   d="m275.4 47.4c-0.2 1-0.7 3.4-0.9 4.2h-12.9v-0.8c2.3-0.2 2.5-0.4 2.5-2.5v-9.9c0-2.3-0.2-2.4-2.1-2.5v-0.8h11.9c0 0.6 0.1 2.3 0.2 3.8l-0.9 0.1c-0.3-1-0.6-1.7-1-2.2s-1.1-0.7-2.7-0.7h-1.5c-0.9 0-1 0.1-1 0.9v5.6h2c2.2 0 2.5-0.2 2.8-2h0.9v5.1h-0.9c-0.3-1.8-0.6-2-2.8-2h-2v4.6c0 1.2 0.1 1.8 0.6 2.1s1.4 0.3 2.5 0.3c1.6 0 2.4-0.2 3-0.8 0.5-0.5 1-1.4 1.4-2.5h0.9z"
   class="st0" />
	<path
   id="path164"
   d="m291.8 43.4c1.2 0 2.1-0.2 2.7-0.7 0.9-0.8 1.3-1.8 1.3-3.1 0-2.8-1.7-3.7-3.3-3.7-0.7 0-1.1 0.1-1.3 0.3s-0.3 0.4-0.3 1v6.2h0.9zm9.6 8.4c-0.2 0-0.5 0-0.8-0.1-2.7-0.1-3.7-0.8-4.8-2.4-0.8-1.2-1.5-2.6-2.3-3.9-0.5-0.7-0.9-1.1-2-1.1h-0.6v3.8c0 2.1 0.2 2.3 2.2 2.5v0.8h-7.4v-0.8c2-0.2 2.3-0.4 2.3-2.5v-10c0-2.1-0.2-2.3-2.2-2.4v-0.9h6.9c2.1 0 3.4 0.2 4.4 0.9s1.7 1.8 1.7 3.4c0 2.2-1.4 3.5-3.2 4.2 0.4 0.8 1.4 2.5 2.2 3.6 0.9 1.4 1.5 2.2 2 2.8 0.6 0.6 1.1 0.9 1.7 1.1l-0.1 1z"
   class="st0" />
	<path
   id="path166"
   d="m320.7 39c-0.5-1.6-1.4-3.5-3.5-3.5-1.7 0-2.7 1.2-2.7 2.6 0 1.6 1.1 2.4 3.3 3.5 2.4 1.2 4.5 2.5 4.5 5.2 0 2.8-2.4 5.1-6.1 5.1-1 0-1.9-0.2-2.6-0.4s-1.2-0.4-1.4-0.5c-0.2-0.6-0.6-2.8-0.7-4.2l0.8-0.3c0.5 1.6 1.8 4.4 4.4 4.4 1.7 0 2.8-1.1 2.8-2.9 0-1.7-1.2-2.6-3.2-3.6-2.2-1.2-4.4-2.5-4.4-5.1 0-2.7 2.1-4.8 5.6-4.8 1.5 0 2.8 0.4 3.5 0.6 0.1 1 0.3 2 0.5 3.6l-0.8 0.3z"
   class="st0" />
	<path
   id="path168"
   d="m332.9 51.6v-0.8c2-0.2 2.2-0.4 2.2-2.5v-10c0-2.2-0.2-2.3-2.2-2.5v-0.9h7.4v0.9c-2 0.2-2.2 0.3-2.2 2.5v10c0 2.2 0.2 2.3 2.2 2.5v0.8h-7.4z"
   class="st0" />
	<path
   id="path170"
   d="m356.5 48c0 1.9 0.6 2.5 2.5 2.5 4.1 0 6.4-3.1 6.4-7.4 0-2.5-0.9-4.6-2.4-5.8-1.1-0.9-2.6-1.4-4.4-1.4-1 0-1.6 0.2-1.8 0.4s-0.3 0.6-0.3 1.5v10.2zm2.6-13.1c3.3 0 5.7 0.7 7.4 2.2 1.3 1.2 2.3 3 2.3 5.5 0 3.1-1.3 5.3-3.2 6.8s-4.6 2.1-7.8 2.1h-6.5v-0.8c2.1-0.2 2.4-0.4 2.4-2.5v-10c0-2.2-0.3-2.3-2.1-2.5v-0.9h7.5z"
   class="st0" />
	<path
   id="path172"
   d="m386 38.6c-0.8 2-1.6 4-2.3 6h4.4l-2.1-6zm2.4 13v-0.8c1.6-0.3 1.7-0.5 1.4-1.6-0.3-0.9-0.7-2.1-1.2-3.3h-5.2c-0.3 1-0.7 2-1 3-0.5 1.4-0.3 1.7 1.6 1.9v0.8h-5.8v-0.8c1.7-0.3 2-0.5 2.9-2.7l5.3-13.2 1.1-0.3c1.6 4.5 3.3 9 5 13.5 0.8 2.2 1.2 2.5 2.8 2.7v0.8h-6.9z"
   class="st0" />
	<path
   id="path174"
   d="m411 48c0 1.9 0.6 2.5 2.5 2.5 4.1 0 6.4-3.1 6.4-7.4 0-2.5-0.9-4.6-2.4-5.8-1.1-0.9-2.6-1.4-4.4-1.4-1 0-1.6 0.2-1.8 0.4s-0.3 0.6-0.3 1.5v10.2zm2.6-13.1c3.3 0 5.7 0.7 7.4 2.2 1.3 1.2 2.3 3 2.3 5.5 0 3.1-1.3 5.3-3.2 6.8s-4.6 2.1-7.8 2.1h-6.5v-0.8c2.1-0.2 2.4-0.4 2.4-2.5v-10c0-2.2-0.3-2.3-2.1-2.5v-0.9h7.5z"
   class="st0" />
	<path
   id="path176"
   d="m447.7 47.4c-0.2 1-0.7 3.4-0.9 4.2h-12.9v-0.8c2.3-0.2 2.5-0.4 2.5-2.5v-9.9c0-2.3-0.2-2.4-2.1-2.5v-0.8h11.9c0 0.6 0.1 2.3 0.2 3.8l-0.9 0.1c-0.3-1-0.6-1.7-1-2.2s-1.1-0.7-2.7-0.7h-1.6c-0.9 0-1 0.1-1 0.9v5.6h2c2.2 0 2.5-0.2 2.8-2h0.9v5.1h-0.9c-0.3-1.8-0.6-2-2.8-2h-2v4.6c0 1.2 0.1 1.8 0.6 2.1s1.4 0.3 2.5 0.3c1.6 0 2.4-0.2 3-0.8 0.5-0.5 1-1.4 1.4-2.5h1z"
   class="st0" />
	<path
   id="path178"
   d="m192.9 71.1c-3.3 0.3-4.2 0.9-6.1 5.5-1.5 3.5-6.4 15.3-10.2 25.5h-2.1c-3.4-9-7.8-20.3-10.3-26.3-1.5-3.7-2.3-4.3-5.3-4.6v-1.6h13.7v1.6c-3.6 0.5-3.6 1-2.8 3.1 1.4 3.8 5.2 13.6 7.7 19.8h0.1c2.7-7 5.5-14.3 6.9-18.7 1-3.2 0.9-3.7-3.2-4.2v-1.6h11.5v1.5z"
   class="st0" />
	<path
   id="path180"
   d="m195.8 101.6v-1.6c3.9-0.4 4.3-0.7 4.3-4.8v-19.3c0-4.2-0.4-4.5-4.3-4.8v-1.6h14.2v1.6c-3.8 0.3-4.3 0.6-4.3 4.8v19.2c0 4.2 0.4 4.5 4.3 4.8v1.6h-14.2z"
   class="st0" />
	<path
   id="path182"
   d="m239.3 93.4c-0.3 1.9-1.4 6.7-1.8 8.2h-23.6v-1.6c4.3-0.4 4.8-0.7 4.8-4.9v-19.2c0-4.2-0.4-4.5-4.4-4.8v-1.6h14.3v1.6c-3.8 0.3-4.3 0.5-4.3 4.8v19.3c0 2.5 0.2 3.3 1.2 3.8 0.9 0.4 2.4 0.5 4.1 0.5 2.4 0 4.2-0.3 5.3-1.5 0.9-1 1.8-2.6 2.7-5l1.7 0.4z"
   class="st0" />
	<path
   id="path184"
   d="m257 76.6c-1.6 3.9-3 7.8-4.4 11.5h8.4l-4-11.5zm4.5 25v-1.6c3.1-0.5 3.3-1 2.7-3-0.6-1.7-1.4-4-2.4-6.5h-10c-0.6 1.8-1.3 3.8-1.9 5.7-0.9 2.7-0.6 3.2 3.1 3.7v1.6h-11.1v-1.6c3.2-0.5 3.9-0.9 5.6-5.2l10.2-25.5 2.2-0.5c3.2 8.6 6.3 17.4 9.6 26 1.6 4.3 2.3 4.9 5.5 5.3v1.6h-13.5z"
   class="st0" />
	<path
   id="path186"
   d="m316.6 71.1c-3.3 0.3-4.2 0.9-6.1 5.5-1.5 3.5-6.4 15.3-10.2 25.5h-2.1c-3.4-9-7.8-20.3-10.3-26.3-1.5-3.7-2.3-4.3-5.3-4.6v-1.6h13.7v1.6c-3.6 0.5-3.6 1-2.8 3.1 1.4 3.8 5.2 13.6 7.7 19.8h0.1c2.7-7 5.5-14.3 6.9-18.7 1-3.2 0.9-3.7-3.2-4.2v-1.6h11.5v1.5z"
   class="st0" />
	<path
   id="path188"
   d="m345.6 93.5c-0.3 2-1.4 6.5-1.7 8.1h-24.9v-1.6c4.4-0.4 4.9-0.7 4.9-4.8v-19.2c0-4.4-0.4-4.6-4.1-4.9v-1.6h23c0.1 1.1 0.2 4.5 0.4 7.3l-1.7 0.2c-0.5-1.9-1.1-3.3-1.8-4.3-0.8-1-2.1-1.3-5.2-1.3h-3.1c-1.7 0-1.8 0.1-1.8 1.6v11h3.9c4.3 0 4.8-0.3 5.4-3.8h1.6v9.8h-1.6c-0.6-3.5-1.2-3.8-5.4-3.8h-3.9v8.8c0 2.3 0.2 3.5 1.2 4 0.9 0.5 2.7 0.5 4.8 0.5 3.1 0 4.7-0.3 5.9-1.6 0.9-1 1.8-2.7 2.7-4.8l1.4 0.4z"
   class="st0" />
	<path
   id="path190"
   d="m373.6 93.4c-0.3 1.9-1.4 6.7-1.8 8.2h-23.6v-1.6c4.3-0.4 4.8-0.7 4.8-4.9v-19.2c0-4.2-0.4-4.5-4.4-4.8v-1.6h14.3v1.6c-3.8 0.3-4.3 0.5-4.3 4.8v19.3c0 2.5 0.2 3.3 1.2 3.8 0.9 0.4 2.4 0.5 4.1 0.5 2.4 0 4.2-0.3 5.3-1.5 0.9-1 1.8-2.6 2.7-5l1.7 0.4z"
   class="st0" />
	<path
   id="path192"
   d="m410.4 71.1c-4 0.3-4.3 0.6-4.3 4.8v19.3c0 4.1 0.4 4.4 4.3 4.8v1.6h-14.5v-1.6c4.1-0.4 4.5-0.7 4.5-4.8v-9.5h-15.2v9.5c0 4.1 0.4 4.4 4.2 4.8v1.6h-14.1v-1.6c3.8-0.4 4.2-0.7 4.2-4.8v-19.3c0-4.2-0.4-4.5-4.4-4.8v-1.6h14.1v1.6c-3.7 0.3-4.1 0.6-4.1 4.8v7.5h15.2v-7.5c0-4.2-0.4-4.5-4.2-4.8v-1.6h14.2v1.6z"
   class="st0" />
	<path
   id="path194"
   d="m429.8 76.6c-1.6 3.9-3 7.8-4.4 11.5h8.4l-4-11.5zm4.5 25v-1.6c3.1-0.5 3.3-1 2.7-3-0.6-1.7-1.4-4-2.4-6.5h-10c-0.6 1.8-1.3 3.8-1.9 5.7-0.9 2.7-0.6 3.2 3.1 3.7v1.6h-11.1v-1.6c3.3-0.5 3.9-0.9 5.6-5.2l10.2-25.5 2.2-0.5c3.2 8.6 6.3 17.4 9.6 26 1.6 4.3 2.3 4.9 5.5 5.3v1.6h-13.5z"
   class="st0" />
	<path
   id="path196"
   d="m215 125.7c-0.1 0.5-0.3 1.7-0.4 2.1h-6.4v-0.4c1.1-0.1 1.2-0.2 1.2-1.2v-4.9c0-1.1-0.1-1.2-1.1-1.3v-0.4h5.9c0 0.3 0.1 1.1 0.1 1.9l-0.4 0.1c-0.1-0.5-0.3-0.8-0.5-1.1-0.2-0.2-0.5-0.3-1.3-0.3h-0.8c-0.4 0-0.5 0-0.5 0.4v2.8h1c1.1 0 1.2-0.1 1.4-1h0.4v2.5h-0.4c-0.2-0.9-0.3-1-1.4-1h-1v2.3c0 0.6 0.1 0.9 0.3 1s0.7 0.1 1.2 0.1c0.8 0 1.2-0.1 1.5-0.4 0.2-0.3 0.5-0.7 0.7-1.2h0.5z"
   class="st0" />
	<path
   id="path198"
   d="m227.1 121.5c-0.2-0.8-0.7-1.7-1.7-1.7-0.8 0-1.3 0.6-1.3 1.3 0 0.8 0.5 1.2 1.6 1.7 1.2 0.6 2.2 1.2 2.2 2.6s-1.2 2.5-3 2.5c-0.5 0-0.9-0.1-1.3-0.2-0.3-0.1-0.6-0.2-0.7-0.3-0.1-0.3-0.3-1.4-0.4-2.1l0.4-0.1c0.2 0.8 0.9 2.2 2.2 2.2 0.9 0 1.4-0.6 1.4-1.4s-0.6-1.3-1.6-1.8c-1.1-0.6-2.2-1.2-2.2-2.5s1.1-2.4 2.8-2.4c0.7 0 1.4 0.2 1.7 0.3 0 0.5 0.1 1 0.2 1.8l-0.3 0.1z"
   class="st0" />
	<path
   id="path200"
   d="m238.1 123.8c0.1 0.1 0.4 0.1 0.8 0.1 0.6 0 1.6-0.4 1.6-2 0-1.4-0.8-1.9-1.7-1.9-0.3 0-0.5 0.1-0.6 0.1-0.1 0.1-0.1 0.2-0.1 0.5v3.2zm1-4.3c1 0 1.7 0.1 2.2 0.5 0.6 0.4 0.9 1 0.9 1.8 0 1.7-1.2 2.5-2.5 2.6h-0.5l-0.9-0.2v1.8c0 1.1 0.1 1.1 1.2 1.2v0.4h-3.8v-0.4c1-0.1 1.1-0.2 1.1-1.2v-4.9c0-1.1-0.1-1.2-1-1.2v-0.4h3.3z"
   class="st0" />
	<path
   id="path202"
   d="m253.6 118.3-2.5 0.8-0.2-0.3c0.7-0.5 1.5-1 2.1-1.4 0.2 0.1 0.6 0.6 0.6 0.9zm-3.7 9.4v-0.4c1-0.1 1.1-0.2 1.1-1.2v-4.9c0-1.1-0.1-1.2-1.1-1.2v-0.4h3.6v0.4c-1 0.1-1.1 0.1-1.1 1.2v4.9c0 1.1 0.1 1.1 1.1 1.2v0.4h-3.6z"
   class="st0" />
	<path
   id="path204"
   d="m264.4 123.7c0.6 0 1-0.1 1.3-0.3 0.4-0.4 0.6-0.9 0.6-1.5 0-1.4-0.8-1.8-1.6-1.8-0.3 0-0.5 0-0.6 0.1s-0.1 0.2-0.1 0.5v3.1h0.4zm4.8 4.1h-0.4c-1.3 0-1.8-0.4-2.4-1.2-0.4-0.6-0.8-1.3-1.1-1.9-0.2-0.4-0.4-0.5-1-0.5h-0.3v1.9c0 1.1 0.1 1.2 1.1 1.3v0.4h-3.6v-0.4c1-0.1 1.1-0.2 1.1-1.3v-4.9c0-1-0.1-1.1-1.1-1.2v-0.4h3.4c1 0 1.7 0.1 2.2 0.5 0.5 0.3 0.8 0.9 0.8 1.7 0 1.1-0.7 1.7-1.6 2.1 0.2 0.4 0.7 1.2 1.1 1.8 0.4 0.7 0.7 1.1 1 1.4s0.5 0.5 0.8 0.6v0.1z"
   class="st0" />
	<path
   id="path206"
   d="m276.6 127.7v-0.4c1-0.1 1.1-0.2 1.1-1.2v-4.9c0-1.1-0.1-1.2-1.1-1.2v-0.4h3.6v0.4c-1 0.1-1.1 0.1-1.1 1.2v4.9c0 1.1 0.1 1.1 1.1 1.2v0.4h-3.6z"
   class="st0" />
	<path
   id="path208"
   d="m295 121.6c-0.1-0.6-0.3-1-0.5-1.3-0.2-0.2-0.5-0.3-1.3-0.3h-0.7v6c0 1 0.1 1.1 1.3 1.2v0.4h-3.9v-0.4c1.1-0.1 1.2-0.2 1.2-1.2v-6h-0.6c-1.1 0-1.3 0.1-1.5 0.4-0.2 0.2-0.3 0.6-0.5 1.2h-0.5c0.1-0.9 0.1-1.7 0.2-2.4h0.3c0.2 0.3 0.4 0.3 0.7 0.3h5.1c0.3 0 0.5-0.1 0.7-0.3h0.3c0 0.6 0.1 1.6 0.1 2.4h-0.4z"
   class="st0" />
	<path
   id="path210"
   d="m307.2 119.8c-1.4 0-2.5 1.3-2.5 3.5s1.1 4 2.8 4c1.3 0 2.4-1.2 2.4-3.5 0.1-2.5-1.1-4-2.7-4zm0.3-0.5c2.3 0 4.2 1.7 4.2 4.2 0 2.7-2 4.4-4.4 4.4-2.5 0-4.3-1.8-4.3-4.2 0-2.2 1.6-4.4 4.5-4.4z"
   class="st0" />
	<path
   id="path212"
   d="m334 121.5c-0.2-0.8-0.7-1.7-1.7-1.7-0.8 0-1.3 0.6-1.3 1.3 0 0.8 0.5 1.2 1.6 1.7 1.2 0.6 2.2 1.2 2.2 2.6s-1.2 2.5-3 2.5c-0.5 0-0.9-0.1-1.3-0.2-0.3-0.1-0.6-0.2-0.7-0.3-0.1-0.3-0.3-1.4-0.4-2.1l0.4-0.1c0.2 0.8 0.9 2.2 2.2 2.2 0.9 0 1.4-0.6 1.4-1.4s-0.6-1.3-1.6-1.8c-1.1-0.6-2.2-1.2-2.2-2.5s1.1-2.4 2.8-2.4c0.7 0 1.4 0.2 1.7 0.3 0.1 0.5 0.1 1 0.2 1.8l-0.3 0.1z"
   class="st0" />
	<path
   id="path214"
   d="m346.2 121.3c-0.4 1-0.8 2-1.1 2.9h2.1l-1-2.9zm1.2 6.4v-0.4c0.8-0.1 0.9-0.3 0.7-0.8-0.1-0.4-0.4-1-0.6-1.6h-2.6c-0.2 0.5-0.3 1-0.5 1.5-0.2 0.7-0.1 0.8 0.8 1v0.4h-2.8v-0.4c0.8-0.1 1-0.2 1.4-1.3l2.6-6.5 0.6-0.1 2.4 6.6c0.4 1.1 0.6 1.2 1.4 1.4v0.4h-3.4z"
   class="st0" />
	<path
   id="path216"
   d="m367.2 119.9c-0.7 0-1 0.2-1 0.8 0 0.4-0.1 1-0.1 2.1v5h-0.5l-5.4-6.4v3c0 1.1 0.1 1.7 0.1 2.1 0.1 0.6 0.3 0.8 1.2 0.9v0.4h-3.1v-0.4c0.7-0.1 1-0.2 1.1-0.8 0.1-0.4 0.1-1 0.1-2.1v-2.7c0-0.9 0-1-0.3-1.3s-0.5-0.4-1.1-0.5v-0.4h2.2l5.1 5.9v-2.6c0-1.1 0-1.7-0.1-2.1-0.1-0.6-0.3-0.8-1.3-0.8v-0.4h3.1v0.3z"
   class="st0" />
	<path
   id="path218"
   d="m381.8 121.6c-0.1-0.6-0.3-1-0.5-1.3-0.2-0.2-0.5-0.3-1.3-0.3h-0.7v6c0 1 0.1 1.1 1.3 1.2v0.4h-3.9v-0.4c1.1-0.1 1.2-0.2 1.2-1.2v-6h-0.6c-1.1 0-1.3 0.1-1.5 0.4-0.2 0.2-0.3 0.6-0.5 1.2h-0.4c0.1-0.9 0.1-1.7 0.2-2.4h0.3c0.2 0.3 0.4 0.3 0.7 0.3h5.1c0.3 0 0.5-0.1 0.7-0.3h0.3c0 0.6 0.1 1.6 0.1 2.4h-0.5z"
   class="st0" />
	<path
   id="path220"
   d="m394 119.8c-1.4 0-2.5 1.3-2.5 3.5s1.1 4 2.8 4c1.3 0 2.4-1.2 2.4-3.5 0-2.5-1.2-4-2.7-4zm0.2-0.5c2.3 0 4.2 1.7 4.2 4.2 0 2.7-2 4.4-4.4 4.4-2.5 0-4.3-1.8-4.3-4.2 0.1-2.2 1.7-4.4 4.5-4.4z"
   class="st0" />
	<path
   id="path222"
   d="m447 59.8h-287.4c-0.4 0-0.7 0.3-0.7 0.7s0.3 0.7 0.7 0.7h287.4c0.4 0 0.7-0.3 0.7-0.7 0.1-0.3-0.3-0.7-0.7-0.7"
   class="st4" />
	<path
   id="path224"
   d="m447 109.8h-287.4c-0.4 0-0.7 0.3-0.7 0.7s0.3 0.7 0.7 0.7h287.4c0.4 0 0.7-0.3 0.7-0.7 0.1-0.3-0.3-0.7-0.7-0.7"
   class="st4" />

</svg>